{
.appVersion = "3309";
.formatVersion = 3;
DisplayStrings = (
"ÉÉÊÊËËÍÎÓÓÔÔÖÖÚÚÛÛÜÜåééêêëëííîîïïòòóóôôööùúúûûüüýÿÿũĤĤŏččāĶŠŠĆĆŰĊŘŘĖĹĹĠĠĞĞďďššĘĘċŮŮĺĺūūėůůĝĝİĉĉđđōōŐŐĚĚĽĽǅǅǄǄǆǆǉǌǌĄĄĴĴǲťťŕŕőőĜĜŲŲŚŚżĥĥȘŹŹććŇŇřřČČśśğźźŤŤŔŔűĎĎňňŽŽěěǳǱǱǴǴǵǵľľąąŝŝĵĵęęŪžžēųųĈĈŌŌĮĮŃŃįįńńŭġġşǺǼǼǢǦǦŜŜŦŦẂẂŴŴẄẄǇǈǈǊǋǏǑǑǓǓǨǨǪǪǸǸȞȞḂḞḞṀṖṠǻǽǽĕǧǧǿǿŧŧǐǐǒǒǔǔǩǩǫǫǰǰǹǹȟȟȩȳḋḟḟṁṗỹẃẃŵŵẅẅẁẁŷŷỳªºȯȯ"
);
customParameters = (
{
name = glyphOrder;
value = (
space,
exclam,
quotesingle,
quotedbl,
numbersign,
dollar,
percent,
ampersand,
parenleft,
parenright,
asterisk,
plus,
comma,
hyphen,
period,
slash,
zero,
one,
two,
three,
four,
five,
six,
seven,
eight,
nine,
colon,
semicolon,
equal,
question,
at,
A,
B,
C,
D,
E,
F,
G,
H,
I,
J,
K,
L,
M,
N,
O,
P,
Q,
R,
S,
T,
U,
V,
W,
X,
Y,
Z,
bracketleft,
backslash,
bracketright,
asciicircum,
underscore,
grave,
a,
b,
c,
d,
e,
f,
g,
h,
i,
j,
k,
l,
m,
n,
o,
p,
q,
r,
s,
t,
u,
v,
w,
x,
y,
z,
bar,
asciitilde,
exclamdown,
sterling,
currency,
yen,
brokenbar,
section,
dieresis,
copyright,
guillemotleft,
logicalnot,
registered,
macron,
degree,
plusminus,
acute,
mu,
paragraph,
periodcentered,
cedilla,
guillemotright,
onequarter,
onehalf,
threequarters,
questiondown,
Agrave,
Aacute,
Acircumflex,
Atilde,
Adieresis,
Aring,
AE,
Ccedilla,
Egrave,
Eacute,
Ecircumflex,
Edieresis,
Igrave,
Iacute,
Icircumflex,
Idieresis,
Eth,
Ntilde,
Ograve,
Oacute,
Ocircumflex,
Otilde,
Odieresis,
multiply,
Ugrave,
Uacute,
Ucircumflex,
Udieresis,
Yacute,
germandbls,
agrave,
aacute,
acircumflex,
atilde,
adieresis,
aring,
ae,
ccedilla,
egrave,
eacute,
ecircumflex,
edieresis,
igrave,
iacute,
icircumflex,
idieresis,
eth,
ntilde,
ograve,
oacute,
ocircumflex,
otilde,
odieresis,
divide,
oslash,
ugrave,
uacute,
ucircumflex,
udieresis,
yacute,
thorn,
ydieresis,
dotlessi,
circumflex,
caron,
breve,
dotaccent,
ring,
ogonek,
tilde,
hungarumlaut,
quoteleft,
quoteright,
minus,
utilde,
Hcircumflex,
obreve,
quotedblright,
kcommaaccent,
ccaron,
quotesinglbase,
Euro,
amacron,
Kcommaaccent,
Scaron,
Cacute,
Uhungarumlaut,
Cdotaccent,

glyphs = (
{
glyphname = exclam;
lastChange = "2024-06-14 12:24:57 +0000";
layers = (
{
layerId = "67845082-4271-4E32-8C80-EE8FB13E39CE";
shapes = (
{
closed = 1;
nodes = (
(413,-12,o),
(488,63,o),
(488,158,cs),
(488,254,o),
(414,327,o),
(318,327,cs),
(220,327,o),
(149,251,o),
(149,158,cs),
(149,63,o),
(223,-12,o),
(318,-12,cs)
);
},
{
closed = 1;
nodes = (
(391,502,l),
(460,1485,l),
(157,1485,l),
(232,502,l)
);
}
);
userData = {
org.robofab.postScriptHintData = {
};
position = "-94";
width = 437;
};
width = 613;
},
{
layerId = "A42FE7CC-127E-49DD-94F7-5A0AE28D570D";
shapes = (
{
closed = 1;
nodes = (
(295,0,o),
(325,41,o),
(325,86,cs),
(325,131,o),
(295,172,o),
(243,172,cs),
(191,172,o),
(158,132,o),
(158,86,cs),
(158,41,o),
(191,0,o),
(243,0,cs)
);
},
{
closed = 1;
nodes = (
(269,341,l),
(306,1500,l),
(173,1500,l),
(210,341,l)
);
}
);
userData = {
org.robofab.postScriptHintData = {
};
position = "-94";
width = 437;
};
width = 473;
},
{
layerId = "D923CF66-7FA1-4921-AD26-EF4ED3F99F75";
shapes = (
{
closed = 1;
nodes = (
(259,0,o),
(280,32,o),
(280,65,cs),
(280,99,o),
(259,132,o),
(215,132,cs),
(171,132,o),
(150,99,o),
(150,65,cs),
(150,32,o),
(171,0,o),
(215,0,cs)
);
},
{
closed = 1;
nodes = (
(231,300,l),
(258,1515,l),
(166,1515,l),
(194,300,l)
);
}
);
userData = {
org.robofab.postScriptHintData = {
};
position = "-94";
width = 437;
};
width = 445;
},
{
layerId = "A385C2E8-1AD9-48CA-B23A-EC0EE376012C";
shapes = (
{
closed = 1;
nodes = (
(468,-20,o),
(568,73,o),
(568,193,cs),
(568,314,o),
(470,404,o),
(350,404,cs),
(227,404,o),
(138,309,o),
(138,193,cs),
(138,73,o),
(231,-20,o),
(350,-20,cs)
);
},
{
closed = 1;
nodes = (
(447,582,l),
(532,1485,l),
(143,1485,l),
(237,582,l)
);
}
);
userData = {
org.robofab.postScriptHintData = {
};
position = "-94";
width = 437;
};
width = 687;
},
{
layerId = "8D846C25-91DF-40AD-AD53-612095F39333";
shapes = (
{
closed = 1;
nodes = (
(358,-4,o),
(409,54,o),
(409,123,cs),
(409,193,o),
(358,250,o),
(286,250,cs),
(213,250,o),
(160,193,o),
(160,123,cs),
(160,54,o),
(215,-4,o),
(286,-4,cs)
);
},
{
closed = 1;
nodes = (
(335,421,l),
(389,1484,l),
(172,1484,l),
(227,421,l)
);
}
);
userData = {
org.robofab.postScriptHintData = {
};
position = "-94";
width = 437;
};
width = 538;
},
{
layerId = "F7888953-CE93-4976-8BE6-A29979B42D03";
shapes = (
{
closed = 1;
nodes = (
(330,0,o),
(369,49,o),
(369,106,cs),
(369,163,o),
(330,212,o),
(270,212,cs),
(210,212,o),
(165,164,o),
(165,106,cs),
(165,49,o),
(211,0,o),
(270,0,cs)
);
},
{
closed = 1;
nodes = (
(307,381,l),
(353,1484,l),
(179,1484,l),
(225,381,l)
);
}
);
userData = {
org.robofab.postScriptHintData = {
};
position = "-94";
width = 437;
};
width = 501;
},
{
layerId = "DF6AE5EF-88F0-41AF-8A72-F8343FE6B5C8";
shapes = (
{
closed = 1;
nodes = (
(440,-16,o),
(528,68,o),
(528,176,cs),
(528,284,o),
(442,366,o),
(334,366,cs),
(224,366,o),
(143,280,o),
(143,176,cs),
(143,68,o),
(227,-16,o),
(334,-16,cs)
);
},
{
closed = 1;
nodes = (
(419,542,l),
(496,1485,l),
(150,1485,l),
(235,542,l)
);
}
);
userData = {
org.robofab.postScriptHintData = {
};
position = "-94";
width = 437;
};
width = 650;
}
);
unicode = 33;
},
{
glyphname = quotesingle;
lastChange = "2024-06-14 12:24:57 +0000";
layers = (
{
layerId = "67845082-4271-4E32-8C80-EE8FB13E39CE";
shapes = (
{
closed = 1;
nodes = (
(414,862,l),
(483,1408,l),
(484,1415,o),
(483,1481,o),
(483,1489,c),
(190,1489,l),
(190,1481,o),
(189,1415,o),
(190,1408,c),
(256,862,l)
);
}
);
userData = {
org.robofab.postScriptHintData = {
};
position = 6;
width = 157;
};
width = 694;
},
{
layerId = "A42FE7CC-127E-49DD-94F7-5A0AE28D570D";
shapes = (
{
closed = 1;
nodes = (
(232,1048,l),
(260,1426,l),
(261,1435,o),
(260,1491,o),
(260,1501,c),
(130,1501,l),
(130,1491,o),
(129,1434,o),
(130,1425,c),
(162,1048,l)
);
}
);
userData = {
org.robofab.postScriptHintData = {
};
position = 6;
width = 157;
};
width = 390;
},
{
layerId = "D923CF66-7FA1-4921-AD26-EF4ED3F99F75";
shapes = (
{
closed = 1;
nodes = (
(128,1096,l),
(148,1433,l),
(148,1515,l),
(62,1515,l),
(62,1431,l),
(88,1096,l)
);
}
);
userData = {
org.robofab.postScriptHintData = {
};
position = 6;
width = 157;
};
width = 209;
},
{
layerId = "A385C2E8-1AD9-48CA-B23A-EC0EE376012C";
shapes = (
{
closed = 1;
nodes = (
(467,771,l),
(558,1401,l),
(558,1491,l),
(185,1491,l),
(185,1401,l),
(270,771,l)
);
}
);
userData = {
org.robofab.postScriptHintData = {
};
position = 6;
width = 157;
};
width = 776;
},
{
layerId = "8D846C25-91DF-40AD-AD53-612095F39333";
shapes = (
{
closed = 1;
nodes = (
(361,953,l),
(408,1415,l),
(410,1430,o),
(408,1471,o),
(408,1487,c),
(195,1487,l),
(195,1471,o),
(194,1430,o),
(195,1415,c),
(242,953,l)
);
}
);
userData = {
org.robofab.postScriptHintData = {
};
position = 6;
width = 157;
};
width = 612;
},
{
layerId = "F7888953-CE93-4976-8BE6-A29979B42D03";
shapes = (
{
closed = 1;
nodes = (
(335,999,l),
(371,1418,l),
(373,1437,o),
(371,1466,o),
(371,1486,c),
(198,1486,l),
(198,1466,o),
(196,1437,o),
(198,1418,c),
(235,999,l)
);
}
);
userData = {
org.robofab.postScriptHintData = {
};
position = 6;
width = 157;
};
width = 571;
},
{
layerId = "DF6AE5EF-88F0-41AF-8A72-F8343FE6B5C8";
shapes = (
{
closed = 1;
nodes = (
(441,817,l),
(521,1404,l),
(521,1408,o),
(521,1486,o),
(521,1490,c),
(188,1490,l),
(188,1486,o),
(187,1408,o),
(188,1404,c),
(263,817,l)
);
}
);
userData = {
org.robofab.postScriptHintData = {
};
position = 6;
width = 157;
};
width = 735;
}
);
unicode = 39;
},
{
glyphname = quotedbl;
lastChange = "2024-06-14 12:24:57 +0000";
layers = (
{
layerId = "67845082-4271-4E32-8C80-EE8FB13E39CE";
shapes = (
{
closed = 1;
nodes = (
(324,862,l),
(378,1408,l),
(378,1415,o),
(378,1481,o),
(378,1489,c),
(101,1489,l),
(101,1481,o),
(100,1415,o),
(101,1408,c),
(166,862,l)
);
},
{
closed = 1;
nodes = (
(731,862,l),
(800,1408,l),
(801,1415,o),
(800,1481,o),
(800,1489,c),
(526,1489,l),
(526,1481,o),
(526,1415,o),
(526,1408,c),
(574,862,l)
);
}
);
userData = {
org.robofab.postScriptHintData = {
};
position = 6;
width = 157;
};
width = 883;
},
{
layerId = "A42FE7CC-127E-49DD-94F7-5A0AE28D570D";
shapes = (
{
closed = 1;
nodes = (
(157,1048,l),
(180,1426,l),
(181,1435,o),
(180,1491,o),
(180,1501,c),
(55,1501,l),
(55,1491,o),
(54,1434,o),
(55,1425,c),
(87,1048,l)
);
},
{
closed = 1;
nodes = (
(408,1048,l),
(436,1426,l),
(437,1435,o),
(436,1491,o),
(436,1501,c),
(316,1501,l),
(316,1491,o),
(315,1434,o),
(316,1425,c),
(338,1048,l)
);
}
);
userData = {
org.robofab.postScriptHintData = {
};
position = 6;
width = 157;
};
width = 483;
},
{
layerId = "D923CF66-7FA1-4921-AD26-EF4ED3F99F75";
shapes = (
{
closed = 1;
nodes = (
(119,1096,l),
(138,1433,l),
(138,1515,l),
(52,1515,l),
(52,1431,l),
(79,1096,l)
);
},
{
closed = 1;
nodes = (
(324,1096,l),
(344,1433,l),
(344,1515,l),
(258,1515,l),
(258,1431,l),
(284,1096,l)
);
}
);
userData = {
org.robofab.postScriptHintData = {
};
position = 6;
width = 157;
};
width = 387;
},
{
layerId = "A385C2E8-1AD9-48CA-B23A-EC0EE376012C";
shapes = (
{
closed = 1;
nodes = (
(410,771,l),
(482,1401,l),
(482,1491,l),
(129,1491,l),
(129,1401,l),
(214,771,l)
);
},
{
closed = 1;
nodes = (
(891,771,l),
(982,1401,l),
(982,1491,l),
(628,1491,l),
(628,1401,l),
(695,771,l)
);
}
);
userData = {
org.robofab.postScriptHintData = {
};
position = 6;
width = 157;
};
width = 1085;
},
{
layerId = "8D846C25-91DF-40AD-AD53-612095F39333";
shapes = (
{
closed = 1;
nodes = (
(238,953,l),
(274,1415,l),
(275,1430,o),
(274,1471,o),
(274,1487,c),
(72,1487,l),
(72,1471,o),
(71,1430,o),
(72,1415,c),
(119,953,l)
);
},
{
closed = 1;
nodes = (
(572,953,l),
(619,1415,l),
(620,1430,o),
(619,1471,o),
(619,1487,c),
(424,1487,l),
(424,1471,o),
(423,1430,o),
(424,1415,c),
(453,953,l)
);
}
);
userData = {
org.robofab.postScriptHintData = {
};
position = 6;
width = 157;
};
width = 680;
},
{
layerId = "F7888953-CE93-4976-8BE6-A29979B42D03";
shapes = (
{
closed = 1;
nodes = (
(195,999,l),
(222,1418,l),
(223,1437,o),
(222,1466,o),
(222,1486,c),
(58,1486,l),
(58,1466,o),
(56,1437,o),
(58,1418,c),
(95,999,l)
);
},
{
closed = 1;
nodes = (
(492,999,l),
(528,1418,l),
(530,1437,o),
(528,1466,o),
(528,1486,c),
(373,1486,l),
(373,1466,o),
(372,1437,o),
(373,1418,c),
(392,999,l)
);
}
);
userData = {
org.robofab.postScriptHintData = {
};
position = 6;
width = 157;
};
width = 579;
},
{
layerId = "DF6AE5EF-88F0-41AF-8A72-F8343FE6B5C8";
shapes = (
{
closed = 1;
nodes = (
(367,817,l),
(430,1404,l),
(430,1408,o),
(430,1486,o),
(430,1490,c),
(115,1490,l),
(115,1486,o),
(114,1408,o),
(115,1404,c),
(190,817,l)
);
},
{
closed = 1;
nodes = (
(811,817,l),
(891,1404,l),
(892,1408,o),
(891,1486,o),
(891,1490,c),
(577,1490,l),
(577,1486,o),
(577,1408,o),
(577,1404,c),
(634,817,l)
);
}
);
userData = {
org.robofab.postScriptHintData = {
};
position = 6;
width = 157;
};
width = 984;
}
);
unicode = 34;
},
{
glyphname = numbersign;
lastChange = "2024-06-14 12:24:57 +0000";
layers = (
{
layerId = "67845082-4271-4E32-8C80-EE8FB13E39CE";
shapes = (
{
closed = 1;
nodes = (
(348,0,l),
(641,1489,l),
(440,1489,l),
(164,0,l)
);
},
{
closed = 1;
nodes = (
(1220,483,l),
(1220,609,l),
(96,609,l),
(96,483,l)
);
},
{
closed = 1;
nodes = (
(1248,860,l),
(1248,986,l),
(125,986,l),
(125,860,l)
);
},
{
closed = 1;
nodes = (
(885,0,l),
(1178,1489,l),
(976,1489,l),
(701,0,l)
);
}
);
userData = {
org.robofab.postScriptHintData = {
};
position = 946;
width = 110;
};
width = 1319;
},
{
layerId = "A42FE7CC-127E-49DD-94F7-5A0AE28D570D";
shapes = (
{
closed = 1;
nodes = (
(285,0,l),
(580,1500,l),
(480,1500,l),
(197,0,l)
);
},
{
closed = 1;
nodes = (
(1156,510,l),
(1156,575,l),
(114,575,l),
(114,510,l)
);
},
{
closed = 1;
nodes = (
(1184,885,l),
(1184,950,l),
(142,950,l),
(142,885,l)
);
},
{
closed = 1;
nodes = (
(789,0,l),
(1086,1500,l),
(985,1500,l),
(702,0,l)
);
}
);
userData = {
org.robofab.postScriptHintData = {
};
position = 946;
width = 110;
};
width = 1290;
},
{
layerId = "D923CF66-7FA1-4921-AD26-EF4ED3F99F75";
shapes = (
{
closed = 1;
nodes = (
(279,0,l),
(578,1515,l),
(512,1515,l),
(221,0,l)
);
},
{
closed = 1;
nodes = (
(1154,518,l),
(1154,564,l),
(123,564,l),
(123,518,l)
);
},
{
closed = 1;
nodes = (
(1182,892,l),
(1182,938,l),
(151,938,l),
(151,892,l)
);
},
{
closed = 1;
nodes = (
(755,0,l),
(1055,1515,l),
(989,1515,l),
(698,0,l)
);
}
);
userData = {
org.robofab.postScriptHintData = {
};
position = 946;
width = 110;
};
width = 1290;
},
{
layerId = "A385C2E8-1AD9-48CA-B23A-EC0EE376012C";
shapes = (
{
closed = 1;
nodes = (
(387,0,l),
(680,1491,l),
(435,1491,l),
(159,0,l)
);
},
{
closed = 1;
nodes = (
(1261,470,l),
(1261,624,l),
(91,624,l),
(91,470,l)
);
},
{
closed = 1;
nodes = (
(1289,848,l),
(1289,1002,l),
(119,1002,l),
(119,848,l)
);
},
{
closed = 1;
nodes = (
(926,0,l),
(1219,1491,l),
(973,1491,l),
(697,0,l)
);
}
);
userData = {
org.robofab.postScriptHintData = {
};
position = 946;
width = 110;
};
width = 1339;
},
{
layerId = "8D846C25-91DF-40AD-AD53-612095F39333";
shapes = (
{
closed = 1;
nodes = (
(309,0,l),
(602,1486,l),
(445,1486,l),
(169,0,l)
);
},
{
closed = 1;
nodes = (
(1179,496,l),
(1179,594,l),
(101,594,l),
(101,496,l)
);
},
{
closed = 1;
nodes = (
(1207,872,l),
(1207,970,l),
(130,970,l),
(130,872,l)
);
},
{
closed = 1;
nodes = (
(844,0,l),
(1137,1486,l),
(979,1486,l),
(704,0,l)
);
}
);
userData = {
org.robofab.postScriptHintData = {
};
position = 946;
width = 110;
};
width = 1299;
},
{
layerId = "F7888953-CE93-4976-8BE6-A29979B42D03";
shapes = (
{
closed = 1;
nodes = (
(290,0,l),
(582,1485,l),
(447,1485,l),
(172,0,l)
);
},
{
closed = 1;
nodes = (
(1158,502,l),
(1158,586,l),
(104,586,l),
(104,502,l)
);
},
{
closed = 1;
nodes = (
(1186,878,l),
(1186,962,l),
(133,962,l),
(133,878,l)
);
},
{
closed = 1;
nodes = (
(823,0,l),
(1116,1485,l),
(981,1485,l),
(706,0,l)
);
}
);
userData = {
org.robofab.postScriptHintData = {
};
position = 946;
width = 110;
};
width = 1289;
},
{
layerId = "DF6AE5EF-88F0-41AF-8A72-F8343FE6B5C8";
shapes = (
{
closed = 1;
nodes = (
(368,0,l),
(660,1490,l),
(437,1490,l),
(162,0,l)
);
},
{
closed = 1;
nodes = (
(1240,476,l),
(1240,616,l),
(94,616,l),
(94,476,l)
);
},
{
closed = 1;
nodes = (
(1268,854,l),
(1268,994,l),
(122,994,l),
(122,854,l)
);
},
{
closed = 1;
nodes = (
(905,0,l),
(1198,1490,l),
(975,1490,l),
(699,0,l)
);
}
);
userData = {
org.robofab.postScriptHintData = {
};
position = 946;
width = 110;
};
width = 1329;
}
);
unicode = 35;
},
{
glyphname = dollar;
lastChange = "2024-06-14 12:24:57 +0000";
layers = (
{
layerId = "67845082-4271-4E32-8C80-EE8FB13E39CE";
shapes = (
{
closed = 1;
nodes = (
(427,-176,l),
(671,1535,l),
(579,1535,l),
(335,-176,l)
);
},
{
pos = (-16,89);
ref = s;
}
);
userData = {
org.robofab.postScriptHintData = {
};
position = 736;
width = 73;
};
width = 1002;
},
{
layerId = "A42FE7CC-127E-49DD-94F7-5A0AE28D570D";
shapes = (
{
closed = 1;
nodes = (
(435,-174,l),
(574,1528,l),
(504,1528,l),
(365,-174,l)
);
},
{
pos = (0,106);
ref = s;
}
);
userData = {
org.robofab.postScriptHintData = {
};
position = 736;
width = 73;
};
width = 916;
},
{
layerId = "D923CF66-7FA1-4921-AD26-EF4ED3F99F75";
shapes = (
{
closed = 1;
nodes = (
(437,-182,l),
(530,1515,l),
(474,1515,l),
(381,-182,l)
);
},
{
pos = (0,88);
ref = s;
}
);
userData = {
org.robofab.postScriptHintData = {
};
position = 736;
width = 73;
};
width = 886;
},
{
layerId = "A385C2E8-1AD9-48CA-B23A-EC0EE376012C";
shapes = (
{
closed = 1;
nodes = (
(423,-184,l),
(707,1531,l),
(609,1531,l),
(325,-184,l)
);
},
{
pos = (-26,66);
ref = s;
}
);
userData = {
org.robofab.postScriptHintData = {
};
position = 736;
width = 73;
};
width = 1040;
},
{
layerId = "8D846C25-91DF-40AD-AD53-612095F39333";
shapes = (
{
closed = 1;
nodes = (
(431,-169,l),
(636,1539,l),
(548,1539,l),
(344,-169,l)
);
},
{
pos = (-5,112);
ref = s;
}
);
userData = {
org.robofab.postScriptHintData = {
};
position = 736;
width = 73;
};
width = 964;
},
{
layerId = "F7888953-CE93-4976-8BE6-A29979B42D03";
shapes = (
{
closed = 1;
nodes = (
(433,-165,l),
(618,1541,l),
(533,1541,l),
(349,-165,l)
);
},
{
pos = (0,123);
ref = s;
}
);
userData = {
org.robofab.postScriptHintData = {
};
position = 736;
width = 73;
};
width = 945;
},
{
layerId = "DF6AE5EF-88F0-41AF-8A72-F8343FE6B5C8";
shapes = (
{
closed = 1;
nodes = (
(425,-180,l),
(689,1533,l),
(594,1533,l),
(330,-180,l)
);
},
{
pos = (-21,77);
ref = s;
}
);
userData = {
org.robofab.postScriptHintData = {
};
position = 736;
width = 73;
};
width = 1021;
}
);
unicode = 36;
},
{
glyphname = percent;
lastChange = "2024-06-14 12:24:57 +0000";
layers = (
{
layerId = "67845082-4271-4E32-8C80-EE8FB13E39CE";
shapes = (
{
closed = 1;
nodes = (
(369,874,o),
(309,961,o),
(309,1099,cs),
(309,1243,o),
(369,1332,o),
(464,1332,cs),
(559,1332,o),
(618,1243,o),
(618,1099,cs),
(618,961,o),
(559,874,o),
(464,874,cs)
);
},
{
closed = 1;
nodes = (
(682,695,o),
(819,851,o),
(819,1099,cs),
(819,1349,o),
(682,1506,o),
(464,1506,cs),
(245,1506,o),
(108,1349,o),
(108,1099,cs),
(108,851,o),
(245,695,o),
(464,695,cs)
);
},
{
closed = 1;
nodes = (
(1556,1521,l),
(1369,1603,l),
(523,-29,l),
(709,-107,l)
);
},
{
closed = 1;
nodes = (
(1512,162,o),
(1452,249,o),
(1452,387,cs),
(1452,531,o),
(1512,620,o),
(1607,620,cs),
(1701,620,o),
(1760,531,o),
(1760,387,cs),
(1760,249,o),
(1701,162,o),
(1607,162,cs)
);
},
{
closed = 1;
nodes = (
(1825,-17,o),
(1962,139,o),
(1962,387,cs),
(1962,637,o),
(1825,794,o),
(1607,794,cs),
(1388,794,o),
(1251,637,o),
(1251,387,cs),
(1251,139,o),
(1388,-17,o),
(1607,-17,cs)
);
}
);
userData = {
org.robofab.postScriptHintData = {
};
position = 1324;
width = 74;
};
width = 2044;
},
{
layerId = "A42FE7CC-127E-49DD-94F7-5A0AE28D570D";
shapes = (
{
closed = 1;
nodes = (
(312,842,o),
(240,952,o),
(240,1129,cs),
(240,1315,o),
(312,1432,o),
(427,1432,cs),
(541,1432,o),
(614,1315,o),
(614,1129,cs),
(614,952,o),
(541,842,o),
(427,842,cs)
);
},
{
closed = 1;
nodes = (
(608,751,o),
(721,897,o),
(721,1130,cs),
(721,1368,o),
(608,1517,o),
(427,1517,cs),
(246,1517,o),
(132,1368,o),
(132,1130,cs),
(132,897,o),
(246,751,o),
(427,751,cs)
);
},
{
closed = 1;
nodes = (
(1399,1497,l),
(1314,1538,l),
(399,-3,l),
(486,-40,l)
);
},
{
closed = 1;
nodes = (
(1243,75,o),
(1171,185,o),
(1171,362,cs),
(1171,548,o),
(1243,664,o),
(1358,664,cs),
(1472,664,o),
(1544,548,o),
(1544,362,cs),
(1544,185,o),
(1472,75,o),
(1358,75,cs)
);
},
{
closed = 1;
nodes = (
(1538,-17,o),
(1652,130,o),
(1652,362,cs),
(1652,600,o),
(1538,749,o),
(1358,749,cs),
(1177,749,o),
(1063,600,o),
(1063,362,cs),
(1063,130,o),
(1177,-17,o),
(1358,-17,cs)
);
}
);
userData = {
org.robofab.postScriptHintData = {
};
position = 1324;
width = 74;
};
width = 1755;
},
{
layerId = "D923CF66-7FA1-4921-AD26-EF4ED3F99F75";
shapes = (
{
closed = 1;
nodes = (
(305,847,o),
(229,961,o),
(229,1144,cs),
(229,1337,o),
(305,1458,o),
(425,1458,cs),
(545,1458,o),
(622,1337,o),
(622,1144,cs),
(622,961,o),
(545,847,o),
(425,847,cs)
);
},
{
closed = 1;
nodes = (
(602,768,o),
(713,913,o),
(713,1145,cs),
(713,1382,o),
(602,1532,o),
(425,1532,cs),
(248,1532,o),
(137,1382,o),
(137,1145,cs),
(137,913,o),
(248,768,o),
(425,768,cs)
);
},
{
closed = 1;
nodes = (
(1392,1507,l),
(1329,1539,l),
(393,-12,l),
(458,-40,l)
);
},
{
closed = 1;
nodes = (
(1240,63,o),
(1164,177,o),
(1164,360,cs),
(1164,553,o),
(1240,673,o),
(1360,673,cs),
(1480,673,o),
(1557,553,o),
(1557,360,cs),
(1557,177,o),
(1480,63,o),
(1360,63,cs)
);
},
{
closed = 1;
nodes = (
(1537,-17,o),
(1648,129,o),
(1648,361,cs),
(1648,598,o),
(1537,747,o),
(1360,747,cs),
(1183,747,o),
(1072,598,o),
(1072,361,cs),
(1072,129,o),
(1183,-17,o),
(1360,-17,cs)
);
}
);
userData = {
org.robofab.postScriptHintData = {
};
position = 1324;
width = 74;
};
width = 1771;
},
{
layerId = "A385C2E8-1AD9-48CA-B23A-EC0EE376012C";
shapes = (
{
closed = 1;
nodes = (
(403,899,o),
(349,973,o),
(349,1089,cs),
(349,1209,o),
(403,1283,o),
(488,1283,cs),
(573,1283,o),
(626,1209,o),
(626,1089,cs),
(626,973,o),
(573,899,o),
(488,899,cs)
);
},
{
closed = 1;
nodes = (
(728,669,o),
(879,831,o),
(879,1089,cs),
(879,1347,o),
(728,1508,o),
(488,1508,cs),
(247,1508,o),
(95,1347,o),
(95,1089,cs),
(95,831,o),
(247,669,o),
(488,669,cs)
);
},
{
closed = 1;
nodes = (
(1656,1545,l),
(1416,1647,l),
(603,-52,l),
(839,-152,l)
);
},
{
closed = 1;
nodes = (
(1690,213,o),
(1636,287,o),
(1636,403,cs),
(1636,523,o),
(1690,597,o),
(1775,597,cs),
(1860,597,o),
(1913,523,o),
(1913,403,cs),
(1913,287,o),
(1860,213,o),
(1775,213,cs)
);
},
{
closed = 1;
nodes = (
(2015,-17,o),
(2166,145,o),
(2166,403,cs),
(2166,661,o),
(2015,822,o),
(1775,822,cs),
(1534,822,o),
(1383,661,o),
(1383,403,cs),
(1383,145,o),
(1534,-17,o),
(1775,-17,cs)
);
}
);
userData = {
org.robofab.postScriptHintData = {
};
position = 1324;
width = 74;
};
width = 2248;
},
{
layerId = "8D846C25-91DF-40AD-AD53-612095F39333";
shapes = (
{
closed = 1;
nodes = (
(336,849,o),
(270,949,o),
(270,1109,cs),
(270,1276,o),
(336,1381,o),
(440,1381,cs),
(544,1381,o),
(609,1276,o),
(609,1109,cs),
(609,949,o),
(544,849,o),
(440,849,cs)
);
},
{
closed = 1;
nodes = (
(636,721,o),
(758,871,o),
(758,1109,cs),
(758,1352,o),
(636,1503,o),
(440,1503,cs),
(244,1503,o),
(121,1352,o),
(121,1109,cs),
(121,871,o),
(244,721,o),
(440,721,cs)
);
},
{
closed = 1;
nodes = (
(1456,1498,l),
(1322,1558,l),
(444,-6,l),
(578,-62,l)
);
},
{
closed = 1;
nodes = (
(1335,111,o),
(1269,211,o),
(1269,371,cs),
(1269,539,o),
(1335,643,o),
(1439,643,cs),
(1542,643,o),
(1607,539,o),
(1607,371,cs),
(1607,211,o),
(1542,111,o),
(1439,111,cs)
);
},
{
closed = 1;
nodes = (
(1634,-17,o),
(1757,133,o),
(1757,371,cs),
(1757,614,o),
(1634,765,o),
(1439,765,cs),
(1243,765,o),
(1119,614,o),
(1119,371,cs),
(1119,133,o),
(1243,-17,o),
(1439,-17,cs)
);
}
);
userData = {
org.robofab.postScriptHintData = {
};
position = 1324;
width = 74;
};
width = 1841;
},
{
layerId = "F7888953-CE93-4976-8BE6-A29979B42D03";
shapes = (
{
closed = 1;
nodes = (
(319,837,o),
(250,943,o),
(250,1114,cs),
(250,1293,o),
(319,1405,o),
(428,1405,cs),
(537,1405,o),
(605,1293,o),
(605,1114,cs),
(605,943,o),
(537,837,o),
(428,837,cs)
);
},
{
closed = 1;
nodes = (
(613,734,o),
(728,881,o),
(728,1114,cs),
(728,1353,o),
(613,1502,o),
(428,1502,cs),
(243,1502,o),
(127,1353,o),
(127,1114,cs),
(127,881,o),
(243,734,o),
(428,734,cs)
);
},
{
closed = 1;
nodes = (
(1406,1486,l),
(1299,1536,l),
(404,6,l),
(513,-39,l)
);
},
{
closed = 1;
nodes = (
(1246,86,o),
(1177,192,o),
(1177,363,cs),
(1177,543,o),
(1246,654,o),
(1355,654,cs),
(1463,654,o),
(1531,543,o),
(1531,363,cs),
(1531,192,o),
(1463,86,o),
(1355,86,cs)
);
},
{
closed = 1;
nodes = (
(1539,-17,o),
(1655,130,o),
(1655,363,cs),
(1655,602,o),
(1539,751,o),
(1355,751,cs),
(1170,751,o),
(1053,602,o),
(1053,363,cs),
(1053,130,o),
(1170,-17,o),
(1355,-17,cs)
);
}
);
userData = {
org.robofab.postScriptHintData = {
};
position = 1324;
width = 74;
};
width = 1739;
},
{
layerId = "DF6AE5EF-88F0-41AF-8A72-F8343FE6B5C8";
shapes = (
{
closed = 1;
nodes = (
(386,887,o),
(329,967,o),
(329,1094,cs),
(329,1226,o),
(386,1307,o),
(476,1307,cs),
(566,1307,o),
(622,1226,o),
(622,1094,cs),
(622,967,o),
(566,887,o),
(476,887,cs)
);
},
{
closed = 1;
nodes = (
(705,682,o),
(849,841,o),
(849,1094,cs),
(849,1348,o),
(705,1507,o),
(476,1507,cs),
(246,1507,o),
(101,1348,o),
(101,1094,cs),
(101,841,o),
(246,682,o),
(476,682,cs)
);
},
{
closed = 1;
nodes = (
(1606,1533,l),
(1393,1625,l),
(563,-40,l),
(774,-129,l)
);
},
{
closed = 1;
nodes = (
(1601,188,o),
(1544,268,o),
(1544,395,cs),
(1544,527,o),
(1601,608,o),
(1691,608,cs),
(1781,608,o),
(1837,527,o),
(1837,395,cs),
(1837,268,o),
(1781,188,o),
(1691,188,cs)
);
},
{
closed = 1;
nodes = (
(1920,-17,o),
(2064,142,o),
(2064,395,cs),
(2064,649,o),
(1920,808,o),
(1691,808,cs),
(1461,808,o),
(1317,649,o),
(1317,395,cs),
(1317,142,o),
(1461,-17,o),
(1691,-17,cs)
);
}
);
userData = {
org.robofab.postScriptHintData = {
};
position = 1324;
width = 74;
};
width = 2146;
}
);
unicode = 37;
},
{
glyphname = ampersand;
lastChange = "2024-06-14 12:24:57 +0000";
layers = (
{
layerId = "67845082-4271-4E32-8C80-EE8FB13E39CE";
shapes = (
{
closed = 1;
nodes = (
(1022,904,o),
(1136,998,o),
(1136,1192,cs),
(1137,1384,o),
(950,1507,o),
(698,1507,cs),
(424,1507,o),
(259,1383,o),
(259,1180,cs),
(259,1027,o),
(345,929,o),
(477,836,c),
(311,752,o),
(137,628,o),
(137,386,cs),
(137,80,o),
(393,-17,o),
(716,-17,cs),
(991,-17,o),
(1159,49,o),
(1262,177,c),
(1507,-34,l),
(1632,130,l),
(1382,334,l),
(1435,443,o),
(1475,629,o),
(1475,816,c),
(1265,822,l),
(1265,709,o),
(1248,557,o),
(1210,470,c),
(822,797,l)
);
},
{
closed = 1;
nodes = (
(546,195,o),
(434,268,o),
(434,421,cs),
(434,547,o),
(509,640,o),
(631,696,c),
(1096,305,l),
(1012,217,o),
(896,195,o),
(751,195,cs)
);
},
{
closed = 1;
nodes = (
(582,982,o),
(512,1069,o),
(512,1164,cs),
(512,1272,o),
(582,1319,o),
(706,1319,cs),
(821,1319,o),
(901,1271,o),
(900,1161,cs),
(900,1030,o),
(772,974,o),
(666,931,c)
);
}
);
userData = {
org.robofab.postScriptHintData = {
};
position = 1068;
width = 98;
};
width = 1639;
},
{
layerId = "A42FE7CC-127E-49DD-94F7-5A0AE28D570D";
shapes = (
{
closed = 1;
nodes = (
(868,919,o),
(1053,1006,o),
(1056,1200,cs),
(1061,1447,o),
(856,1519,o),
(641,1519,cs),
(407,1519,o),
(239,1437,o),
(239,1193,cs),
(239,1062,o),
(337,965,o),
(460,875,c),
(217,794,o),
(116,635,o),
(116,417,cs),
(116,71,o),
(399,-17,o),
(684,-17,cs),
(993,-17,o),
(1186,30,o),
(1281,226,c),
(1520,38,l),
(1571,115,l),
(1322,312,l),
(1368,451,o),
(1378,633,o),
(1378,833,c),
(1267,832,l),
(1267,641,o),
(1269,513,o),
(1233,375,c),
(642,846,l)
);
},
{
closed = 1;
nodes = (
(490,88,o),
(247,135,o),
(247,425,cs),
(247,616,o),
(335,748,o),
(535,812,c),
(1195,283,l),
(1104,110,o),
(964,88,o),
(681,88,cs)
);
},
{
closed = 1;
nodes = (
(456,987,o),
(363,1080,o),
(363,1197,cs),
(363,1385,o),
(496,1422,o),
(641,1422,cs),
(796,1422,o),
(943,1374,o),
(938,1201,cs),
(934,1049,o),
(768,980,o),
(566,915,c)
);
}
);
userData = {
org.robofab.postScriptHintData = {
};
position = 1068;
width = 98;
};
width = 1574;
},
{
layerId = "D923CF66-7FA1-4921-AD26-EF4ED3F99F75";
shapes = (
{
closed = 1;
nodes = (
(858,956,o),
(1040,1061,o),
(1046,1225,cs),
(1054,1480,o),
(845,1532,o),
(630,1532,cs),
(405,1532,o),
(237,1468,o),
(237,1216,cs),
(237,1075,o),
(339,985,o),
(463,885,c),
(199,806,o),
(117,631,o),
(117,421,cs),
(117,63,o),
(422,-17,o),
(678,-17,cs),
(1028,-17,o),
(1198,20,o),
(1298,239,c),
(1531,58,l),
(1565,109,l),
(1319,304,l),
(1370,461,o),
(1365,607,o),
(1365,827,c),
(1291,826,l),
(1291,595,o),
(1291,488,o),
(1257,344,c),
(591,866,l)
);
},
{
closed = 1;
nodes = (
(528,59,o),
(206,93,o),
(206,421,cs),
(206,630,o),
(284,769,o),
(512,840,c),
(1232,277,l),
(1140,77,o),
(1011,59,o),
(673,59,cs)
);
},
{
closed = 1;
nodes = (
(431,993,o),
(318,1085,o),
(318,1223,cs),
(318,1440,o),
(475,1466,o),
(631,1466,cs),
(810,1466,o),
(980,1424,o),
(971,1228,cs),
(965,1092,o),
(802,1000,o),
(539,912,c)
);
}
);
userData = {
org.robofab.postScriptHintData = {
};
position = 1068;
width = 98;
};
width = 1571;
},
{
layerId = "A385C2E8-1AD9-48CA-B23A-EC0EE376012C";
shapes = (
{
closed = 1;
nodes = (
(1118,919,o),
(1183,1030,o),
(1183,1203,cs),
(1183,1365,o),
(1006,1508,o),
(730,1508,cs),
(435,1508,o),
(272,1367,o),
(272,1186,cs),
(272,1013,o),
(352,919,o),
(490,817,c),
(363,732,o),
(151,621,o),
(151,368,cs),
(151,81,o),
(404,-17,o),
(733,-17,cs),
(1013,-17,o),
(1150,55,o),
(1261,153,c),
(1507,-68,l),
(1670,136,l),
(1421,344,l),
(1481,445,o),
(1531,610,o),
(1531,801,c),
(1280,811,l),
(1280,725,o),
(1249,570,o),
(1211,513,c),
(908,778,l)
);
},
{
closed = 1;
nodes = (
(609,248,o),
(532,328,o),
(532,417,cs),
(532,511,o),
(591,582,o),
(681,638,c),
(1055,316,l),
(975,267,o),
(883,248,o),
(792,248,cs)
);
},
{
closed = 1;
nodes = (
(650,983,o),
(582,1065,o),
(582,1160,cs),
(582,1233,o),
(626,1281,o),
(742,1281,cs),
(848,1281,o),
(898,1236,o),
(898,1152,cs),
(898,1046,o),
(798,984,o),
(716,941,c)
);
}
);
userData = {
org.robofab.postScriptHintData = {
};
position = 1068;
width = 98;
};
width = 1681;
},
{
layerId = "8D846C25-91DF-40AD-AD53-612095F39333";
shapes = (
{
closed = 1;
nodes = (
(925,889,o),
(1089,966,o),
(1089,1181,cs),
(1090,1403,o),
(895,1506,o),
(667,1506,cs),
(413,1506,o),
(246,1398,o),
(246,1173,cs),
(246,1042,o),
(338,939,o),
(464,855,c),
(260,771,o),
(122,635,o),
(122,403,cs),
(122,79,o),
(382,-17,o),
(699,-17,cs),
(969,-17,o),
(1168,43,o),
(1263,200,c),
(1508,1,l),
(1595,124,l),
(1343,324,l),
(1390,441,o),
(1419,648,o),
(1419,831,c),
(1250,833,l),
(1250,694,o),
(1247,544,o),
(1209,427,c),
(735,816,l)
);
},
{
closed = 1;
nodes = (
(483,142,o),
(337,207,o),
(337,426,cs),
(337,583,o),
(426,697,o),
(582,754,c),
(1137,294,l),
(1049,168,o),
(909,142,o),
(710,142,cs)
);
},
{
closed = 1;
nodes = (
(515,981,o),
(443,1072,o),
(443,1169,cs),
(443,1311,o),
(538,1358,o),
(669,1358,cs),
(794,1358,o),
(904,1306,o),
(903,1170,cs),
(902,1014,o),
(747,965,o),
(617,922,c)
);
}
);
userData = {
org.robofab.postScriptHintData = {
};
position = 1068;
width = 98;
};
width = 1597;
},
{
layerId = "F7888953-CE93-4976-8BE6-A29979B42D03";
shapes = (
{
closed = 1;
nodes = (
(877,882,o),
(1066,950,o),
(1066,1175,cs),
(1067,1413,o),
(867,1505,o),
(651,1505,cs),
(408,1505,o),
(240,1406,o),
(240,1170,cs),
(240,1049,o),
(335,944,o),
(457,865,c),
(234,781,o),
(115,638,o),
(115,412,cs),
(115,79,o),
(376,-17,o),
(690,-17,cs),
(958,-17,o),
(1173,40,o),
(1264,212,c),
(1508,18,l),
(1576,121,l),
(1324,319,l),
(1367,440,o),
(1391,658,o),
(1391,838,c),
(1243,838,l),
(1243,686,o),
(1247,538,o),
(1209,405,c),
(692,825,l)
);
},
{
closed = 1;
nodes = (
(452,116,o),
(288,177,o),
(288,428,cs),
(288,601,o),
(385,726,o),
(557,783,c),
(1158,288,l),
(1067,143,o),
(916,116,o),
(689,116,cs)
);
},
{
closed = 1;
nodes = (
(481,980,o),
(408,1074,o),
(408,1171,cs),
(408,1330,o),
(516,1377,o),
(651,1377,cs),
(781,1377,o),
(905,1324,o),
(904,1175,cs),
(903,1006,o),
(734,960,o),
(592,917,c)
);
}
);
userData = {
org.robofab.postScriptHintData = {
};
position = 1068;
width = 98;
};
width = 1576;
},
{
layerId = "DF6AE5EF-88F0-41AF-8A72-F8343FE6B5C8";
shapes = (
{
closed = 1;
nodes = (
(1070,912,o),
(1160,1014,o),
(1160,1197,cs),
(1160,1375,o),
(978,1507,o),
(714,1507,cs),
(430,1507,o),
(266,1375,o),
(266,1183,cs),
(266,1020,o),
(349,924,o),
(483,827,c),
(337,742,o),
(144,624,o),
(144,377,cs),
(144,81,o),
(398,-17,o),
(724,-17,cs),
(1002,-17,o),
(1155,52,o),
(1262,165,c),
(1507,-51,l),
(1651,133,l),
(1402,339,l),
(1458,444,o),
(1503,620,o),
(1503,808,c),
(1273,816,l),
(1273,717,o),
(1249,564,o),
(1211,491,c),
(865,787,l)
);
},
{
closed = 1;
nodes = (
(578,222,o),
(483,298,o),
(483,419,cs),
(483,529,o),
(550,611,o),
(656,667,c),
(1076,310,l),
(993,242,o),
(890,222,o),
(771,222,cs)
);
},
{
closed = 1;
nodes = (
(616,982,o),
(547,1067,o),
(547,1162,cs),
(547,1252,o),
(604,1300,o),
(724,1300,cs),
(835,1300,o),
(899,1254,o),
(899,1157,cs),
(899,1038,o),
(785,979,o),
(691,936,c)
);
}
);
userData = {
org.robofab.postScriptHintData = {
};
position = 1068;
width = 98;
};
width = 1660;
}
);
unicode = 38;
},
{
glyphname = parenleft;
lastChange = "2024-06-14 12:24:57 +0000";
layers = (
{
layerId = "67845082-4271-4E32-8C80-EE8FB13E39CE";
shapes = (
{
closed = 1;
nodes = (
(752,-105,l),
(575,72,o),
(488,368,o),
(488,673,cs),
(488,979,o),
(581,1294,o),
(765,1486,c),
(618,1631,l),
(330,1415,o),
(187,1050,o),
(187,684,cs),
(187,322,o),
(330,-40,o),
(618,-252,c)
);
}
);
userData = {
org.robofab.postScriptHintData = {
};
position = "-65";
width = 115;
};
width = 865;
},
{
layerId = "A42FE7CC-127E-49DD-94F7-5A0AE28D570D";
shapes = (
{
closed = 1;
nodes = (
(565,-85,l),
(399,76,o),
(316,401,o),
(316,733,cs),
(316,1059,o),
(401,1393,o),
(572,1564,c),
(500,1631,l),
(284,1450,o),
(176,1092,o),
(176,733,cs),
(176,378,o),
(286,22,o),
(506,-155,c)
);
}
);
userData = {
org.robofab.postScriptHintData = {
};
position = "-65";
width = 115;
};
width = 684;
},
{
layerId = "D923CF66-7FA1-4921-AD26-EF4ED3F99F75";
shapes = (
{
closed = 1;
nodes = (
(481,-96,l),
(326,58,o),
(248,404,o),
(248,749,cs),
(248,1095,o),
(326,1440,o),
(481,1594,c),
(440,1636,l),
(250,1478,o),
(155,1114,o),
(155,749,cs),
(155,384,o),
(250,21,o),
(440,-138,c)
);
}
);
userData = {
org.robofab.postScriptHintData = {
};
position = "-65";
width = 115;
};
width = 575;
},
{
layerId = "A385C2E8-1AD9-48CA-B23A-EC0EE376012C";
shapes = (
{
closed = 1;
nodes = (
(822,-125,l),
(644,58,o),
(558,349,o),
(558,644,cs),
(558,950,o),
(652,1259,o),
(833,1454,c),
(656,1635,l),
(338,1411,o),
(180,1036,o),
(180,662,cs),
(180,290,o),
(336,-82,o),
(650,-306,c)
);
}
);
userData = {
org.robofab.postScriptHintData = {
};
position = "-65";
width = 115;
};
width = 914;
},
{
layerId = "8D846C25-91DF-40AD-AD53-612095F39333";
shapes = (
{
closed = 1;
nodes = (
(683,-84,l),
(506,86,o),
(418,387,o),
(418,702,cs),
(418,1008,o),
(510,1329,o),
(696,1518,c),
(579,1627,l),
(322,1419,o),
(194,1063,o),
(194,705,cs),
(194,355,o),
(325,2,o),
(587,-198,c)
);
}
);
userData = {
org.robofab.postScriptHintData = {
};
position = "-65";
width = 115;
};
width = 816;
},
{
layerId = "F7888953-CE93-4976-8BE6-A29979B42D03";
shapes = (
{
closed = 1;
nodes = (
(648,-74,l),
(472,93,o),
(383,397,o),
(383,716,cs),
(383,1023,o),
(475,1346,o),
(662,1534,c),
(560,1625,l),
(318,1421,o),
(197,1070,o),
(197,716,cs),
(197,371,o),
(322,23,o),
(571,-171,c)
);
}
);
userData = {
org.robofab.postScriptHintData = {
};
position = "-65";
width = 115;
};
width = 792;
},
{
layerId = "DF6AE5EF-88F0-41AF-8A72-F8343FE6B5C8";
shapes = (
{
closed = 1;
nodes = (
(787,-115,l),
(610,65,o),
(523,359,o),
(523,658,cs),
(523,965,o),
(617,1276,o),
(799,1470,c),
(637,1633,l),
(334,1413,o),
(183,1043,o),
(183,673,cs),
(183,306,o),
(333,-61,o),
(634,-279,c)
);
}
);
userData = {
org.robofab.postScriptHintData = {
};
position = "-65";
width = 115;
};
width = 890;
}
);
unicode = 40;
},
{
glyphname = parenright;
lastChange = "2024-06-14 12:24:57 +0000";
layers = (
{
layerId = "67845082-4271-4E32-8C80-EE8FB13E39CE";
shapes = (
{
closed = 1;
nodes = (
(566,-40,o),
(709,322,o),
(709,684,cs),
(709,1050,o),
(566,1415,o),
(278,1631,c),
(131,1486,l),
(314,1294,o),
(407,979,o),
(407,673,cs),
(407,368,o),
(321,72,o),
(144,-105,c),
(277,-252,l)
);
}
);
userData = {
org.robofab.postScriptHintData = {
};
position = 234;
width = 116;
};
width = 864;
},
{
layerId = "A42FE7CC-127E-49DD-94F7-5A0AE28D570D";
shapes = (
{
closed = 1;
nodes = (
(399,22,o),
(508,378,o),
(508,733,cs),
(508,1092,o),
(400,1450,o),
(184,1631,c),
(113,1564,l),
(284,1393,o),
(369,1059,o),
(369,733,cs),
(369,401,o),
(286,76,o),
(120,-85,c),
(179,-155,l)
);
}
);
userData = {
org.robofab.postScriptHintData = {
};
position = 234;
width = 116;
};
width = 684;
},
{
layerId = "D923CF66-7FA1-4921-AD26-EF4ED3F99F75";
shapes = (
{
closed = 1;
nodes = (
(326,21,o),
(421,384,o),
(421,749,cs),
(421,1114,o),
(326,1478,o),
(136,1636,c),
(95,1594,l),
(250,1440,o),
(328,1095,o),
(328,749,cs),
(328,404,o),
(250,58,o),
(95,-96,c),
(136,-138,l)
);
}
);
userData = {
org.robofab.postScriptHintData = {
};
position = 234;
width = 116;
};
width = 575;
},
{
layerId = "A385C2E8-1AD9-48CA-B23A-EC0EE376012C";
shapes = (
{
closed = 1;
nodes = (
(629,-82,o),
(785,290,o),
(785,662,cs),
(785,1036,o),
(627,1411,o),
(309,1635,c),
(131,1454,l),
(312,1259,o),
(406,950,o),
(406,644,cs),
(406,349,o),
(321,58,o),
(143,-125,c),
(315,-306,l)
);
}
);
userData = {
org.robofab.postScriptHintData = {
};
position = 234;
width = 116;
};
width = 912;
},
{
layerId = "8D846C25-91DF-40AD-AD53-612095F39333";
shapes = (
{
closed = 1;
nodes = (
(503,2,o),
(632,355,o),
(632,705,cs),
(632,1063,o),
(505,1419,o),
(247,1627,c),
(130,1518,l),
(316,1329,o),
(408,1008,o),
(408,702,cs),
(408,387,o),
(321,86,o),
(145,-84,c),
(240,-198,l)
);
}
);
userData = {
org.robofab.postScriptHintData = {
};
position = 234;
width = 116;
};
width = 816;
},
{
layerId = "F7888953-CE93-4976-8BE6-A29979B42D03";
shapes = (
{
closed = 1;
nodes = (
(471,23,o),
(594,371,o),
(594,716,cs),
(594,1070,o),
(474,1421,o),
(232,1625,c),
(130,1534,l),
(317,1346,o),
(409,1023,o),
(409,716,cs),
(409,397,o),
(321,93,o),
(145,-74,c),
(221,-171,l)
);
}
);
userData = {
org.robofab.postScriptHintData = {
};
position = 234;
width = 116;
};
width = 792;
},
{
layerId = "DF6AE5EF-88F0-41AF-8A72-F8343FE6B5C8";
shapes = (
{
closed = 1;
nodes = (
(597,-61,o),
(747,306,o),
(747,673,cs),
(747,1043,o),
(596,1413,o),
(294,1633,c),
(131,1470,l),
(313,1276,o),
(407,965,o),
(407,658,cs),
(407,359,o),
(321,65,o),
(143,-115,c),
(296,-279,l)
);
}
);
userData = {
org.robofab.postScriptHintData = {
};
position = 234;
width = 116;
};
width = 888;
}
);
unicode = 41;
},
{
glyphname = asterisk;
lastChange = "2024-06-14 12:24:57 +0000";
layers = (
{
layerId = "67845082-4271-4E32-8C80-EE8FB13E39CE";
shapes = (
{
closed = 1;
nodes = (
(355,773,o),
(396,847,o),
(473,982,c),
(606,746,l),
(753,833,l),
(608,1074,l),
(870,1072,l),
(870,1216,l),
(604,1213,l),
(750,1459,l),
(705,1485,o),
(648,1515,o),
(603,1542,c),
(580,1505,o),
(536,1420,o),
(470,1306,c),
(340,1541,l),
(197,1463,l),
(340,1213,l),
(61,1216,l),
(61,1072,l),
(339,1074,l),
(194,833,l),
(239,807,o),
(295,774,o),
(340,747,c)
);
}
);
userData = {
anchors = (
);
com.typemytype.robofont.layerData = {
b = {
anchors = (
);
components = (
);
contours = (
);
lib = {
};
name = asterisk;
unicodes = (
);
width = 1019;
};
};
components = (
);
contours = (
);
name = asterisk;
org.robofab.postScriptHintData = {
};
position = 1148;
unicodes = (
);
width = 56;
};
width = 921;
},
{
layerId = "A42FE7CC-127E-49DD-94F7-5A0AE28D570D";
shapes = (
{
closed = 1;
nodes = (
(450,1042,l),
(601,771,l),
(677,812,l),
(506,1075,l),
(801,1070,l),
(801,1148,l),
(505,1141,l),
(668,1406,l),
(594,1445,l),
(450,1169,l),
(305,1445,l),
(231,1406,l),
(393,1141,l),
(98,1148,l),
(98,1070,l),
(392,1075,l),
(223,812,l),
(298,771,l)
);
}
);
userData = {
anchors = (
);
com.typemytype.robofont.layerData = {
b = {
anchors = (
);
components = (
);
contours = (
);
lib = {
};
name = asterisk;
unicodes = (
);
width = 1019;
};
};
components = (
);
contours = (
);
name = asterisk;
org.robofab.postScriptHintData = {
};
position = 1148;
unicodes = (
);
width = 56;
};
width = 912;
},
{
layerId = "D923CF66-7FA1-4921-AD26-EF4ED3F99F75";
shapes = (
{
closed = 1;
nodes = (
(467,1053,l),
(624,775,l),
(681,807,l),
(506,1075,l),
(808,1071,l),
(808,1129,l),
(507,1123,l),
(677,1393,l),
(624,1424,l),
(467,1135,l),
(309,1424,l),
(256,1393,l),
(426,1123,l),
(125,1129,l),
(125,1071,l),
(427,1075,l),
(252,807,l),
(309,775,l)
);
}
);
userData = {
anchors = (
);
com.typemytype.robofont.layerData = {
b = {
anchors = (
);
components = (
);
contours = (
);
lib = {
};
name = asterisk;
unicodes = (
);
width = 1019;
};
};
components = (
);
contours = (
);
name = asterisk;
org.robofab.postScriptHintData = {
};
position = 1148;
unicodes = (
);
width = 56;
};
width = 952;
},
{
layerId = "A385C2E8-1AD9-48CA-B23A-EC0EE376012C";
shapes = (
{
closed = 1;
nodes = (
(400,777,o),
(372,725,o),
(501,950,c),
(625,732,l),
(807,844,l),
(677,1074,l),
(921,1074,l),
(921,1249,l),
(672,1249,l),
(810,1487,l),
(736,1530,o),
(704,1549,o),
(629,1593,c),
(591,1531,o),
(606,1564,o),
(496,1374,c),
(367,1592,l),
(191,1493,l),
(327,1249,l),
(55,1249,l),
(55,1074,l),
(327,1074,l),
(195,844,l),
(269,801,o),
(301,780,o),
(376,735,c)
);
}
);
userData = {
anchors = (
);
com.typemytype.robofont.layerData = {
b = {
anchors = (
);
components = (
);
contours = (
);
lib = {
};
name = asterisk;
unicodes = (
);
width = 1019;
};
};
components = (
);
contours = (
);
name = asterisk;
org.robofab.postScriptHintData = {
};
position = 1148;
unicodes = (
);
width = 56;
};
width = 954;
},
{
layerId = "8D846C25-91DF-40AD-AD53-612095F39333";
shapes = (
{
closed = 1;
nodes = (
(310,768,o),
(420,969,o),
(446,1014,c),
(587,759,l),
(699,822,l),
(539,1075,l),
(819,1070,l),
(819,1183,l),
(537,1177,l),
(689,1432,l),
(674,1440,o),
(592,1482,o),
(577,1491,c),
(569,1478,o),
(467,1275,o),
(445,1237,c),
(313,1490,l),
(202,1433,l),
(353,1177,l),
(67,1183,l),
(67,1070,l),
(351,1075,l),
(193,822,l),
(208,813,o),
(290,769,o),
(305,760,c)
);
}
);
userData = {
anchors = (
);
com.typemytype.robofont.layerData = {
b = {
anchors = (
);
components = (
);
contours = (
);
lib = {
};
name = asterisk;
unicodes = (
);
width = 1019;
};
};
components = (
);
contours = (
);
name = asterisk;
org.robofab.postScriptHintData = {
};
position = 1148;
unicodes = (
);
width = 56;
};
width = 888;
},
{
layerId = "F7888953-CE93-4976-8BE6-A29979B42D03";
shapes = (
{
closed = 1;
nodes = (
(432,1030,l),
(577,766,l),
(672,816,l),
(505,1075,l),
(793,1069,l),
(793,1166,l),
(503,1159,l),
(659,1418,l),
(564,1465,l),
(432,1203,l),
(300,1465,l),
(205,1418,l),
(359,1159,l),
(70,1166,l),
(70,1069,l),
(357,1075,l),
(193,816,l),
(287,766,l)
);
}
);
userData = {
anchors = (
);
com.typemytype.robofont.layerData = {
b = {
anchors = (
);
components = (
);
contours = (
);
lib = {
};
name = asterisk;
unicodes = (
);
width = 1019;
};
};
components = (
);
contours = (
);
name = asterisk;
org.robofab.postScriptHintData = {
};
position = 1148;
unicodes = (
);
width = 56;
};
width = 872;
},
{
layerId = "DF6AE5EF-88F0-41AF-8A72-F8343FE6B5C8";
shapes = (
{
closed = 1;
nodes = (
(377,775,o),
(384,786,o),
(487,966,c),
(615,739,l),
(780,838,l),
(643,1074,l),
(895,1073,l),
(895,1232,l),
(638,1231,l),
(780,1473,l),
(721,1508,o),
(676,1532,o),
(616,1567,c),
(586,1518,o),
(571,1492,o),
(483,1340,c),
(354,1567,l),
(194,1478,l),
(333,1231,l),
(58,1232,l),
(58,1073,l),
(333,1074,l),
(195,838,l),
(254,804,o),
(298,777,o),
(358,741,c)
);
}
);
userData = {
anchors = (
);
com.typemytype.robofont.layerData = {
b = {
anchors = (
);
components = (
);
contours = (
);
lib = {
};
name = asterisk;
unicodes = (
);
width = 1019;
};
};
components = (
);
contours = (
);
name = asterisk;
org.robofab.postScriptHintData = {
};
position = 1148;
unicodes = (
);
width = 56;
};
width = 938;
}
);
unicode = 42;
},
{
glyphname = plus;
lastChange = "2024-06-14 12:24:57 +0000";
layers = (
{
layerId = "67845082-4271-4E32-8C80-EE8FB13E39CE";
shapes = (
{
closed = 1;
nodes = (
(631,104,l),
(631,436,l),
(949,436,l),
(949,657,l),
(631,657,l),
(631,986,l),
(383,986,l),
(383,657,l),
(64,657,l),
(64,436,l),
(383,436,l),
(383,104,l)
);
}
);
userData = {
org.robofab.postScriptHintData = {
};
position = 452;
width = 62;
};
width = 1016;
},
{
layerId = "A42FE7CC-127E-49DD-94F7-5A0AE28D570D";
shapes = (
{
closed = 1;
nodes = (
(521,183,l),
(521,503,l),
(824,503,l),
(824,597,l),
(521,597,l),
(521,917,l),
(427,917,l),
(427,597,l),
(124,597,l),
(124,503,l),
(427,503,l),
(427,183,l)
);
}
);
userData = {
org.robofab.postScriptHintData = {
};
position = 452;
width = 62;
};
width = 954;
},
{
layerId = "D923CF66-7FA1-4921-AD26-EF4ED3F99F75";
shapes = (
{
closed = 1;
nodes = (
(481,201,l),
(481,518,l),
(792,518,l),
(792,582,l),
(481,582,l),
(481,899,l),
(423,899,l),
(423,582,l),
(112,582,l),
(112,518,l),
(423,518,l),
(423,201,l)
);
}
);
userData = {
org.robofab.postScriptHintData = {
};
position = 452;
width = 62;
};
width = 908;
},
{
layerId = "A385C2E8-1AD9-48CA-B23A-EC0EE376012C";
shapes = (
{
closed = 1;
nodes = (
(677,63,l),
(677,401,l),
(1011,401,l),
(1011,687,l),
(677,687,l),
(677,1021,l),
(351,1021,l),
(351,687,l),
(16,687,l),
(16,401,l),
(351,401,l),
(351,63,l)
);
}
);
userData = {
org.robofab.postScriptHintData = {
};
position = 452;
width = 62;
};
width = 1027;
},
{
layerId = "8D846C25-91DF-40AD-AD53-612095F39333";
shapes = (
{
closed = 1;
nodes = (
(584,145,l),
(584,471,l),
(887,471,l),
(887,626,l),
(584,626,l),
(584,951,l),
(415,951,l),
(415,626,l),
(112,626,l),
(112,471,l),
(415,471,l),
(415,145,l)
);
}
);
userData = {
org.robofab.postScriptHintData = {
};
position = 452;
width = 62;
};
width = 1005;
},
{
layerId = "F7888953-CE93-4976-8BE6-A29979B42D03";
shapes = (
{
closed = 1;
nodes = (
(561,165,l),
(561,488,l),
(856,488,l),
(856,611,l),
(561,611,l),
(561,934,l),
(431,934,l),
(431,611,l),
(136,611,l),
(136,488,l),
(431,488,l),
(431,165,l)
);
}
);
userData = {
org.robofab.postScriptHintData = {
};
position = 452;
width = 62;
};
width = 1000;
},
{
layerId = "DF6AE5EF-88F0-41AF-8A72-F8343FE6B5C8";
shapes = (
{
closed = 1;
nodes = (
(654,83,l),
(654,418,l),
(980,418,l),
(980,672,l),
(654,672,l),
(654,1004,l),
(367,1004,l),
(367,672,l),
(40,672,l),
(40,418,l),
(367,418,l),
(367,83,l)
);
}
);
userData = {
org.robofab.postScriptHintData = {
};
position = 452;
width = 62;
};
width = 1022;
}
);
unicode = 43;
},
{
glyphname = comma;
lastChange = "2024-06-14 12:24:57 +0000";
layers = (
{
layerId = "67845082-4271-4E32-8C80-EE8FB13E39CE";
shapes = (
{
closed = 1;
nodes = (
(409,-242,o),
(551,-164,o),
(551,48,cs),
(551,48,o),
(551,371,o),
(551,371,c),
(205,371,l),
(205,0,l),
(340,0,l),
(341,-95,o),
(315,-148,o),
(202,-189,c),
(254,-288,l)
);
}
);
userData = {
org.robofab.postScriptHintData = {
};
position = 205;
width = 102;
};
width = 719;
},
{
layerId = "A42FE7CC-127E-49DD-94F7-5A0AE28D570D";
shapes = (
{
closed = 1;
nodes = (
(313,-202,o),
(354,-104,o),
(354,11,cs),
(354,18,o),
(354,142,o),
(354,239,c),
(182,239,l),
(182,15,l),
(264,15,l),
(265,-99,o),
(245,-155,o),
(166,-184,c),
(191,-237,l)
);
}
);
userData = {
org.robofab.postScriptHintData = {
};
position = 205;
width = 102;
};
width = 526;
},
{
layerId = "D923CF66-7FA1-4921-AD26-EF4ED3F99F75";
shapes = (
{
closed = 1;
nodes = (
(242,-188,o),
(250,-105,o),
(250,-19,cs),
(250,-3,o),
(250,12,o),
(250,204,c),
(145,204,l),
(145,28,l),
(207,28,l),
(207,-107,o),
(200,-157,o),
(122,-188,c),
(136,-219,l)
);
}
);
userData = {
org.robofab.postScriptHintData = {
};
position = 205;
width = 102;
};
width = 387;
},
{
layerId = "A385C2E8-1AD9-48CA-B23A-EC0EE376012C";
shapes = (
{
closed = 1;
nodes = (
(427,-260,o),
(613,-205,o),
(613,53,cs),
(613,437,l),
(197,437,l),
(197,0,l),
(353,0,l),
(353,-99,o),
(333,-146,o),
(198,-195,c),
(260,-310,l)
);
}
);
userData = {
org.robofab.postScriptHintData = {
};
position = 205;
width = 102;
};
width = 755;
},
{
layerId = "8D846C25-91DF-40AD-AD53-612095F39333";
shapes = (
{
closed = 1;
nodes = (
(392,-225,o),
(489,-123,o),
(489,43,cs),
(489,43,o),
(489,306,o),
(489,306,c),
(214,306,l),
(214,1,l),
(327,1,l),
(328,-92,o),
(298,-151,o),
(207,-182,c),
(249,-266,l)
);
}
);
userData = {
org.robofab.postScriptHintData = {
};
position = 205;
width = 102;
};
width = 683;
},
{
layerId = "F7888953-CE93-4976-8BE6-A29979B42D03";
shapes = (
{
closed = 1;
nodes = (
(383,-216,o),
(458,-103,o),
(458,40,cs),
(458,273,l),
(218,273,l),
(218,1,l),
(321,1,l),
(322,-90,o),
(289,-152,o),
(209,-179,c),
(246,-255,l)
);
}
);
userData = {
org.robofab.postScriptHintData = {
};
position = 205;
width = 102;
};
width = 665;
},
{
layerId = "DF6AE5EF-88F0-41AF-8A72-F8343FE6B5C8";
shapes = (
{
closed = 1;
nodes = (
(418,-251,o),
(582,-185,o),
(582,50,cs),
(582,404,l),
(201,404,l),
(201,0,l),
(347,0,l),
(347,-97,o),
(324,-147,o),
(200,-192,c),
(257,-299,l)
);
}
);
userData = {
org.robofab.postScriptHintData = {
};
position = 205;
width = 102;
};
width = 737;
}
);
unicode = 44;
},
{
glyphname = hyphen;
lastChange = "2024-06-14 12:24:57 +0000";
layers = (
{
layerId = "67845082-4271-4E32-8C80-EE8FB13E39CE";
shapes = (
{
closed = 1;
nodes = (
(884,532,l),
(884,749,l),
(156,749,l),
(156,532,l)
);
}
);
userData = {
org.robofab.postScriptHintData = {
};
position = 105;
width = 613;
};
width = 1050;
},
{
layerId = "A42FE7CC-127E-49DD-94F7-5A0AE28D570D";
shapes = (
{
closed = 1;
nodes = (
(725,460,l),
(725,570,l),
(122,570,l),
(122,460,l)
);
}
);
userData = {
org.robofab.postScriptHintData = {
};
position = 105;
width = 613;
};
width = 846;
},
{
anchors = (
{
name = _mid;
pos = (386,489);
}
);
layerId = "D923CF66-7FA1-4921-AD26-EF4ED3F99F75";
shapes = (
{
closed = 1;
nodes = (
(669,443,l),
(669,518,l),
(95,518,l),
(95,443,l)
);
}
);
userData = {
org.robofab.postScriptHintData = {
};
position = 105;
width = 613;
};
width = 762;
},
{
layerId = "A385C2E8-1AD9-48CA-B23A-EC0EE376012C";
shapes = (
{
closed = 1;
nodes = (
(953,568,l),
(953,834,l),
(160,834,l),
(160,568,l)
);
}
);
userData = {
org.robofab.postScriptHintData = {
};
position = 105;
width = 613;
};
width = 1130;
},
{
layerId = "8D846C25-91DF-40AD-AD53-612095F39333";
shapes = (
{
closed = 1;
nodes = (
(815,495,l),
(815,664,l),
(151,664,l),
(151,495,l)
);
}
);
userData = {
org.robofab.postScriptHintData = {
};
position = 105;
width = 613;
};
width = 969;
},
{
layerId = "F7888953-CE93-4976-8BE6-A29979B42D03";
shapes = (
{
closed = 1;
nodes = (
(781,477,l),
(781,621,l),
(149,621,l),
(149,477,l)
);
}
);
userData = {
org.robofab.postScriptHintData = {
};
position = 105;
width = 613;
};
width = 929;
},
{
layerId = "DF6AE5EF-88F0-41AF-8A72-F8343FE6B5C8";
shapes = (
{
closed = 1;
nodes = (
(919,550,l),
(919,791,l),
(158,791,l),
(158,550,l)
);
}
);
userData = {
org.robofab.postScriptHintData = {
};
position = 105;
width = 613;
};
width = 1090;
}
);
unicode = 45;
},
{
glyphname = period;
lastChange = "2024-06-14 12:24:57 +0000";
layers = (
{
layerId = "67845082-4271-4E32-8C80-EE8FB13E39CE";
shapes = (
{
closed = 1;
nodes = (
(395,-2,o),
(470,71,o),
(470,167,cs),
(470,262,o),
(394,337,o),
(300,337,cs),
(205,337,o),
(131,262,o),
(131,167,cs),
(131,75,o),
(202,-2,o),
(300,-2,cs)
);
}
);
userData = {
org.robofab.postScriptHintData = {
};
position = 129;
width = 129;
};
width = 593;
},
{
layerId = "A42FE7CC-127E-49DD-94F7-5A0AE28D570D";
shapes = (
{
closed = 1;
nodes = (
(293,-20,o),
(322,21,o),
(322,67,cs),
(322,113,o),
(293,154,o),
(244,154,cs),
(197,154,o),
(160,113,o),
(160,67,cs),
(160,20,o),
(196,-20,o),
(244,-20,cs)
);
}
);
userData = {
org.robofab.postScriptHintData = {
};
position = 129;
width = 129;
};
width = 489;
},
{
layerId = "D923CF66-7FA1-4921-AD26-EF4ED3F99F75";
shapes = (
{
closed = 1;
nodes = (
(223,-24,o),
(241,9,o),
(241,44,cs),
(241,78,o),
(223,111,o),
(184,111,cs),
(148,111,o),
(121,78,o),
(121,44,cs),
(121,7,o),
(148,-24,o),
(184,-24,cs)
);
}
);
userData = {
org.robofab.postScriptHintData = {
};
position = 129;
width = 129;
};
width = 367;
},
{
layerId = "A385C2E8-1AD9-48CA-B23A-EC0EE376012C";
shapes = (
{
closed = 1;
nodes = (
(417,7,o),
(515,97,o),
(515,218,cs),
(515,338,o),
(415,431,o),
(298,431,cs),
(178,431,o),
(85,338,o),
(85,218,cs),
(85,103,o),
(174,7,o),
(298,7,cs)
);
}
);
userData = {
org.robofab.postScriptHintData = {
};
position = 129;
width = 129;
};
width = 582;
},
{
layerId = "8D846C25-91DF-40AD-AD53-612095F39333";
shapes = (
{
closed = 1;
nodes = (
(374,-11,o),
(425,46,o),
(425,116,cs),
(425,185,o),
(373,243,o),
(302,243,cs),
(232,243,o),
(176,185,o),
(176,116,cs),
(176,46,o),
(230,-11,o),
(302,-11,cs)
);
}
);
userData = {
org.robofab.postScriptHintData = {
};
position = 129;
width = 129;
};
width = 604;
},
{
layerId = "F7888953-CE93-4976-8BE6-A29979B42D03";
shapes = (
{
closed = 1;
nodes = (
(363,-16,o),
(402,33,o),
(402,90,cs),
(402,147,o),
(363,196,o),
(303,196,cs),
(245,196,o),
(199,147,o),
(199,90,cs),
(199,32,o),
(244,-16,o),
(303,-16,cs)
);
}
);
userData = {
org.robofab.postScriptHintData = {
};
position = 129;
width = 129;
};
width = 610;
},
{
layerId = "DF6AE5EF-88F0-41AF-8A72-F8343FE6B5C8";
shapes = (
{
closed = 1;
nodes = (
(406,2,o),
(492,84,o),
(492,192,cs),
(492,300,o),
(405,384,o),
(299,384,cs),
(191,384,o),
(108,300,o),
(108,192,cs),
(108,89,o),
(188,2,o),
(299,2,cs)
);
}
);
userData = {
org.robofab.postScriptHintData = {
};
position = 129;
width = 129;
};
width = 588;
}
);
unicode = 46;
},
{
glyphname = slash;
lastChange = "2024-06-14 12:24:57 +0000";
layers = (
{
layerId = "67845082-4271-4E32-8C80-EE8FB13E39CE";
shapes = (
{
closed = 1;
nodes = (
(941,1556,l),
(780,1631,l),
(-55,-82,l),
(102,-155,l)
);
}
);
userData = {
org.robofab.postScriptHintData = {
};
};
width = 911;
},
{
layerId = "A42FE7CC-127E-49DD-94F7-5A0AE28D570D";
shapes = (
{
closed = 1;
nodes = (
(800,1596,l),
(713,1631,l),
(39,-129,l),
(125,-164,l)
);
}
);
userData = {
org.robofab.postScriptHintData = {
};
};
width = 863;
},
{
layerId = "D923CF66-7FA1-4921-AD26-EF4ED3F99F75";
shapes = (
{
closed = 1;
nodes = (
(781,1606,l),
(716,1634,l),
(67,-138,l),
(130,-164,l)
);
}
);
userData = {
org.robofab.postScriptHintData = {
};
};
width = 848;
},
{
layerId = "A385C2E8-1AD9-48CA-B23A-EC0EE376012C";
shapes = (
{
closed = 1;
nodes = (
(1022,1537,l),
(826,1633,l),
(-99,-56,l),
(90,-149,l)
);
}
);
userData = {
org.robofab.postScriptHintData = {
};
};
width = 933;
},
{
layerId = "8D846C25-91DF-40AD-AD53-612095F39333";
shapes = (
{
closed = 1;
nodes = (
(860,1575,l),
(733,1629,l),
(-11,-107,l),
(114,-160,l)
);
}
);
userData = {
org.robofab.postScriptHintData = {
};
};
width = 888;
},
{
layerId = "F7888953-CE93-4976-8BE6-A29979B42D03";
shapes = (
{
closed = 1;
nodes = (
(819,1585,l),
(710,1628,l),
(11,-120,l),
(120,-163,l)
);
}
);
userData = {
org.robofab.postScriptHintData = {
};
};
width = 877;
},
{
layerId = "DF6AE5EF-88F0-41AF-8A72-F8343FE6B5C8";
shapes = (
{
closed = 1;
nodes = (
(981,1547,l),
(803,1632,l),
(-77,-69,l),
(96,-152,l)
);
}
);
userData = {
org.robofab.postScriptHintData = {
};
};
width = 922;
}
);
unicode = 47;
},
{
glyphname = zero;
lastChange = "2024-06-14 12:24:57 +0000";
layers = (
{
layerId = "67845082-4271-4E32-8C80-EE8FB13E39CE";
shapes = (
{
closed = 1;
nodes = (
(479,205,o),
(413,354,o),
(413,550,cs),
(413,721,o),
(472,891,o),
(672,891,cs),
(869,891,o),
(938,736,o),
(938,560,cs),
(938,371,o),
(876,205,o),
(672,205,cs)
);
},
{
closed = 1;
nodes = (
(1025,-20,o),
(1224,210,o),
(1224,542,cs),
(1224,884,o),
(1037,1116,o),
(672,1116,cs),
(315,1116,o),
(125,892,o),
(125,548,cs),
(125,218,o),
(315,-20,o),
(671,-20,cs)
);
}
);
userData = {
org.robofab.postScriptHintData = {
};
position = 1116;
width = 109;
};
width = 1353;
},
{
layerId = "A42FE7CC-127E-49DD-94F7-5A0AE28D570D";
shapes = (
{
closed = 1;
nodes = (
(360,84,o),
(236,288,o),
(236,558,cs),
(236,816,o),
(358,1014,o),
(617,1014,cs),
(867,1014,o),
(990,821,o),
(990,565,cs),
(990,294,o),
(875,84,o),
(617,84,cs)
);
},
{
closed = 1;
nodes = (
(939,-19,o),
(1127,221,o),
(1127,558,cs),
(1127,882,o),
(940,1115,o),
(617,1115,cs),
(288,1115,o),
(99,884,o),
(99,558,cs),
(99,224,o),
(291,-19,o),
(617,-19,cs)
);
}
);
userData = {
org.robofab.postScriptHintData = {
};
position = 1116;
width = 109;
};
width = 1229;
},
{
layerId = "D923CF66-7FA1-4921-AD26-EF4ED3F99F75";
shapes = (
{
closed = 1;
nodes = (
(356,57,o),
(201,251,o),
(201,560,cs),
(201,855,o),
(356,1041,o),
(603,1041,cs),
(839,1041,o),
(986,855,o),
(986,560,cs),
(986,251,o),
(839,57,o),
(603,57,cs)
);
},
{
closed = 1;
nodes = (
(901,-17,o),
(1088,206,o),
(1088,560,cs),
(1088,899,o),
(901,1113,o),
(603,1113,cs),
(294,1113,o),
(99,899,o),
(99,560,cs),
(99,206,o),
(294,-17,o),
(603,-17,cs)
);
}
);
userData = {
org.robofab.postScriptHintData = {
};
position = 1116;
width = 109;
};
width = 1187;
},
{
layerId = "A385C2E8-1AD9-48CA-B23A-EC0EE376012C";
shapes = (
{
closed = 1;
nodes = (
(556,268,o),
(507,374,o),
(507,546,cs),
(507,685,o),
(548,827,o),
(699,827,cs),
(852,827,o),
(900,703,o),
(900,554,cs),
(900,394,o),
(853,268,o),
(699,268,cs)
);
},
{
closed = 1;
nodes = (
(1057,-20,o),
(1262,194,o),
(1262,534,cs),
(1262,897,o),
(1076,1116,o),
(699,1116,cs),
(338,1116,o),
(142,908,o),
(142,544,cs),
(142,202,o),
(333,-20,o),
(697,-20,cs)
);
}
);
userData = {
org.robofab.postScriptHintData = {
};
position = 1116;
width = 109;
};
width = 1407;
},
{
layerId = "8D846C25-91DF-40AD-AD53-612095F39333";
shapes = (
{
closed = 1;
nodes = (
(402,142,o),
(318,335,o),
(318,554,cs),
(318,758,o),
(397,954,o),
(645,954,cs),
(886,954,o),
(975,769,o),
(975,567,cs),
(975,348,o),
(899,142,o),
(645,142,cs)
);
},
{
closed = 1;
nodes = (
(993,-20,o),
(1185,227,o),
(1185,551,cs),
(1185,871,o),
(998,1116,o),
(645,1116,cs),
(292,1116,o),
(108,876,o),
(108,553,cs),
(108,233,o),
(296,-20,o),
(644,-20,cs)
);
}
);
userData = {
org.robofab.postScriptHintData = {
};
position = 1116;
width = 109;
};
width = 1298;
},
{
layerId = "F7888953-CE93-4976-8BE6-A29979B42D03";
shapes = (
{
closed = 1;
nodes = (
(363,111,o),
(271,325,o),
(271,556,cs),
(271,776,o),
(359,986,o),
(631,986,cs),
(894,986,o),
(994,786,o),
(994,570,cs),
(994,336,o),
(911,111,o),
(631,111,cs)
);
},
{
closed = 1;
nodes = (
(977,-20,o),
(1166,235,o),
(1166,555,cs),
(1166,865,o),
(979,1116,o),
(631,1116,cs),
(281,1116,o),
(99,868,o),
(99,555,cs),
(99,241,o),
(287,-20,o),
(631,-20,cs)
);
}
);
userData = {
org.robofab.postScriptHintData = {
};
position = 1116;
width = 109;
};
width = 1271;
},
{
layerId = "DF6AE5EF-88F0-41AF-8A72-F8343FE6B5C8";
shapes = (
{
closed = 1;
nodes = (
(517,237,o),
(460,364,o),
(460,548,cs),
(460,703,o),
(510,859,o),
(685,859,cs),
(860,859,o),
(919,720,o),
(919,557,cs),
(919,382,o),
(865,237,o),
(685,237,cs)
);
},
{
closed = 1;
nodes = (
(1041,-20,o),
(1243,202,o),
(1243,538,cs),
(1243,891,o),
(1057,1116,o),
(685,1116,cs),
(327,1116,o),
(133,900,o),
(133,546,cs),
(133,210,o),
(324,-20,o),
(684,-20,cs)
);
}
);
userData = {
org.robofab.postScriptHintData = {
};
position = 1116;
width = 109;
};
width = 1380;
}
);
unicode = 48;
},
{
glyphname = one;
lastChange = "2024-06-14 12:24:57 +0000";
layers = (
{
layerId = "67845082-4271-4E32-8C80-EE8FB13E39CE";
shapes = (
{
closed = 1;
nodes = (
(685,0,l),
(685,1097,l),
(396,1097,l),
(109,957,l),
(191,763,l),
(383,852,l),
(383,0,l)
);
}
);
userData = {
org.robofab.postScriptHintData = {
};
position = 347;
width = 101;
};
width = 892;
},
{
layerId = "A42FE7CC-127E-49DD-94F7-5A0AE28D570D";
shapes = (
{
closed = 1;
nodes = (
(677,0,l),
(677,1096,l),
(537,1096,l),
(275,963,l),
(314,874,l),
(546,990,l),
(546,0,l)
);
}
);
userData = {
org.robofab.postScriptHintData = {
};
position = 347;
width = 101;
};
width = 991;
},
{
layerId = "D923CF66-7FA1-4921-AD26-EF4ED3F99F75";
shapes = (
{
closed = 1;
nodes = (
(758,0,l),
(758,1096,l),
(654,1096,l),
(391,960,l),
(420,899,l),
(667,1027,l),
(667,0,l)
);
}
);
userData = {
org.robofab.postScriptHintData = {
};
position = 347;
width = 101;
};
width = 1187;
},
{
layerId = "A385C2E8-1AD9-48CA-B23A-EC0EE376012C";
shapes = (
{
closed = 1;
nodes = (
(744,0,l),
(744,1097,l),
(380,1097,l),
(77,952,l),
(180,705,l),
(356,784,l),
(356,0,l)
);
}
);
userData = {
org.robofab.postScriptHintData = {
};
position = 347;
width = 101;
};
width = 957;
},
{
layerId = "8D846C25-91DF-40AD-AD53-612095F39333";
shapes = (
{
closed = 1;
nodes = (
(626,0,l),
(626,1096,l),
(412,1096,l),
(142,962,l),
(202,820,l),
(410,919,l),
(410,0,l)
);
}
);
userData = {
org.robofab.postScriptHintData = {
};
position = 347;
width = 101;
};
width = 827;
},
{
layerId = "F7888953-CE93-4976-8BE6-A29979B42D03";
shapes = (
{
closed = 1;
nodes = (
(596,0,l),
(596,1096,l),
(420,1096,l),
(158,965,l),
(208,849,l),
(424,953,l),
(424,0,l)
);
}
);
userData = {
org.robofab.postScriptHintData = {
};
position = 347;
width = 101;
};
width = 795;
},
{
layerId = "DF6AE5EF-88F0-41AF-8A72-F8343FE6B5C8";
shapes = (
{
closed = 1;
nodes = (
(714,0,l),
(714,1097,l),
(388,1097,l),
(93,955,l),
(186,734,l),
(370,818,l),
(370,0,l)
);
}
);
userData = {
org.robofab.postScriptHintData = {
};
position = 347;
width = 101;
};
width = 925;
}
);
unicode = 49;
},
{
glyphname = two;
lastChange = "2024-06-14 12:24:57 +0000";
layers = (
{
layerId = "67845082-4271-4E32-8C80-EE8FB13E39CE";
shapes = (
{
closed = 1;
nodes = (
(942,0,l),
(942,224,l),
(535,224,l),
(698,362,ls),
(878,519,o),
(950,627,o),
(950,781,cs),
(950,1020,o),
(755,1115,o),
(541,1115,cs),
(393,1115,o),
(241,1072,o),
(123,1002,c),
(200,802,l),
(292,852,o),
(402,888,o),
(495,888,cs),
(592,888,o),
(669,849,o),
(669,743,cs),
(669,630,o),
(525,521,o),
(448,454,cs),
(143,183,l),
(143,0,l)
);
}
);
userData = {
org.robofab.postScriptHintData = {
};
position = 796;
width = 71;
};
width = 1084;
},
{
layerId = "A42FE7CC-127E-49DD-94F7-5A0AE28D570D";
shapes = (
{
closed = 1;
nodes = (
(908,0,l),
(908,96,l),
(334,96,l),
(624,349,ls),
(762,467,o),
(901,610,o),
(901,791,cs),
(901,1016,o),
(737,1115,o),
(528,1115,cs),
(393,1115,o),
(286,1071,o),
(203,1020,c),
(241,929,l),
(321,974,o),
(422,1015,o),
(530,1015,cs),
(662,1015,o),
(781,963,o),
(781,792,cs),
(781,630,o),
(670,535,o),
(551,427,cs),
(181,91,l),
(181,0,l)
);
}
);
userData = {
org.robofab.postScriptHintData = {
};
position = 796;
width = 71;
};
width = 1094;
},
{
layerId = "D923CF66-7FA1-4921-AD26-EF4ED3F99F75";
shapes = (
{
closed = 1;
nodes = (
(946,0,l),
(946,66,l),
(352,66,l),
(667,357,ls),
(789,469,o),
(933,606,o),
(933,798,cs),
(933,1013,o),
(789,1113,o),
(572,1113,cs),
(418,1113,o),
(320,1057,o),
(247,1010,c),
(274,941,l),
(348,989,o),
(448,1041,o),
(572,1041,cs),
(709,1041,o),
(844,992,o),
(844,798,cs),
(844,630,o),
(741,535,o),
(614,415,cs),
(241,63,l),
(241,0,l)
);
}
);
userData = {
org.robofab.postScriptHintData = {
};
position = 796;
width = 71;
};
width = 1187;
},
{
layerId = "A385C2E8-1AD9-48CA-B23A-EC0EE376012C";
shapes = (
{
closed = 1;
nodes = (
(991,0,l),
(991,290,l),
(681,290,l),
(776,376,ls),
(974,556,o),
(1004,636,o),
(1004,779,cs),
(1004,1020,o),
(802,1115,o),
(579,1115,cs),
(409,1115,o),
(234,1064,o),
(99,984,c),
(195,725,l),
(292,780,o),
(406,821,o),
(500,821,cs),
(578,821,o),
(636,792,o),
(636,715,cs),
(636,630,o),
(476,512,o),
(422,464,cs),
(157,225,l),
(157,0,l)
);
}
);
userData = {
org.robofab.postScriptHintData = {
};
position = 796;
width = 71;
};
width = 1139;
},
{
layerId = "8D846C25-91DF-40AD-AD53-612095F39333";
shapes = (
{
closed = 1;
nodes = (
(893,0,l),
(893,158,l),
(388,158,l),
(620,348,ls),
(782,482,o),
(895,618,o),
(895,783,cs),
(895,1019,o),
(708,1116,o),
(502,1116,cs),
(376,1116,o),
(248,1080,o),
(146,1020,c),
(205,879,l),
(293,923,o),
(397,955,o),
(490,955,cs),
(607,955,o),
(702,906,o),
(702,771,cs),
(702,630,o),
(574,530,o),
(475,443,cs),
(128,140,l),
(128,0,l)
);
}
);
userData = {
org.robofab.postScriptHintData = {
};
position = 796;
width = 71;
};
width = 1029;
},
{
layerId = "F7888953-CE93-4976-8BE6-A29979B42D03";
shapes = (
{
closed = 1;
nodes = (
(869,0,l),
(869,125,l),
(315,125,l),
(581,341,ls),
(734,464,o),
(868,614,o),
(868,784,cs),
(868,1019,o),
(685,1116,o),
(483,1116,cs),
(368,1116,o),
(251,1084,o),
(158,1029,c),
(208,917,l),
(293,959,o),
(395,988,o),
(488,988,cs),
(614,988,o),
(718,934,o),
(718,785,cs),
(718,630,o),
(599,535,o),
(488,438,cs),
(121,119,l),
(121,0,l)
);
}
);
userData = {
org.robofab.postScriptHintData = {
};
position = 796;
width = 71;
};
width = 1001;
},
{
layerId = "DF6AE5EF-88F0-41AF-8A72-F8343FE6B5C8";
shapes = (
{
closed = 1;
nodes = (
(967,0,l),
(967,257,l),
(608,257,l),
(737,369,ls),
(926,538,o),
(977,632,o),
(977,780,cs),
(977,1020,o),
(779,1115,o),
(560,1115,cs),
(401,1115,o),
(237,1068,o),
(111,993,c),
(198,763,l),
(292,816,o),
(404,854,o),
(498,854,cs),
(585,854,o),
(652,820,o),
(652,729,cs),
(652,630,o),
(501,517,o),
(435,459,cs),
(150,204,l),
(150,0,l)
);
}
);
userData = {
org.robofab.postScriptHintData = {
};
position = 796;
width = 71;
};
width = 1111;
}
);
unicode = 50;
},
{
glyphname = three;
lastChange = "2024-06-14 12:24:57 +0000";
layers = (
{
layerId = "67845082-4271-4E32-8C80-EE8FB13E39CE";
shapes = (
{
closed = 1;
nodes = (
(717,71,o),
(628,23,o),
(509,23,cs),
(424,23,o),
(321,49,o),
(235,95,c),
(161,-112,l),
(285,-167,o),
(425,-199,o),
(558,-199,cs),
(788,-199,o),
(1005,-93,o),
(1005,174,cs),
(1006,289,o),
(940,456,o),
(736,493,c),
(876,511,o),
(964,649,o),
(964,784,cs),
(964,1023,o),
(765,1116,o),
(547,1116,cs),
(417,1116,o),
(271,1078,o),
(151,1019,c),
(243,819,l),
(332,866,o),
(423,890,o),
(503,890,cs),
(624,890,o),
(696,844,o),
(696,743,cs),
(696,624,o),
(584,580,o),
(430,580,c),
(430,386,l),
(536,380,o),
(717,329,o),
(717,193,cs)
);
}
);
userData = {
org.robofab.postScriptHintData = {
};
position = 771;
width = 102;
};
width = 1154;
},
{
layerId = "A42FE7CC-127E-49DD-94F7-5A0AE28D570D";
shapes = (
{
closed = 1;
nodes = (
(845,-28,o),
(722,-102,o),
(554,-102,cs),
(451,-102,o),
(332,-77,o),
(234,-29,c),
(197,-124,l),
(310,-176,o),
(435,-202,o),
(555,-202,cs),
(766,-202,o),
(971,-100,o),
(971,143,cs),
(971,348,o),
(846,464,o),
(647,500,c),
(796,500,o),
(930,604,o),
(930,797,cs),
(930,1024,o),
(752,1115,o),
(541,1115,cs),
(409,1115,o),
(297,1070,o),
(212,1025,c),
(248,929,l),
(328,974,o),
(427,1013,o),
(538,1013,cs),
(679,1013,o),
(810,968,o),
(810,787,cs),
(810,592,o),
(654,552,o),
(510,552,c),
(510,448,l),
(710,420,o),
(845,353,o),
(845,155,cs)
);
}
);
userData = {
org.robofab.postScriptHintData = {
};
position = 771;
width = 102;
};
width = 1148;
},
{
layerId = "D923CF66-7FA1-4921-AD26-EF4ED3F99F75";
shapes = (
{
closed = 1;
nodes = (
(887,-44,o),
(760,-127,o),
(579,-127,cs),
(478,-127,o),
(368,-111,o),
(267,-65,c),
(243,-132,l),
(351,-179,o),
(470,-199,o),
(579,-199,cs),
(795,-199,o),
(973,-98,o),
(973,149,cs),
(973,359,o),
(846,474,o),
(635,505,c),
(771,505,o),
(928,568,o),
(928,798,cs),
(928,1013,o),
(785,1113,o),
(568,1113,cs),
(414,1113,o),
(315,1057,o),
(242,1010,c),
(269,941,l),
(343,989,o),
(444,1041,o),
(568,1041,cs),
(705,1041,o),
(841,992,o),
(841,798,cs),
(841,579,o),
(681,545,o),
(535,545,c),
(535,469,l),
(769,433,o),
(887,364,o),
(887,154,cs)
);
}
);
userData = {
org.robofab.postScriptHintData = {
};
position = 771;
width = 102;
};
width = 1187;
},
{
layerId = "A385C2E8-1AD9-48CA-B23A-EC0EE376012C";
shapes = (
{
closed = 1;
nodes = (
(659,127,o),
(590,89,o),
(496,89,cs),
(424,89,o),
(338,111,o),
(258,153,c),
(167,-110,l),
(296,-163,o),
(442,-195,o),
(576,-195,cs),
(822,-195,o),
(1030,-87,o),
(1030,198,cs),
(1030,258,o),
(1002,457,o),
(787,493,c),
(913,522,o),
(985,654,o),
(985,777,cs),
(985,1016,o),
(797,1116,o),
(570,1116,cs),
(426,1116,o),
(265,1075,o),
(131,1006,c),
(254,754,l),
(345,804,o),
(432,828,o),
(500,828,cs),
(605,828,o),
(640,777,o),
(640,722,cs),
(640,637,o),
(556,595,o),
(393,595,c),
(393,359,l),
(459,362,o),
(659,319,o),
(659,218,cs)
);
}
);
userData = {
org.robofab.postScriptHintData = {
};
position = 771;
width = 102;
};
width = 1184;
},
{
layerId = "8D846C25-91DF-40AD-AD53-612095F39333";
shapes = (
{
closed = 1;
nodes = (
(774,16,o),
(665,-43,o),
(522,-43,cs),
(423,-43,o),
(304,-12,o),
(212,37,c),
(154,-115,l),
(274,-170,o),
(408,-203,o),
(539,-203,cs),
(755,-203,o),
(980,-99,o),
(980,149,cs),
(981,320,o),
(877,455,o),
(685,494,c),
(839,500,o),
(943,643,o),
(943,791,cs),
(943,1030,o),
(734,1116,o),
(524,1116,cs),
(408,1116,o),
(276,1081,o),
(171,1032,c),
(232,884,l),
(319,928,o),
(414,953,o),
(506,953,cs),
(643,953,o),
(751,911,o),
(751,764,cs),
(751,611,o),
(613,565,o),
(467,565,c),
(467,413,l),
(612,398,o),
(774,338,o),
(774,168,cs)
);
}
);
userData = {
org.robofab.postScriptHintData = {
};
position = 771;
width = 102;
};
width = 1124;
},
{
layerId = "F7888953-CE93-4976-8BE6-A29979B42D03";
shapes = (
{
closed = 1;
nodes = (
(803,-12,o),
(684,-76,o),
(529,-76,cs),
(423,-76,o),
(296,-43,o),
(201,8,c),
(151,-116,l),
(269,-172,o),
(399,-205,o),
(530,-205,cs),
(738,-205,o),
(968,-102,o),
(968,137,cs),
(969,336,o),
(846,455,o),
(659,494,c),
(820,495,o),
(932,640,o),
(932,795,cs),
(932,1034,o),
(718,1116,o),
(513,1116,cs),
(404,1116,o),
(279,1083,o),
(181,1039,c),
(227,916,l),
(313,959,o),
(409,984,o),
(508,984,cs),
(653,984,o),
(779,944,o),
(779,775,cs),
(779,605,o),
(627,558,o),
(485,558,c),
(485,426,l),
(650,407,o),
(803,343,o),
(803,155,cs)
);
}
);
userData = {
org.robofab.postScriptHintData = {
};
position = 771;
width = 102;
};
width = 1109;
},
{
layerId = "DF6AE5EF-88F0-41AF-8A72-F8343FE6B5C8";
shapes = (
{
closed = 1;
nodes = (
(688,99,o),
(609,56,o),
(503,56,cs),
(424,56,o),
(330,80,o),
(247,124,c),
(164,-111,l),
(291,-165,o),
(433,-197,o),
(567,-197,cs),
(805,-197,o),
(1018,-90,o),
(1018,186,cs),
(1018,274,o),
(971,457,o),
(761,493,c),
(895,517,o),
(975,652,o),
(975,780,cs),
(975,1019,o),
(781,1116,o),
(559,1116,cs),
(422,1116,o),
(268,1077,o),
(141,1013,c),
(249,786,l),
(339,835,o),
(427,859,o),
(502,859,cs),
(615,859,o),
(668,810,o),
(668,733,cs),
(668,631,o),
(570,588,o),
(411,588,c),
(411,372,l),
(498,371,o),
(688,324,o),
(688,205,cs)
);
}
);
userData = {
org.robofab.postScriptHintData = {
};
position = 771;
width = 102;
};
width = 1169;
}
);
unicode = 51;
},
{
glyphname = four;
lastChange = "2024-06-14 12:24:57 +0000";
layers = (
{
layerId = "67845082-4271-4E32-8C80-EE8FB13E39CE";
shapes = (
{
closed = 1;
nodes = (
(927,-211,l),
(927,57,l),
(1098,57,l),
(1098,264,l),
(927,264,l),
(927,1088,l),
(704,1146,l),
(87,236,l),
(123,57,l),
(675,57,l),
(675,-211,l)
);
},
{
closed = 1;
nodes = (
(675,764,l),
(675,263,l),
(359,263,l)
);
}
);
userData = {
org.robofab.postScriptHintData = {
};
position = 832;
width = 108;
};
width = 1184;
},
{
layerId = "A42FE7CC-127E-49DD-94F7-5A0AE28D570D";
shapes = (
{
closed = 1;
nodes = (
(895,-255,l),
(895,66,l),
(1077,66,l),
(1077,166,l),
(895,166,l),
(895,1101,l),
(772,1131,l),
(122,159,l),
(145,66,l),
(771,66,l),
(771,-255,l)
);
},
{
closed = 1;
nodes = (
(771,943,l),
(771,164,l),
(256,164,l)
);
}
);
userData = {
org.robofab.postScriptHintData = {
};
position = 832;
width = 108;
};
width = 1159;
},
{
layerId = "D923CF66-7FA1-4921-AD26-EF4ED3F99F75";
shapes = (
{
closed = 1;
nodes = (
(891,-265,l),
(891,68,l),
(1080,68,l),
(1080,138,l),
(891,138,l),
(891,1102,l),
(797,1125,l),
(139,127,l),
(159,68,l),
(801,68,l),
(801,-265,l)
);
},
{
closed = 1;
nodes = (
(801,1006,l),
(801,137,l),
(238,137,l)
);
}
);
userData = {
org.robofab.postScriptHintData = {
};
position = 832;
width = 108;
};
width = 1187;
},
{
layerId = "A385C2E8-1AD9-48CA-B23A-EC0EE376012C";
shapes = (
{
closed = 1;
nodes = (
(946,-189,l),
(946,53,l),
(1114,53,l),
(1114,311,l),
(946,311,l),
(946,1081,l),
(675,1153,l),
(75,266,l),
(118,53,l),
(631,53,l),
(631,-189,l)
);
},
{
closed = 1;
nodes = (
(631,687,l),
(631,311,l),
(415,311,l)
);
}
);
userData = {
org.robofab.postScriptHintData = {
};
position = 832;
width = 108;
};
width = 1220;
},
{
layerId = "8D846C25-91DF-40AD-AD53-612095F39333";
shapes = (
{
closed = 1;
nodes = (
(908,-234,l),
(908,62,l),
(1081,62,l),
(1081,217,l),
(908,217,l),
(908,1095,l),
(733,1139,l),
(98,205,l),
(128,62,l),
(718,62,l),
(718,-234,l)
);
},
{
closed = 1;
nodes = (
(718,841,l),
(718,215,l),
(302,215,l)
);
}
);
userData = {
org.robofab.postScriptHintData = {
};
position = 832;
width = 108;
};
width = 1148;
},
{
layerId = "F7888953-CE93-4976-8BE6-A29979B42D03";
shapes = (
{
closed = 1;
nodes = (
(898,-245,l),
(898,64,l),
(1073,64,l),
(1073,193,l),
(898,193,l),
(898,1099,l),
(747,1136,l),
(104,190,l),
(130,64,l),
(740,64,l),
(740,-245,l)
);
},
{
closed = 1;
nodes = (
(740,880,l),
(740,191,l),
(274,191,l)
);
}
);
userData = {
org.robofab.postScriptHintData = {
};
position = 832;
width = 108;
};
width = 1130;
},
{
layerId = "DF6AE5EF-88F0-41AF-8A72-F8343FE6B5C8";
shapes = (
{
closed = 1;
nodes = (
(936,-200,l),
(936,55,l),
(1106,55,l),
(1106,287,l),
(936,287,l),
(936,1085,l),
(689,1150,l),
(81,251,l),
(120,55,l),
(653,55,l),
(653,-200,l)
);
},
{
closed = 1;
nodes = (
(653,726,l),
(653,287,l),
(387,287,l)
);
}
);
userData = {
org.robofab.postScriptHintData = {
};
position = 832;
width = 108;
};
width = 1202;
}
);
unicode = 52;
},
{
glyphname = five;
lastChange = "2024-06-14 12:24:57 +0000";
layers = (
{
layerId = "67845082-4271-4E32-8C80-EE8FB13E39CE";
shapes = (
{
closed = 1;
nodes = (
(815,-183,o),
(1013,-12,o),
(1013,251,cs),
(1013,468,o),
(887,677,o),
(628,677,cs),
(568,677,o),
(487,664,o),
(426,628,c),
(426,881,l),
(933,881,l),
(933,1096,l),
(184,1096,l),
(184,510,l),
(304,401,l),
(395,451,o),
(478,480,o),
(547,480,cs),
(682,480,o),
(752,390,o),
(752,251,cs),
(752,117,o),
(669,52,o),
(526,52,cs),
(394,52,o),
(287,89,o),
(194,124,c),
(153,-95,l),
(267,-144,o),
(414,-183,o),
(543,-183,cs)
);
}
);
userData = {
org.robofab.postScriptHintData = {
};
position = 762;
width = 104;
};
width = 1158;
},
{
layerId = "A42FE7CC-127E-49DD-94F7-5A0AE28D570D";
shapes = (
{
closed = 1;
nodes = (
(816,-201,o),
(1003,-52,o),
(1003,220,cs),
(1003,472,o),
(852,643,o),
(592,643,cs),
(497,643,o),
(398,611,o),
(349,563,c),
(349,992,l),
(920,992,l),
(920,1096,l),
(248,1096,l),
(248,501,l),
(303,446,l),
(370,492,o),
(467,541,o),
(584,541,cs),
(792,541,o),
(878,409,o),
(878,218,cs),
(878,12,o),
(763,-95,o),
(561,-95,cs),
(436,-95,o),
(326,-54,o),
(244,1,c),
(207,-100,l),
(299,-150,o),
(410,-201,o),
(560,-201,cs)
);
}
);
userData = {
org.robofab.postScriptHintData = {
};
position = 762;
width = 104;
};
width = 1159;
},
{
layerId = "D923CF66-7FA1-4921-AD26-EF4ED3F99F75";
shapes = (
{
closed = 1;
nodes = (
(845,-203,o),
(1027,-54,o),
(1027,211,cs),
(1027,460,o),
(893,634,o),
(627,634,cs),
(505,634,o),
(417,588,o),
(367,546,c),
(367,1026,l),
(942,1026,l),
(942,1096,l),
(300,1096,l),
(300,499,l),
(346,453,l),
(401,507,o),
(488,556,o),
(627,556,cs),
(854,556,o),
(935,412,o),
(935,211,cs),
(935,-6,o),
(814,-131,o),
(599,-131,cs),
(455,-131,o),
(352,-83,o),
(278,-22,c),
(251,-91,l),
(317,-142,o),
(435,-203,o),
(599,-203,cs)
);
}
);
userData = {
org.robofab.postScriptHintData = {
};
position = 762;
width = 104;
};
width = 1187;
},
{
layerId = "A385C2E8-1AD9-48CA-B23A-EC0EE376012C";
shapes = (
{
closed = 1;
nodes = (
(835,-173,o),
(1035,12,o),
(1035,265,cs),
(1035,458,o),
(938,694,o),
(677,694,cs),
(622,694,o),
(560,683,o),
(490,660,c),
(490,831,l),
(957,831,l),
(957,1096,l),
(176,1096,l),
(176,515,l),
(334,377,l),
(432,433,o),
(500,449,o),
(552,449,cs),
(650,449,o),
(706,380,o),
(706,269,cs),
(706,175,o),
(641,125,o),
(528,125,cs),
(379,125,o),
(279,165,o),
(184,191,c),
(147,-85,l),
(259,-135,o),
(434,-173,o),
(558,-173,cs)
);
}
);
userData = {
org.robofab.postScriptHintData = {
};
position = 762;
width = 104;
};
width = 1176;
},
{
layerId = "8D846C25-91DF-40AD-AD53-612095F39333";
shapes = (
{
closed = 1;
nodes = (
(796,-193,o),
(990,-37,o),
(990,236,cs),
(990,478,o),
(836,660,o),
(580,660,cs),
(515,660,o),
(414,644,o),
(362,596,c),
(362,932,l),
(909,932,l),
(909,1096,l),
(192,1096,l),
(192,505,l),
(274,426,l),
(358,468,o),
(457,511,o),
(542,511,cs),
(713,511,o),
(798,400,o),
(798,234,cs),
(798,58,o),
(698,-21,o),
(523,-21,cs),
(409,-21,o),
(296,14,o),
(204,57,c),
(159,-104,l),
(276,-153,o),
(395,-193,o),
(528,-193,cs)
);
}
);
userData = {
org.robofab.postScriptHintData = {
};
position = 762;
width = 104;
};
width = 1139;
},
{
layerId = "F7888953-CE93-4976-8BE6-A29979B42D03";
shapes = (
{
closed = 1;
nodes = (
(786,-198,o),
(979,-49,o),
(979,229,cs),
(979,483,o),
(810,652,o),
(556,652,cs),
(488,652,o),
(378,634,o),
(330,580,c),
(330,957,l),
(897,957,l),
(897,1096,l),
(196,1096,l),
(196,502,l),
(259,438,l),
(339,477,o),
(446,526,o),
(540,526,cs),
(729,526,o),
(821,405,o),
(821,225,cs),
(821,29,o),
(712,-58,o),
(522,-58,cs),
(417,-58,o),
(300,-24,o),
(209,24,c),
(162,-109,l),
(280,-157,o),
(385,-198,o),
(520,-198,cs)
);
}
);
userData = {
org.robofab.postScriptHintData = {
};
position = 762;
width = 104;
};
width = 1130;
},
{
layerId = "DF6AE5EF-88F0-41AF-8A72-F8343FE6B5C8";
shapes = (
{
closed = 1;
nodes = (
(825,-178,o),
(1024,0,o),
(1024,258,cs),
(1024,463,o),
(912,685,o),
(653,685,cs),
(595,685,o),
(524,673,o),
(458,644,c),
(458,856,l),
(945,856,l),
(945,1096,l),
(180,1096,l),
(180,512,l),
(319,389,l),
(413,442,o),
(489,464,o),
(550,464,cs),
(666,464,o),
(729,385,o),
(729,260,cs),
(729,146,o),
(655,88,o),
(527,88,cs),
(387,88,o),
(283,127,o),
(189,158,c),
(150,-90,l),
(263,-139,o),
(424,-178,o),
(550,-178,cs)
);
}
);
userData = {
org.robofab.postScriptHintData = {
};
position = 762;
width = 104;
};
width = 1167;
}
);
unicode = 53;
},
{
glyphname = six;
lastChange = "2024-06-14 12:24:57 +0000";
layers = (
{
layerId = "67845082-4271-4E32-8C80-EE8FB13E39CE";
shapes = (
{
closed = 1;
nodes = (
(935,-72,o),
(1114,116,o),
(1114,387,cs),
(1114,637,o),
(958,830,o),
(684,830,cs),
(589,830,o),
(488,801,o),
(434,748,c),
(500,941,o),
(722,1086,o),
(926,1121,c),
(857,1351,l),
(472,1256,o),
(130,979,o),
(130,481,cs),
(130,171,o),
(303,-72,o),
(643,-72,cs)
);
},
{
closed = 1;
nodes = (
(451,144,o),
(393,280,o),
(393,432,cs),
(393,467,o),
(397,498,o),
(404,532,c),
(463,584,o),
(552,623,o),
(651,623,cs),
(790,623,o),
(860,521,o),
(860,390,cs),
(860,248,o),
(778,144,o),
(636,144,cs)
);
}
);
userData = {
org.robofab.postScriptHintData = {
};
position = 983;
width = 102;
};
width = 1216;
},
{
layerId = "A42FE7CC-127E-49DD-94F7-5A0AE28D570D";
shapes = (
{
closed = 1;
nodes = (
(889,-94,o),
(1073,77,o),
(1073,369,cs),
(1073,644,o),
(886,791,o),
(661,791,cs),
(524,791,o),
(390,735,o),
(318,619,c),
(353,903,o),
(554,1119,o),
(842,1193,c),
(814,1294,l),
(419,1199,o),
(178,869,o),
(178,458,cs),
(178,149,o),
(312,-94,o),
(637,-94,cs)
);
},
{
closed = 1;
nodes = (
(370,10,o),
(305,246,o),
(305,437,cs),
(305,467,o),
(306,490,o),
(309,518,c),
(384,620,o),
(511,691,o),
(657,691,cs),
(828,691,o),
(947,570,o),
(947,357,cs),
(947,160,o),
(828,10,o),
(637,10,cs)
);
}
);
userData = {
org.robofab.postScriptHintData = {
};
position = 983;
width = 102;
};
width = 1207;
},
{
layerId = "D923CF66-7FA1-4921-AD26-EF4ED3F99F75";
shapes = (
{
closed = 1;
nodes = (
(879,-117,o),
(1053,42,o),
(1053,345,cs),
(1053,634,o),
(860,760,o),
(666,760,cs),
(516,760,o),
(366,687,o),
(302,554,c),
(324,856,o),
(505,1110,o),
(823,1202,c),
(807,1271,l),
(428,1177,o),
(206,835,o),
(206,439,cs),
(206,126,o),
(331,-117,o),
(649,-117,cs)
);
},
{
closed = 1;
nodes = (
(352,-42,o),
(295,239,o),
(295,419,cs),
(295,441,o),
(296,462,o),
(297,480,c),
(381,610,o),
(525,684,o),
(659,684,cs),
(820,684,o),
(964,575,o),
(964,323,cs),
(964,114,o),
(836,-42,o),
(650,-42,cs)
);
}
);
userData = {
org.robofab.postScriptHintData = {
};
position = 983;
width = 102;
};
width = 1187;
},
{
layerId = "A385C2E8-1AD9-48CA-B23A-EC0EE376012C";
shapes = (
{
closed = 1;
nodes = (
(959,-74,o),
(1129,118,o),
(1129,384,cs),
(1129,626,o),
(988,836,o),
(702,836,cs),
(627,836,o),
(537,813,o),
(501,792,c),
(578,935,o),
(802,1058,o),
(970,1080,c),
(881,1373,l),
(513,1279,o),
(117,1031,o),
(117,484,cs),
(117,170,o),
(310,-74,o),
(656,-74,cs)
);
},
{
closed = 1;
nodes = (
(493,200,o),
(445,298,o),
(445,416,cs),
(445,450,o),
(451,485,o),
(460,517,c),
(514,554,o),
(589,573,o),
(649,573,cs),
(760,573,o),
(813,492,o),
(813,389,cs),
(813,276,o),
(751,200,o),
(644,200,cs)
);
}
);
userData = {
org.robofab.postScriptHintData = {
};
position = 983;
width = 102;
};
width = 1208;
},
{
layerId = "8D846C25-91DF-40AD-AD53-612095F39333";
shapes = (
{
closed = 1;
nodes = (
(911,-71,o),
(1099,113,o),
(1099,390,cs),
(1099,648,o),
(927,825,o),
(665,825,cs),
(550,825,o),
(439,788,o),
(367,705,c),
(421,947,o),
(643,1114,o),
(882,1162,c),
(833,1328,l),
(431,1232,o),
(143,928,o),
(143,478,cs),
(143,171,o),
(296,-71,o),
(630,-71,cs)
);
},
{
closed = 1;
nodes = (
(408,89,o),
(341,261,o),
(341,447,cs),
(341,484,o),
(342,511,o),
(349,547,c),
(412,614,o),
(515,672,o),
(654,672,cs),
(820,672,o),
(907,550,o),
(907,391,cs),
(907,219,o),
(805,89,o),
(628,89,cs)
);
}
);
userData = {
org.robofab.postScriptHintData = {
};
position = 983;
width = 102;
};
width = 1223;
},
{
layerId = "F7888953-CE93-4976-8BE6-A29979B42D03";
shapes = (
{
closed = 1;
nodes = (
(899,-70,o),
(1092,112,o),
(1092,392,cs),
(1092,653,o),
(912,822,o),
(656,822,cs),
(531,822,o),
(414,782,o),
(334,683,c),
(382,950,o),
(603,1128,o),
(860,1183,c),
(821,1317,l),
(410,1220,o),
(150,902,o),
(150,477,cs),
(150,171,o),
(293,-70,o),
(624,-70,cs)
);
},
{
closed = 1;
nodes = (
(387,61,o),
(315,252,o),
(315,455,cs),
(315,493,o),
(315,518,o),
(321,555,c),
(387,629,o),
(496,697,o),
(655,697,cs),
(835,697,o),
(930,565,o),
(930,391,cs),
(930,205,o),
(819,61,o),
(624,61,cs)
);
}
);
userData = {
org.robofab.postScriptHintData = {
};
position = 983;
width = 102;
};
width = 1227;
},
{
layerId = "DF6AE5EF-88F0-41AF-8A72-F8343FE6B5C8";
shapes = (
{
closed = 1;
nodes = (
(947,-73,o),
(1122,117,o),
(1122,386,cs),
(1122,631,o),
(973,833,o),
(693,833,cs),
(608,833,o),
(512,807,o),
(468,770,c),
(539,938,o),
(762,1072,o),
(948,1101,c),
(869,1362,l),
(493,1268,o),
(124,1005,o),
(124,483,cs),
(124,170,o),
(306,-73,o),
(650,-73,cs)
);
},
{
closed = 1;
nodes = (
(472,172,o),
(419,289,o),
(419,424,cs),
(419,459,o),
(424,492,o),
(432,525,c),
(489,569,o),
(570,598,o),
(650,598,cs),
(775,598,o),
(836,507,o),
(836,389,cs),
(836,262,o),
(765,172,o),
(640,172,cs)
);
}
);
userData = {
org.robofab.postScriptHintData = {
};
position = 983;
width = 102;
};
width = 1212;
}
);
unicode = 54;
},
{
glyphname = seven;
lastChange = "2024-06-14 12:24:57 +0000";
layers = (
{
layerId = "67845082-4271-4E32-8C80-EE8FB13E39CE";
shapes = (
{
closed = 1;
nodes = (
(1022,936,l),
(949,1096,l),
(128,1096,l),
(128,870,l),
(678,870,l),
(212,-123,l),
(470,-238,l)
);
}
);
userData = {
org.robofab.postScriptHintData = {
};
position = 1161;
width = 100;
};
width = 1076;
},
{
layerId = "A42FE7CC-127E-49DD-94F7-5A0AE28D570D";
shapes = (
{
closed = 1;
nodes = (
(974,1005,l),
(932,1096,l),
(163,1096,l),
(163,986,l),
(829,986,l),
(327,-165,l),
(445,-215,l)
);
}
);
userData = {
org.robofab.postScriptHintData = {
};
position = 1161;
width = 100;
};
width = 1137;
},
{
layerId = "D923CF66-7FA1-4921-AD26-EF4ED3F99F75";
shapes = (
{
closed = 1;
nodes = (
(981,1027,l),
(950,1096,l),
(197,1096,l),
(197,1018,l),
(889,1018,l),
(380,-175,l),
(460,-205,l)
);
}
);
userData = {
org.robofab.postScriptHintData = {
};
position = 1161;
width = 100;
};
width = 1187;
},
{
layerId = "A385C2E8-1AD9-48CA-B23A-EC0EE376012C";
shapes = (
{
closed = 1;
nodes = (
(1059,904,l),
(973,1096,l),
(128,1096,l),
(128,814,l),
(618,814,l),
(170,-102,l),
(498,-247,l)
);
}
);
userData = {
org.robofab.postScriptHintData = {
};
position = 1161;
width = 100;
};
width = 1068;
},
{
layerId = "8D846C25-91DF-40AD-AD53-612095F39333";
shapes = (
{
closed = 1;
nodes = (
(985,967,l),
(926,1096,l),
(129,1096,l),
(129,925,l),
(739,925,l),
(253,-144,l),
(443,-229,l)
);
}
);
userData = {
org.robofab.postScriptHintData = {
};
position = 1161;
width = 100;
};
width = 1083;
},
{
layerId = "F7888953-CE93-4976-8BE6-A29979B42D03";
shapes = (
{
closed = 1;
nodes = (
(966,983,l),
(914,1096,l),
(129,1096,l),
(129,953,l),
(769,953,l),
(274,-154,l),
(429,-224,l)
);
}
);
userData = {
org.robofab.postScriptHintData = {
};
position = 1161;
width = 100;
};
width = 1087;
},
{
layerId = "DF6AE5EF-88F0-41AF-8A72-F8343FE6B5C8";
shapes = (
{
closed = 1;
nodes = (
(1040,920,l),
(961,1096,l),
(128,1096,l),
(128,842,l),
(648,842,l),
(191,-112,l),
(484,-242,l)
);
}
);
userData = {
org.robofab.postScriptHintData = {
};
position = 1161;
width = 100;
};
width = 1072;
}
);
unicode = 55;
},
{
glyphname = eight;
lastChange = "2024-06-14 12:24:57 +0000";
layers = (
{
layerId = "67845082-4271-4E32-8C80-EE8FB13E39CE";
shapes = (
{
closed = 1;
nodes = (
(885,-140,o),
(1100,-14,o),
(1100,245,cs),
(1100,412,o),
(976,537,o),
(830,563,c),
(974,595,o),
(1071,715,o),
(1071,870,cs),
(1071,1095,o),
(891,1232,o),
(623,1232,cs),
(355,1232,o),
(173,1097,o),
(173,870,cs),
(173,715,o),
(271,595,o),
(413,564,c),
(269,537,o),
(144,413,o),
(144,246,cs),
(144,-15,o),
(359,-140,o),
(623,-140,cs)
);
},
{
closed = 1;
nodes = (
(494,89,o),
(424,148,o),
(424,257,cs),
(424,390,o),
(496,474,o),
(623,474,cs),
(749,474,o),
(819,390,o),
(819,257,cs),
(819,148,o),
(751,89,o),
(623,89,cs)
);
},
{
closed = 1;
nodes = (
(507,684,o),
(446,742,o),
(446,859,cs),
(446,952,o),
(500,1013,o),
(623,1013,cs),
(742,1013,o),
(798,953,o),
(798,860,cs),
(798,743,o),
(740,684,o),
(623,684,cs)
);
}
);
userData = {
org.robofab.postScriptHintData = {
};
position = 911;
width = 101;
};
width = 1249;
},
{
layerId = "A42FE7CC-127E-49DD-94F7-5A0AE28D570D";
shapes = (
{
closed = 1;
nodes = (
(864,-144,o),
(1028,2,o),
(1028,234,cs),
(1028,403,o),
(940,540,o),
(770,590,c),
(918,636,o),
(1007,751,o),
(1007,911,cs),
(1007,1121,o),
(851,1254,o),
(602,1254,cs),
(345,1254,o),
(183,1121,o),
(183,911,cs),
(183,752,o),
(272,636,o),
(420,592,c),
(250,543,o),
(162,406,o),
(162,234,cs),
(162,2,o),
(332,-144,o),
(602,-144,cs)
);
},
{
closed = 1;
nodes = (
(411,-46,o),
(291,62,o),
(291,234,cs),
(291,422,o),
(413,547,o),
(602,547,cs),
(785,547,o),
(900,419,o),
(900,234,cs),
(900,62,o),
(785,-46,o),
(602,-46,cs)
);
},
{
closed = 1;
nodes = (
(431,636,o),
(310,745,o),
(310,911,cs),
(310,1063,o),
(423,1159,o),
(602,1159,cs),
(773,1159,o),
(880,1063,o),
(880,911,cs),
(880,746,o),
(768,636,o),
(602,636,cs)
);
}
);
userData = {
org.robofab.postScriptHintData = {
};
position = 911;
width = 101;
};
width = 1197;
},
{
layerId = "D923CF66-7FA1-4921-AD26-EF4ED3F99F75";
shapes = (
{
closed = 1;
nodes = (
(856,-149,o),
(1015,-4,o),
(1015,226,cs),
(1015,401,o),
(912,539,o),
(747,583,c),
(898,627,o),
(993,754,o),
(993,913,cs),
(993,1122,o),
(842,1253,o),
(602,1253,cs),
(351,1253,o),
(194,1122,o),
(194,913,cs),
(194,754,o),
(289,627,o),
(440,585,c),
(275,543,o),
(172,405,o),
(172,226,cs),
(172,-4,o),
(337,-149,o),
(602,-149,cs)
);
},
{
closed = 1;
nodes = (
(394,-81,o),
(264,37,o),
(264,226,cs),
(264,426,o),
(394,553,o),
(602,553,cs),
(799,553,o),
(924,426,o),
(924,226,cs),
(924,37,o),
(799,-81,o),
(602,-81,cs)
);
},
{
closed = 1;
nodes = (
(407,622,o),
(283,734,o),
(283,913,cs),
(283,1081,o),
(407,1187,o),
(602,1187,cs),
(787,1187,o),
(904,1081,o),
(904,913,cs),
(904,734,o),
(787,622,o),
(602,622,cs)
);
}
);
userData = {
org.robofab.postScriptHintData = {
};
position = 911;
width = 101;
};
width = 1187;
},
{
layerId = "A385C2E8-1AD9-48CA-B23A-EC0EE376012C";
shapes = (
{
closed = 1;
nodes = (
(894,-141,o),
(1140,-29,o),
(1140,248,cs),
(1140,417,o),
(982,535,o),
(855,541,c),
(998,562,o),
(1105,694,o),
(1105,845,cs),
(1105,1079,o),
(911,1218,o),
(637,1218,cs),
(366,1218,o),
(174,1081,o),
(174,845,cs),
(174,692,o),
(282,562,o),
(422,541,c),
(299,533,o),
(138,418,o),
(138,249,cs),
(138,-30,o),
(380,-141,o),
(637,-141,cs)
);
},
{
closed = 1;
nodes = (
(539,155,o),
(495,188,o),
(495,267,cs),
(495,372,o),
(540,430,o),
(637,430,cs),
(735,430,o),
(782,376,o),
(782,268,cs),
(782,188,o),
(738,155,o),
(637,155,cs)
);
},
{
closed = 1;
nodes = (
(542,707,o),
(519,733,o),
(519,827,cs),
(519,890,o),
(542,935,o),
(637,935,cs),
(731,935,o),
(759,892,o),
(759,828,cs),
(759,733,o),
(734,707,o),
(637,707,cs)
);
}
);
userData = {
org.robofab.postScriptHintData = {
};
position = 911;
width = 101;
};
width = 1277;
},
{
layerId = "8D846C25-91DF-40AD-AD53-612095F39333";
shapes = (
{
closed = 1;
nodes = (
(876,-139,o),
(1060,1,o),
(1060,242,cs),
(1060,407,o),
(970,540,o),
(805,585,c),
(950,628,o),
(1038,736,o),
(1038,895,cs),
(1038,1112,o),
(870,1247,o),
(609,1247,cs),
(344,1247,o),
(172,1112,o),
(172,895,cs),
(172,738,o),
(260,628,o),
(404,587,c),
(240,541,o),
(149,408,o),
(149,243,cs),
(149,0,o),
(338,-139,o),
(609,-139,cs)
);
},
{
closed = 1;
nodes = (
(449,22,o),
(353,107,o),
(353,246,cs),
(353,409,o),
(453,519,o),
(609,519,cs),
(764,519,o),
(856,404,o),
(856,246,cs),
(856,107,o),
(764,22,o),
(609,22,cs)
);
},
{
closed = 1;
nodes = (
(472,661,o),
(373,751,o),
(373,892,cs),
(373,1013,o),
(459,1091,o),
(609,1091,cs),
(753,1091,o),
(837,1014,o),
(837,892,cs),
(837,752,o),
(745,661,o),
(609,661,cs)
);
}
);
userData = {
org.robofab.postScriptHintData = {
};
position = 911;
width = 101;
};
width = 1220;
},
{
layerId = "F7888953-CE93-4976-8BE6-A29979B42D03";
shapes = (
{
closed = 1;
nodes = (
(872,-139,o),
(1040,8,o),
(1040,241,cs),
(1040,405,o),
(967,541,o),
(792,596,c),
(938,645,o),
(1021,747,o),
(1021,908,cs),
(1021,1120,o),
(860,1254,o),
(602,1254,cs),
(338,1254,o),
(171,1120,o),
(171,908,cs),
(171,750,o),
(254,645,o),
(400,598,c),
(225,543,o),
(152,406,o),
(152,241,cs),
(152,8,o),
(327,-139,o),
(602,-139,cs)
);
},
{
closed = 1;
nodes = (
(427,-11,o),
(317,87,o),
(317,241,cs),
(317,418,o),
(431,541,o),
(602,541,cs),
(771,541,o),
(875,411,o),
(875,241,cs),
(875,87,o),
(770,-11,o),
(602,-11,cs)
);
},
{
closed = 1;
nodes = (
(455,649,o),
(336,756,o),
(336,908,cs),
(336,1044,o),
(438,1130,o),
(602,1130,cs),
(758,1130,o),
(856,1044,o),
(856,908,cs),
(856,757,o),
(748,649,o),
(602,649,cs)
);
}
);
userData = {
org.robofab.postScriptHintData = {
};
position = 911;
width = 101;
};
width = 1206;
},
{
layerId = "DF6AE5EF-88F0-41AF-8A72-F8343FE6B5C8";
shapes = (
{
closed = 1;
nodes = (
(890,-141,o),
(1120,-22,o),
(1120,247,cs),
(1120,415,o),
(979,536,o),
(842,552,c),
(986,579,o),
(1088,705,o),
(1088,858,cs),
(1088,1087,o),
(901,1225,o),
(630,1225,cs),
(360,1225,o),
(173,1089,o),
(173,858,cs),
(173,704,o),
(276,579,o),
(418,552,c),
(284,535,o),
(141,416,o),
(141,247,cs),
(141,-22,o),
(369,-141,o),
(630,-141,cs)
);
},
{
closed = 1;
nodes = (
(517,122,o),
(459,168,o),
(459,262,cs),
(459,381,o),
(518,452,o),
(630,452,cs),
(742,452,o),
(801,383,o),
(801,263,cs),
(801,168,o),
(744,122,o),
(630,122,cs)
);
},
{
closed = 1;
nodes = (
(525,695,o),
(482,738,o),
(482,843,cs),
(482,921,o),
(521,974,o),
(630,974,cs),
(736,974,o),
(778,922,o),
(778,844,cs),
(778,738,o),
(737,695,o),
(630,695,cs)
);
}
);
userData = {
org.robofab.postScriptHintData = {
};
position = 911;
width = 101;
};
width = 1263;
}
);
unicode = 56;
},
{
glyphname = nine;
lastChange = "2024-06-14 12:24:57 +0000";
layers = (
{
layerId = "67845082-4271-4E32-8C80-EE8FB13E39CE";
shapes = (
{
closed = 1;
nodes = (
(808,-206,o),
(1110,83,o),
(1110,565,cs),
(1110,825,o),
(998,1116,o),
(602,1116,cs),
(310,1116,o),
(126,929,o),
(126,657,cs),
(126,407,o),
(283,207,o),
(557,207,cs),
(663,207,o),
(757,237,o),
(806,290,c),
(742,102,o),
(540,-39,o),
(311,-86,c),
(383,-314,l)
);
},
{
closed = 1;
nodes = (
(414,590,o),
(412,699,o),
(488,769,cs),
(578,843,o),
(648,834,o),
(725,768,cs),
(820,747,o),
(845,649,o),
(839,548,c),
(806,510,o),
(760,483,o),
(720,468,cs),
(627,437,o),
(523,474,o),
(485,530,cs)
);
}
);
userData = {
org.robofab.postScriptHintData = {
};
position = 995;
width = 98;
};
width = 1214;
},
{
layerId = "A42FE7CC-127E-49DD-94F7-5A0AE28D570D";
shapes = (
{
closed = 1;
nodes = (
(810,-178,o),
(1051,153,o),
(1051,564,cs),
(1051,873,o),
(917,1115,o),
(592,1115,cs),
(339,1115,o),
(156,944,o),
(156,653,cs),
(156,377,o),
(343,231,o),
(568,231,cs),
(705,231,o),
(839,287,o),
(911,403,c),
(876,119,o),
(668,-96,o),
(386,-171,c),
(415,-273,l)
);
},
{
closed = 1;
nodes = (
(401,331,o),
(282,451,o),
(282,664,cs),
(282,862,o),
(401,1012,o),
(591,1012,cs),
(859,1012,o),
(923,776,o),
(923,585,c),
(923,554,o),
(923,525,o),
(919,498,cs),
(846,394,o),
(686,331,o),
(571,331,cs)
);
}
);
userData = {
org.robofab.postScriptHintData = {
};
position = 995;
width = 98;
};
width = 1207;
},
{
layerId = "D923CF66-7FA1-4921-AD26-EF4ED3F99F75";
shapes = (
{
closed = 1;
nodes = (
(791,-181,o),
(1014,161,o),
(1014,557,cs),
(1014,870,o),
(888,1113,o),
(570,1113,cs),
(340,1113,o),
(166,954,o),
(166,651,cs),
(166,362,o),
(360,236,o),
(554,236,cs),
(704,236,o),
(853,309,o),
(917,442,c),
(895,140,o),
(701,-108,o),
(393,-205,c),
(412,-275,l)
);
},
{
closed = 1;
nodes = (
(399,311,o),
(255,421,o),
(255,673,cs),
(255,882,o),
(383,1038,o),
(569,1038,cs),
(867,1038,o),
(924,757,o),
(924,577,cs),
(924,555,o),
(923,534,o),
(922,516,c),
(838,386,o),
(694,311,o),
(560,311,cs)
);
}
);
userData = {
org.robofab.postScriptHintData = {
};
position = 995;
width = 98;
};
width = 1187;
},
{
layerId = "A385C2E8-1AD9-48CA-B23A-EC0EE376012C";
shapes = (
{
closed = 1;
nodes = (
(794,-227,o),
(1125,41,o),
(1125,561,cs),
(1125,791,o),
(1034,1116,o),
(595,1116,cs),
(292,1116,o),
(112,925,o),
(112,659,cs),
(112,417,o),
(255,195,o),
(541,195,cs),
(635,195,o),
(713,219,o),
(741,242,c),
(666,104,o),
(477,-10,o),
(267,-52,c),
(361,-342,l)
);
},
{
closed = 1;
nodes = (
(421,750,o),
(482,845,o),
(608,845,cs),
(759,845,o),
(800,733,o),
(800,623,cs),
(800,588,o),
(794,552,o),
(784,518,c),
(729,481,o),
(652,461,o),
(590,461,cs),
(476,461,o),
(421,556,o),
(421,650,cs)
);
}
);
userData = {
org.robofab.postScriptHintData = {
};
position = 995;
width = 98;
};
width = 1206;
},
{
layerId = "8D846C25-91DF-40AD-AD53-612095F39333";
shapes = (
{
closed = 1;
nodes = (
(821,-185,o),
(1095,124,o),
(1095,568,cs),
(1095,859,o),
(963,1116,o),
(609,1116,cs),
(329,1116,o),
(139,932,o),
(139,655,cs),
(139,396,o),
(311,219,o),
(574,219,cs),
(692,219,o),
(802,255,o),
(871,339,c),
(818,99,o),
(603,-68,o),
(356,-120,c),
(406,-285,l)
);
},
{
closed = 1;
nodes = (
(407,430,o),
(343,554,o),
(368,693,cs),
(398,842,o),
(495,935,o),
(650,913,cs),
(841,906,o),
(896,746,o),
(894,577,c),
(883,539,o),
(868,505,o),
(851,475,cs),
(778,414,o),
(626,391,o),
(550,410,cs)
);
}
);
userData = {
org.robofab.postScriptHintData = {
};
position = 995;
width = 98;
};
width = 1223;
},
{
layerId = "F7888953-CE93-4976-8BE6-A29979B42D03";
shapes = (
{
closed = 1;
nodes = (
(828,-175,o),
(1087,145,o),
(1087,570,cs),
(1087,876,o),
(945,1116,o),
(613,1116,cs),
(338,1116,o),
(146,934,o),
(146,654,cs),
(146,391,o),
(325,225,o),
(582,225,cs),
(706,225,o),
(824,264,o),
(904,363,c),
(856,98,o),
(634,-83,o),
(378,-137,c),
(417,-271,l)
);
},
{
closed = 1;
nodes = (
(403,350,o),
(308,481,o),
(308,655,cs),
(308,841,o),
(419,985,o),
(613,985,cs),
(851,985,o),
(922,795,o),
(922,592,c),
(922,553,o),
(922,516,o),
(916,479,cs),
(853,402,o),
(677,350,o),
(582,350,cs)
);
}
);
userData = {
org.robofab.postScriptHintData = {
};
position = 995;
width = 98;
};
width = 1227;
},
{
layerId = "DF6AE5EF-88F0-41AF-8A72-F8343FE6B5C8";
shapes = (
{
closed = 1;
nodes = (
(801,-217,o),
(1117,62,o),
(1117,563,cs),
(1117,808,o),
(1016,1116,o),
(599,1116,cs),
(301,1116,o),
(119,927,o),
(119,658,cs),
(119,412,o),
(269,201,o),
(549,201,cs),
(649,201,o),
(735,228,o),
(774,266,c),
(704,103,o),
(508,-25,o),
(289,-69,c),
(372,-328,l)
);
},
{
closed = 1;
nodes = (
(417,670,o),
(447,772,o),
(548,807,cs),
(669,844,o),
(724,783,o),
(763,695,cs),
(810,667,o),
(820,601,o),
(812,533,c),
(768,495,o),
(706,472,o),
(655,465,cs),
(551,449,o),
(472,515,o),
(453,590,cs)
);
}
);
userData = {
org.robofab.postScriptHintData = {
};
position = 995;
width = 98;
};
width = 1210;
}
);
unicode = 57;
},
{
glyphname = colon;
lastChange = "2024-06-14 12:24:57 +0000";
layers = (
{
layerId = "67845082-4271-4E32-8C80-EE8FB13E39CE";
shapes = (
{
closed = 1;
nodes = (
(549,0,l),
(549,382,l),
(196,382,l),
(196,0,l)
);
},
{
closed = 1;
nodes = (
(549,669,l),
(549,1049,l),
(196,1049,l),
(196,669,l)
);
}
);
userData = {
anchors = (
);
components = (
);
contours = (
);
name = colon;
org.robofab.postScriptHintData = {
};
position = 102;
unicodes = (
);
width = 404;
};
width = 746;
},
{
layerId = "A42FE7CC-127E-49DD-94F7-5A0AE28D570D";
shapes = (
{
closed = 1;
nodes = (
(348,0,l),
(348,224,l),
(190,224,l),
(190,0,l)
);
},
{
closed = 1;
nodes = (
(348,507,l),
(348,732,l),
(190,732,l),
(190,507,l)
);
}
);
userData = {
anchors = (
);
components = (
);
contours = (
);
name = colon;
org.robofab.postScriptHintData = {
};
position = 102;
unicodes = (
);
width = 404;
};
width = 520;
},
{
layerId = "D923CF66-7FA1-4921-AD26-EF4ED3F99F75";
shapes = (
{
closed = 1;
nodes = (
(242,0,l),
(242,187,l),
(172,187,l),
(172,0,l)
);
},
{
closed = 1;
nodes = (
(242,468,l),
(242,657,l),
(172,657,l),
(172,468,l)
);
}
);
userData = {
anchors = (
);
components = (
);
contours = (
);
name = colon;
org.robofab.postScriptHintData = {
};
position = 102;
unicodes = (
);
width = 404;
};
width = 376;
},
{
layerId = "A385C2E8-1AD9-48CA-B23A-EC0EE376012C";
shapes = (
{
closed = 1;
nodes = (
(613,0,l),
(613,463,l),
(189,463,l),
(189,0,l)
);
},
{
closed = 1;
nodes = (
(613,751,l),
(613,1210,l),
(189,1210,l),
(189,751,l)
);
}
);
userData = {
anchors = (
);
components = (
);
contours = (
);
name = colon;
org.robofab.postScriptHintData = {
};
position = 102;
unicodes = (
);
width = 404;
};
width = 801;
},
{
layerId = "8D846C25-91DF-40AD-AD53-612095F39333";
shapes = (
{
closed = 1;
nodes = (
(485,0,l),
(485,301,l),
(203,301,l),
(203,0,l)
);
},
{
closed = 1;
nodes = (
(485,586,l),
(485,888,l),
(203,888,l),
(203,586,l)
);
}
);
userData = {
anchors = (
);
components = (
);
contours = (
);
name = colon;
org.robofab.postScriptHintData = {
};
position = 102;
unicodes = (
);
width = 404;
};
width = 691;
},
{
layerId = "F7888953-CE93-4976-8BE6-A29979B42D03";
shapes = (
{
closed = 1;
nodes = (
(453,0,l),
(453,261,l),
(207,261,l),
(207,0,l)
);
},
{
closed = 1;
nodes = (
(453,545,l),
(453,807,l),
(207,807,l),
(207,545,l)
);
}
);
userData = {
anchors = (
);
components = (
);
contours = (
);
name = colon;
org.robofab.postScriptHintData = {
};
position = 102;
unicodes = (
);
width = 404;
};
width = 664;
},
{
layerId = "DF6AE5EF-88F0-41AF-8A72-F8343FE6B5C8";
shapes = (
{
closed = 1;
nodes = (
(581,0,l),
(581,423,l),
(193,423,l),
(193,0,l)
);
},
{
closed = 1;
nodes = (
(581,710,l),
(581,1129,l),
(193,1129,l),
(193,710,l)
);
}
);
userData = {
anchors = (
);
components = (
);
contours = (
);
name = colon;
org.robofab.postScriptHintData = {
};
position = 102;
unicodes = (
);
width = 404;
};
width = 774;
}
);
unicode = 58;
},
{
glyphname = semicolon;
lastChange = "2024-06-14 12:24:57 +0000";
layers = (
{
layerId = "67845082-4271-4E32-8C80-EE8FB13E39CE";
shapes = (
{
closed = 1;
nodes = (
(414,-235,o),
(571,-165,o),
(571,47,cs),
(571,371,l),
(205,371,l),
(205,0,l),
(364,0,l),
(363,-95,o),
(317,-137,o),
(204,-177,c),
(260,-281,l)
);
},
{
closed = 1;
nodes = (
(570,669,l),
(570,1049,l),
(203,1049,l),
(203,669,l)
);
}
);
userData = {
anchors = (
);
components = (
);
contours = (
);
name = semicolon;
org.robofab.postScriptHintData = {
};
position = 197;
unicodes = (
);
width = 420;
};
width = 738;
},
{
layerId = "A42FE7CC-127E-49DD-94F7-5A0AE28D570D";
shapes = (
{
closed = 1;
nodes = (
(295,-191,o),
(355,-110,o),
(355,22,cs),
(355,243,l),
(191,243,l),
(191,0,l),
(268,0,l),
(269,-94,o),
(234,-143,o),
(160,-168,c),
(188,-223,l)
);
},
{
closed = 1;
nodes = (
(355,507,l),
(355,732,l),
(193,732,l),
(193,507,l)
);
}
);
userData = {
anchors = (
);
components = (
);
contours = (
);
name = semicolon;
org.robofab.postScriptHintData = {
};
position = 197;
unicodes = (
);
width = 420;
};
width = 528;
},
{
layerId = "D923CF66-7FA1-4921-AD26-EF4ED3F99F75";
shapes = (
{
closed = 1;
nodes = (
(209,-184,o),
(252,-115,o),
(252,5,cs),
(252,213,l),
(181,213,l),
(181,0,l),
(215,0,l),
(215,-99,o),
(188,-162,o),
(120,-184,c),
(130,-209,l)
);
},
{
closed = 1;
nodes = (
(252,468,l),
(252,657,l),
(183,657,l),
(183,468,l)
);
}
);
userData = {
anchors = (
);
components = (
);
contours = (
);
name = semicolon;
org.robofab.postScriptHintData = {
};
position = 197;
unicodes = (
);
width = 420;
};
width = 391;
},
{
layerId = "A385C2E8-1AD9-48CA-B23A-EC0EE376012C";
shapes = (
{
closed = 1;
nodes = (
(436,-260,o),
(646,-205,o),
(646,53,cs),
(646,437,l),
(207,437,l),
(207,0,l),
(392,0,l),
(391,-99,o),
(343,-146,o),
(208,-195,c),
(270,-310,l)
);
},
{
closed = 1;
nodes = (
(644,751,l),
(644,1210,l),
(203,1210,l),
(203,751,l)
);
}
);
userData = {
anchors = (
);
components = (
);
contours = (
);
name = semicolon;
org.robofab.postScriptHintData = {
};
position = 197;
unicodes = (
);
width = 420;
};
width = 786;
},
{
layerId = "8D846C25-91DF-40AD-AD53-612095F39333";
shapes = (
{
closed = 1;
nodes = (
(391,-210,o),
(496,-125,o),
(496,42,cs),
(496,306,l),
(202,306,l),
(202,0,l),
(335,0,l),
(336,-91,o),
(292,-128,o),
(201,-160,c),
(251,-252,l)
);
},
{
closed = 1;
nodes = (
(495,586,l),
(495,888,l),
(202,888,l),
(202,586,l)
);
}
);
userData = {
anchors = (
);
components = (
);
contours = (
);
name = semicolon;
org.robofab.postScriptHintData = {
};
position = 197;
unicodes = (
);
width = 420;
};
width = 689;
},
{
layerId = "F7888953-CE93-4976-8BE6-A29979B42D03";
shapes = (
{
closed = 1;
nodes = (
(380,-198,o),
(458,-105,o),
(458,39,cs),
(458,273,l),
(201,273,l),
(201,0,l),
(321,0,l),
(322,-89,o),
(279,-124,o),
(199,-151,c),
(246,-237,l)
);
},
{
closed = 1;
nodes = (
(458,545,l),
(458,807,l),
(202,807,l),
(202,545,l)
);
}
);
userData = {
anchors = (
);
components = (
);
contours = (
);
name = semicolon;
org.robofab.postScriptHintData = {
};
position = 197;
unicodes = (
);
width = 420;
};
width = 665;
},
{
layerId = "DF6AE5EF-88F0-41AF-8A72-F8343FE6B5C8";
shapes = (
{
closed = 1;
nodes = (
(425,-248,o),
(608,-185,o),
(608,50,cs),
(608,404,l),
(206,404,l),
(206,0,l),
(378,0,l),
(377,-97,o),
(330,-142,o),
(206,-186,c),
(265,-295,l)
);
},
{
closed = 1;
nodes = (
(607,710,l),
(607,1129,l),
(203,1129,l),
(203,710,l)
);
}
);
userData = {
anchors = (
);
components = (
);
contours = (
);
name = semicolon;
org.robofab.postScriptHintData = {
};
position = 197;
unicodes = (
);
width = 420;
};
width = 762;
}
);
unicode = 59;
},
{
glyphname = equal;
lastChange = "2024-06-14 12:24:57 +0000";
layers = (
{
layerId = "67845082-4271-4E32-8C80-EE8FB13E39CE";
shapes = (
{
closed = 1;
nodes = (
(987,275,l),
(987,477,l),
(83,477,l),
(83,275,l)
);
},
{
closed = 1;
nodes = (
(987,629,l),
(987,831,l),
(83,831,l),
(83,629,l)
);
}
);
userData = {
org.robofab.postScriptHintData = {
};
position = 148;
width = 369;
};
width = 1100;
},
{
layerId = "A42FE7CC-127E-49DD-94F7-5A0AE28D570D";
shapes = (
{
closed = 1;
nodes = (
(694,330,l),
(694,421,l),
(102,421,l),
(102,330,l)
);
},
{
closed = 1;
nodes = (
(694,603,l),
(694,693,l),
(102,693,l),
(102,603,l)
);
}
);
userData = {
org.robofab.postScriptHintData = {
};
position = 148;
width = 369;
};
width = 797;
},
{
layerId = "D923CF66-7FA1-4921-AD26-EF4ED3F99F75";
shapes = (
{
closed = 1;
nodes = (
(640,347,l),
(640,409,l),
(80,409,l),
(80,347,l)
);
},
{
closed = 1;
nodes = (
(640,622,l),
(640,683,l),
(80,683,l),
(80,622,l)
);
}
);
userData = {
org.robofab.postScriptHintData = {
};
position = 148;
width = 369;
};
width = 720;
},
{
layerId = "A385C2E8-1AD9-48CA-B23A-EC0EE376012C";
shapes = (
{
closed = 1;
nodes = (
(1146,250,l),
(1146,507,l),
(56,507,l),
(56,250,l)
);
},
{
closed = 1;
nodes = (
(1146,659,l),
(1146,916,l),
(56,916,l),
(56,659,l)
);
}
);
userData = {
org.robofab.postScriptHintData = {
};
position = 148;
width = 369;
};
width = 1252;
},
{
layerId = "8D846C25-91DF-40AD-AD53-612095F39333";
shapes = (
{
closed = 1;
nodes = (
(828,300,l),
(828,447,l),
(110,447,l),
(110,300,l)
);
},
{
closed = 1;
nodes = (
(828,598,l),
(828,746,l),
(110,746,l),
(110,598,l)
);
}
);
userData = {
org.robofab.postScriptHintData = {
};
position = 148;
width = 369;
};
width = 949;
},
{
layerId = "F7888953-CE93-4976-8BE6-A29979B42D03";
shapes = (
{
closed = 1;
nodes = (
(748,312,l),
(748,432,l),
(123,432,l),
(123,312,l)
);
},
{
closed = 1;
nodes = (
(748,583,l),
(748,703,l),
(123,703,l),
(123,583,l)
);
}
);
userData = {
org.robofab.postScriptHintData = {
};
position = 148;
width = 369;
};
width = 873;
},
{
layerId = "DF6AE5EF-88F0-41AF-8A72-F8343FE6B5C8";
shapes = (
{
closed = 1;
nodes = (
(1066,262,l),
(1066,492,l),
(69,492,l),
(69,262,l)
);
},
{
closed = 1;
nodes = (
(1066,644,l),
(1066,873,l),
(69,873,l),
(69,644,l)
);
}
);
userData = {
org.robofab.postScriptHintData = {
};
position = 148;
width = 369;
};
width = 1176;
}
);
unicode = 61;
},
{
glyphname = question;
lastChange = "2024-06-14 12:24:57 +0000";
layers = (
{
layerId = "67845082-4271-4E32-8C80-EE8FB13E39CE";
shapes = (
{
closed = 1;
nodes = (
(471,488,l),
(471,648,l),
(775,727,o),
(962,844,o),
(962,1110,cs),
(962,1391,o),
(725,1502,o),
(463,1502,cs),
(314,1502,o),
(157,1466,o),
(32,1406,c),
(101,1189,l),
(184,1228,o),
(316,1263,o),
(432,1263,cs),
(562,1263,o),
(667,1217,o),
(667,1096,cs),
(667,916,o),
(421,841,o),
(223,790,c),
(223,488,l)
);
},
{
closed = 1;
nodes = (
(440,-19,o),
(518,55,o),
(518,155,cs),
(518,256,o),
(442,328,o),
(343,328,cs),
(240,328,o),
(168,254,o),
(168,157,cs),
(168,55,o),
(241,-19,o),
(341,-19,cs)
);
}
);
userData = {
org.robofab.postScriptHintData = {
};
position = 754;
width = 112;
};
width = 1052;
},
{
layerId = "A42FE7CC-127E-49DD-94F7-5A0AE28D570D";
shapes = (
{
closed = 1;
nodes = (
(374,343,l),
(374,640,l),
(602,727,o),
(905,844,o),
(905,1153,cs),
(905,1407,o),
(697,1501,o),
(471,1501,cs),
(333,1501,o),
(188,1463,o),
(85,1407,c),
(126,1311,l),
(224,1361,o),
(348,1395,o),
(463,1395,cs),
(670,1395,o),
(773,1292,o),
(773,1137,cs),
(773,880,o),
(481,790,o),
(273,706,c),
(273,343,l)
);
},
{
closed = 1;
nodes = (
(377,-17,o),
(411,18,o),
(411,71,cs),
(411,123,o),
(379,155,o),
(327,155,cs),
(272,155,o),
(236,125,o),
(236,74,cs),
(236,18,o),
(270,-17,o),
(324,-17,cs)
);
}
);
userData = {
org.robofab.postScriptHintData = {
};
position = 754;
width = 112;
};
width = 1028;
},
{
layerId = "D923CF66-7FA1-4921-AD26-EF4ED3F99F75";
shapes = (
{
closed = 1;
nodes = (
(382,302,l),
(382,644,l),
(594,731,o),
(907,845,o),
(907,1160,cs),
(907,1410,o),
(704,1505,o),
(480,1505,cs),
(346,1505,o),
(203,1465,o),
(101,1409,c),
(136,1341,l),
(231,1391,o),
(359,1425,o),
(479,1425,cs),
(737,1425,o),
(818,1288,o),
(818,1146,cs),
(818,869,o),
(545,788,o),
(311,682,c),
(311,302,l)
);
},
{
closed = 1;
nodes = (
(387,-17,o),
(409,7,o),
(409,44,cs),
(409,77,o),
(387,97,o),
(351,97,cs),
(313,97,o),
(288,77,o),
(288,44,cs),
(288,7,o),
(313,-17,o),
(351,-17,cs)
);
}
);
userData = {
org.robofab.postScriptHintData = {
};
position = 754;
width = 112;
};
width = 1019;
},
{
layerId = "A385C2E8-1AD9-48CA-B23A-EC0EE376012C";
shapes = (
{
closed = 1;
nodes = (
(541,557,l),
(541,656,l),
(885,731,o),
(1001,844,o),
(1001,1087,cs),
(1001,1383,o),
(749,1505,o),
(464,1505,cs),
(310,1505,o),
(147,1470,o),
(7,1407,c),
(92,1128,l),
(162,1160,o),
(302,1195,o),
(422,1195,cs),
(534,1195,o),
(627,1165,o),
(627,1075,cs),
(627,933,o),
(425,874,o),
(215,831,c),
(215,557,l)
);
},
{
closed = 1;
nodes = (
(488,-20,o),
(588,73,o),
(588,193,cs),
(588,314,o),
(490,404,o),
(370,404,cs),
(247,404,o),
(158,309,o),
(158,193,cs),
(158,73,o),
(251,-20,o),
(370,-20,cs)
);
}
);
userData = {
org.robofab.postScriptHintData = {
};
position = 754;
width = 112;
};
width = 1062;
},
{
layerId = "8D846C25-91DF-40AD-AD53-612095F39333";
shapes = (
{
closed = 1;
nodes = (
(400,419,l),
(400,640,l),
(664,724,o),
(923,843,o),
(923,1133,cs),
(923,1399,o),
(701,1499,o),
(462,1499,cs),
(318,1499,o),
(167,1462,o),
(57,1405,c),
(110,1250,l),
(205,1297,o),
(330,1330,o),
(441,1330,cs),
(589,1330,o),
(708,1270,o),
(708,1117,cs),
(708,899,o),
(418,808,o),
(231,749,c),
(231,419,l)
);
},
{
closed = 1;
nodes = (
(391,-18,o),
(448,37,o),
(448,117,cs),
(448,197,o),
(395,251,o),
(316,251,cs),
(233,251,o),
(178,199,o),
(178,122,cs),
(178,38,o),
(232,-18,o),
(312,-18,cs)
);
}
);
userData = {
org.robofab.postScriptHintData = {
};
position = 754;
width = 112;
};
width = 1041;
},
{
layerId = "F7888953-CE93-4976-8BE6-A29979B42D03";
shapes = (
{
closed = 1;
nodes = (
(365,384,l),
(365,636,l),
(609,722,o),
(903,843,o),
(903,1145,cs),
(903,1403,o),
(689,1497,o),
(462,1497,cs),
(320,1497,o),
(172,1460,o),
(69,1404,c),
(115,1281,l),
(216,1331,o),
(337,1364,o),
(446,1364,cs),
(603,1364,o),
(728,1296,o),
(728,1127,cs),
(728,890,o),
(416,791,o),
(235,729,c),
(235,384,l)
);
},
{
closed = 1;
nodes = (
(367,-17,o),
(413,28,o),
(413,98,cs),
(413,168,o),
(371,213,o),
(302,213,cs),
(230,213,o),
(183,172,o),
(183,104,cs),
(183,29,o),
(227,-17,o),
(297,-17,cs)
);
}
);
userData = {
org.robofab.postScriptHintData = {
};
position = 754;
width = 112;
};
width = 1036;
},
{
layerId = "DF6AE5EF-88F0-41AF-8A72-F8343FE6B5C8";
shapes = (
{
closed = 1;
nodes = (
(506,522,l),
(506,652,l),
(830,729,o),
(981,844,o),
(981,1099,cs),
(981,1387,o),
(737,1503,o),
(464,1503,cs),
(312,1503,o),
(152,1468,o),
(19,1406,c),
(97,1159,l),
(173,1194,o),
(309,1229,o),
(427,1229,cs),
(548,1229,o),
(647,1191,o),
(647,1085,cs),
(647,924,o),
(423,857,o),
(219,811,c),
(219,522,l)
);
},
{
closed = 1;
nodes = (
(464,-19,o),
(553,64,o),
(553,174,cs),
(553,285,o),
(466,366,o),
(356,366,cs),
(244,366,o),
(163,282,o),
(163,175,cs),
(163,64,o),
(246,-19,o),
(355,-19,cs)
);
}
);
userData = {
org.robofab.postScriptHintData = {
};
position = 754;
width = 112;
};
width = 1057;
}
);
unicode = 63;
},
{
glyphname = at;
lastChange = "2024-06-14 12:24:57 +0000";
layers = (
{
layerId = "67845082-4271-4E32-8C80-EE8FB13E39CE";
shapes = (
{
closed = 1;
nodes = (
(1102,-136,o),
(1289,-103,o),
(1411,-52,c),
(1361,95,l),
(1249,41,o),
(1085,8,o),
(938,8,cs),
(517,8,o),
(276,257,o),
(280,671,cs),
(283,1106,o),
(577,1380,o),
(1007,1380,cs),
(1398,1380,o),
(1642,1158,o),
(1642,802,cs),
(1642,531,o),
(1556,368,o),
(1433,368,cs),
(1405,368,o),
(1388,389,o),
(1390,428,cs),
(1390,431,o),
(1440,992,o),
(1441,1016,cs),
(1444,1123,o),
(1306,1187,o),
(1093,1187,cs),
(724,1187,o),
(471,963,o),
(471,606,cs),
(471,376,o),
(595,226,o),
(818,226,cs),
(1037,226,o),
(1215,383,o),
(1283,634,c),
(1261,636,l),
(1259,583,o),
(1247,480,o),
(1247,409,cs),
(1247,306,o),
(1312,240,o),
(1414,240,cs),
(1656,240,o),
(1805,459,o),
(1805,802,cs),
(1805,1243,o),
(1496,1523,o),
(1007,1523,cs),
(465,1523,o),
(101,1186,o),
(101,660,cs),
(101,166,o),
(416,-136,o),
(938,-136,cs)
);
},
{
closed = 1;
nodes = (
(710,363,o),
(642,466,o),
(642,621,cs),
(642,895,o),
(827,1063,o),
(1093,1065,cs),
(1147,1065,o),
(1221,1051,o),
(1289,1028,c),
(1244,617,o),
(1070,363,o),
(843,363,cs)
);
}
);
userData = {
anchors = (
);
components = (
);
contours = (
);
name = at;
org.robofab.postScriptHintData = {
};
position = 1599;
unicodes = (
);
width = 1827;
};
width = 1878;
},
{
layerId = "A42FE7CC-127E-49DD-94F7-5A0AE28D570D";
shapes = (
{
closed = 1;
nodes = (
(1073,-99,o),
(1241,-71,o),
(1359,-27,c),
(1327,68,l),
(1216,22,o),
(1060,-7,o),
(925,-7,cs),
(497,-7,o),
(228,250,o),
(232,651,cs),
(237,1135,o),
(537,1425,o),
(994,1425,cs),
(1400,1425,o),
(1645,1186,o),
(1645,807,cs),
(1645,526,o),
(1555,352,o),
(1409,352,cs),
(1362,352,o),
(1334,385,o),
(1336,440,cs),
(1336,443,o),
(1386,1002,o),
(1387,1022,cs),
(1391,1111,o),
(1271,1170,o),
(1080,1170,cs),
(729,1170,o),
(502,941,o),
(502,582,cs),
(502,396,o),
(620,260,o),
(820,260,cs),
(1021,260,o),
(1203,413,o),
(1264,668,c),
(1276,667,l),
(1273,626,o),
(1255,489,o),
(1255,418,cs),
(1255,330,o),
(1314,280,o),
(1397,280,cs),
(1615,280,o),
(1744,480,o),
(1744,809,cs),
(1744,1244,o),
(1460,1517,o),
(994,1517,cs),
(461,1517,o),
(120,1186,o),
(120,650,cs),
(120,194,o),
(434,-99,o),
(925,-99,cs)
);
},
{
closed = 1;
nodes = (
(695,347,o),
(608,438,o),
(608,589,cs),
(608,901,o),
(796,1093,o),
(1079,1095,cs),
(1169,1095,o),
(1249,1073,o),
(1298,1050,c),
(1262,618,o),
(1089,348,o),
(836,347,cs)
);
}
);
userData = {
anchors = (
);
components = (
);
contours = (
);
name = at;
org.robofab.postScriptHintData = {
};
position = 1599;
unicodes = (
);
width = 1827;
};
width = 1829;
},
{
layerId = "D923CF66-7FA1-4921-AD26-EF4ED3F99F75";
shapes = (
{
closed = 1;
nodes = (
(1058,-79,o),
(1220,-53,o),
(1336,-11,c),
(1310,66,l),
(1199,23,o),
(1046,-4,o),
(915,-4,cs),
(483,-4,o),
(207,255,o),
(207,652,cs),
(207,1162,o),
(519,1456,o),
(984,1456,cs),
(1395,1456,o),
(1634,1207,o),
(1634,814,cs),
(1634,529,o),
(1542,353,o),
(1390,353,cs),
(1339,353,o),
(1307,388,o),
(1307,444,cs),
(1307,450,o),
(1358,1018,o),
(1358,1034,cs),
(1358,1115,o),
(1245,1172,o),
(1070,1172,cs),
(735,1172,o),
(511,944,o),
(511,592,cs),
(511,421,o),
(624,276,o),
(823,276,cs),
(1015,276,o),
(1205,426,o),
(1265,683,c),
(1273,683,l),
(1268,651,o),
(1246,492,o),
(1246,427,cs),
(1246,345,o),
(1308,303,o),
(1385,303,cs),
(1594,303,o),
(1711,494,o),
(1711,817,cs),
(1711,1256,o),
(1440,1531,o),
(984,1531,cs),
(458,1531,o),
(117,1205,o),
(117,669,cs),
(117,216,o),
(431,-79,o),
(915,-79,cs)
);
},
{
closed = 1;
nodes = (
(684,349,o),
(595,439,o),
(595,592,cs),
(595,914,o),
(789,1109,o),
(1069,1111,cs),
(1187,1111,o),
(1263,1083,o),
(1289,1063,c),
(1261,622,o),
(1093,349,o),
(831,349,cs)
);
}
);
userData = {
anchors = (
);
components = (
);
contours = (
);
name = at;
org.robofab.postScriptHintData = {
};
position = 1599;
unicodes = (
);
width = 1827;
};
width = 1786;
},
{
layerId = "A385C2E8-1AD9-48CA-B23A-EC0EE376012C";
shapes = (
{
closed = 1;
nodes = (
(1111,-148,o),
(1308,-113,o),
(1431,-59,c),
(1373,112,l),
(1261,54,o),
(1092,19,o),
(940,19,cs),
(522,19,o),
(294,265,o),
(294,685,cs),
(294,1104,o),
(592,1370,o),
(1009,1370,cs),
(1394,1370,o),
(1632,1154,o),
(1632,803,cs),
(1632,537,o),
(1548,380,o),
(1436,380,cs),
(1419,380,o),
(1407,393,o),
(1407,423,cs),
(1407,428,o),
(1458,997,o),
(1458,1021,cs),
(1458,1134,o),
(1312,1201,o),
(1096,1201,cs),
(725,1201,o),
(457,980,o),
(457,629,cs),
(457,379,o),
(581,214,o),
(820,214,cs),
(1043,214,o),
(1225,373,o),
(1297,622,c),
(1250,627,l),
(1247,571,o),
(1236,477,o),
(1236,409,cs),
(1236,301,o),
(1307,228,o),
(1418,228,cs),
(1669,228,o),
(1823,455,o),
(1823,803,cs),
(1823,1251,o),
(1507,1537,o),
(1009,1537,cs),
(466,1537,o),
(87,1199,o),
(87,680,cs),
(87,163,o),
(403,-148,o),
(940,-148,cs)
);
},
{
closed = 1;
nodes = (
(713,375,o),
(656,485,o),
(656,645,cs),
(656,900,o),
(844,1053,o),
(1095,1055,cs),
(1144,1055,o),
(1212,1043,o),
(1277,1022,c),
(1231,619,o),
(1060,375,o),
(844,375,cs)
);
}
);
userData = {
anchors = (
);
components = (
);
contours = (
);
name = at;
org.robofab.postScriptHintData = {
};
position = 1599;
unicodes = (
);
width = 1827;
};
width = 1882;
},
{
layerId = "8D846C25-91DF-40AD-AD53-612095F39333";
shapes = (
{
closed = 1;
nodes = (
(1093,-124,o),
(1270,-93,o),
(1391,-45,c),
(1350,78,l),
(1238,28,o),
(1078,-3,o),
(935,-3,cs),
(512,-3,o),
(259,250,o),
(265,658,cs),
(272,1107,o),
(562,1389,o),
(1004,1389,cs),
(1403,1389,o),
(1651,1163,o),
(1651,801,cs),
(1651,526,o),
(1564,356,o),
(1430,356,cs),
(1391,356,o),
(1369,384,o),
(1373,433,cs),
(1373,435,o),
(1422,988,o),
(1424,1011,cs),
(1430,1112,o),
(1300,1174,o),
(1090,1174,cs),
(723,1174,o),
(485,946,o),
(485,583,cs),
(485,372,o),
(609,237,o),
(817,237,cs),
(1030,237,o),
(1205,394,o),
(1270,646,c),
(1272,645,l),
(1272,595,o),
(1258,483,o),
(1258,408,cs),
(1258,311,o),
(1317,251,o),
(1411,251,cs),
(1643,251,o),
(1786,463,o),
(1786,801,cs),
(1786,1235,o),
(1485,1509,o),
(1004,1509,cs),
(464,1509,o),
(115,1173,o),
(115,640,cs),
(115,169,o),
(429,-124,o),
(935,-124,cs)
);
},
{
closed = 1;
nodes = (
(707,350,o),
(627,446,o),
(627,597,cs),
(627,890,o),
(810,1072,o),
(1090,1074,cs),
(1150,1074,o),
(1230,1058,o),
(1300,1034,c),
(1257,615,o),
(1079,352,o),
(842,351,cs)
);
}
);
userData = {
anchors = (
);
components = (
);
contours = (
);
name = at;
org.robofab.postScriptHintData = {
};
position = 1599;
unicodes = (
);
width = 1827;
};
width = 1874;
},
{
layerId = "F7888953-CE93-4976-8BE6-A29979B42D03";
shapes = (
{
closed = 1;
nodes = (
(1088,-118,o),
(1261,-88,o),
(1381,-42,c),
(1344,69,l),
(1232,21,o),
(1074,-9,o),
(934,-9,cs),
(510,-9,o),
(250,246,o),
(258,651,cs),
(267,1108,o),
(555,1394,o),
(1003,1394,cs),
(1405,1394,o),
(1656,1165,o),
(1656,800,cs),
(1656,523,o),
(1568,350,o),
(1428,350,cs),
(1384,350,o),
(1360,382,o),
(1365,436,cs),
(1365,437,o),
(1413,986,o),
(1415,1009,cs),
(1423,1107,o),
(1297,1167,o),
(1089,1167,cs),
(722,1167,o),
(492,938,o),
(492,571,cs),
(492,370,o),
(616,243,o),
(816,243,cs),
(1027,243,o),
(1200,399,o),
(1263,652,c),
(1278,650,l),
(1278,601,o),
(1263,485,o),
(1263,408,cs),
(1263,314,o),
(1320,257,o),
(1409,257,cs),
(1636,257,o),
(1777,465,o),
(1777,800,cs),
(1777,1231,o),
(1480,1502,o),
(1003,1502,cs),
(463,1502,o),
(122,1166,o),
(122,630,cs),
(122,171,o),
(436,-118,o),
(934,-118,cs)
);
},
{
closed = 1;
nodes = (
(705,344,o),
(620,436,o),
(620,585,cs),
(620,887,o),
(802,1077,o),
(1089,1079,cs),
(1151,1079,o),
(1235,1062,o),
(1306,1037,c),
(1263,614,o),
(1084,346,o),
(841,345,cs)
);
}
);
userData = {
anchors = (
);
components = (
);
contours = (
);
name = at;
org.robofab.postScriptHintData = {
};
position = 1599;
unicodes = (
);
width = 1827;
};
width = 1872;
},
{
layerId = "DF6AE5EF-88F0-41AF-8A72-F8343FE6B5C8";
shapes = (
{
closed = 1;
nodes = (
(1106,-142,o),
(1299,-108,o),
(1421,-56,c),
(1367,103,l),
(1255,47,o),
(1088,13,o),
(939,13,cs),
(519,13,o),
(285,261,o),
(287,678,cs),
(289,1105,o),
(585,1375,o),
(1008,1375,cs),
(1396,1375,o),
(1637,1156,o),
(1637,802,cs),
(1637,534,o),
(1552,374,o),
(1434,374,cs),
(1412,374,o),
(1398,391,o),
(1399,425,cs),
(1399,429,o),
(1449,994,o),
(1450,1019,cs),
(1451,1129,o),
(1309,1194,o),
(1095,1194,cs),
(725,1194,o),
(464,971,o),
(464,617,cs),
(464,377,o),
(588,220,o),
(819,220,cs),
(1040,220,o),
(1220,378,o),
(1290,628,c),
(1256,632,l),
(1253,577,o),
(1241,479,o),
(1241,409,cs),
(1241,304,o),
(1310,234,o),
(1416,234,cs),
(1662,234,o),
(1814,457,o),
(1814,802,cs),
(1814,1247,o),
(1502,1530,o),
(1008,1530,cs),
(465,1530,o),
(94,1192,o),
(94,670,cs),
(94,165,o),
(410,-142,o),
(939,-142,cs)
);
},
{
closed = 1;
nodes = (
(711,369,o),
(649,475,o),
(649,633,cs),
(649,897,o),
(836,1058,o),
(1094,1060,cs),
(1145,1060,o),
(1217,1047,o),
(1283,1025,c),
(1237,618,o),
(1065,369,o),
(843,369,cs)
);
}
);
userData = {
anchors = (
);
components = (
);
contours = (
);
name = at;
org.robofab.postScriptHintData = {
};
position = 1599;
unicodes = (
);
width = 1827;
};
width = 1880;
}
);
unicode = 64;
},
{
glyphname = A;
lastChange = "2024-06-14 12:24:57 +0000";
layers = (
{
anchors = (
{
name = top;
pos = (705,1485);
}
);
layerId = "67845082-4271-4E32-8C80-EE8FB13E39CE";
shapes = (
{
closed = 1;
nodes = (
(342,0,l),
(449,335,l),
(955,335,l),
(1062,0,l),
(1375,0,l),
(884,1485,l),
(520,1485,l),
(30,0,l)
);
},
{
closed = 1;
nodes = (
(707,1167,l),
(913,490,l),
(491,490,l)
);
}
);
userData = {
anchors = (
);
components = (
);
contours = (
);
name = A;
org.robofab.postScriptHintData = {
};
position = 1580;
unicodes = (
);
width = 1357;
};
width = 1407;
},
{
anchors = (
{
name = top;
pos = (661,1487);
}
);
layerId = "A42FE7CC-127E-49DD-94F7-5A0AE28D570D";
shapes = (
{
closed = 1;
nodes = (
(193,0,l),
(318,368,l),
(1013,368,l),
(1138,0,l),
(1272,0,l),
(765,1485,l),
(561,1485,l),
(59,0,l)
);
},
{
closed = 1;
nodes = (
(664,1397,l),
(984,454,l),
(345,454,l)
);
}
);
userData = {
anchors = (
);
components = (
);
contours = (
);
name = A;
org.robofab.postScriptHintData = {
};
position = 1580;
unicodes = (
);
width = 1357;
};
width = 1334;
},
{
anchors = (
{
name = ogonek;
pos = (1209,0);
},
{
name = top;
pos = (662,1489);
}
);
layerId = "D923CF66-7FA1-4921-AD26-EF4ED3F99F75";
shapes = (
{
closed = 1;
nodes = (
(171,0,l),
(304,375,l),
(1034,375,l),
(1167,0,l),
(1258,0,l),
(731,1485,l),
(598,1485,l),
(80,0,l)
);
},
{
closed = 1;
nodes = (
(666,1419,l),
(1006,451,l),
(328,451,l)
);
}
);
userData = {
anchors = (
);
components = (
);
contours = (
);
name = A;
org.robofab.postScriptHintData = {
};
position = 1580;
unicodes = (
);
width = 1357;
};
width = 1337;
},
{
anchors = (
{
name = top;
pos = (735,1485);
}
);
layerId = "A385C2E8-1AD9-48CA-B23A-EC0EE376012C";
shapes = (
{
closed = 1;
nodes = (
(427,0,l),
(528,318,l),
(930,318,l),
(1031,0,l),
(1434,0,l),
(941,1485,l),
(518,1485,l),
(25,0,l)
);
},
{
closed = 1;
nodes = (
(737,1029,l),
(881,513,l),
(577,513,l)
);
}
);
userData = {
anchors = (
);
components = (
);
contours = (
);
name = A;
org.robofab.postScriptHintData = {
};
position = 1580;
unicodes = (
);
width = 1357;
};
width = 1458;
},
{
anchors = (
{
name = top;
pos = (675,1485);
}
);
layerId = "8D846C25-91DF-40AD-AD53-612095F39333";
shapes = (
{
closed = 1;
nodes = (
(257,0,l),
(370,352,l),
(980,352,l),
(1093,0,l),
(1316,0,l),
(827,1485,l),
(522,1485,l),
(35,0,l)
);
},
{
closed = 1;
nodes = (
(676,1306,l),
(945,467,l),
(405,467,l)
);
}
);
userData = {
anchors = (
);
components = (
);
contours = (
);
name = A;
org.robofab.postScriptHintData = {
};
position = 1580;
unicodes = (
);
width = 1357;
};
width = 1356;
},
{
anchors = (
{
name = top;
pos = (660,1485);
}
);
layerId = "F7888953-CE93-4976-8BE6-A29979B42D03";
shapes = (
{
closed = 1;
nodes = (
(214,0,l),
(331,361,l),
(992,361,l),
(1108,0,l),
(1286,0,l),
(799,1485,l),
(523,1485,l),
(37,0,l)
);
},
{
closed = 1;
nodes = (
(661,1375,l),
(961,456,l),
(362,456,l)
);
}
);
userData = {
anchors = (
);
components = (
);
contours = (
);
name = A;
org.robofab.postScriptHintData = {
};
position = 1580;
unicodes = (
);
width = 1357;
};
width = 1331;
},
{
anchors = (
{
name = top;
pos = (720,1485);
}
);
layerId = "DF6AE5EF-88F0-41AF-8A72-F8343FE6B5C8";
shapes = (
{
closed = 1;
nodes = (
(384,0,l),
(489,327,l),
(942,327,l),
(1046,0,l),
(1404,0,l),
(913,1485,l),
(519,1485,l),
(27,0,l)
);
},
{
closed = 1;
nodes = (
(722,1098,l),
(897,502,l),
(534,502,l)
);
}
);
userData = {
anchors = (
);
components = (
);
contours = (
);
name = A;
org.robofab.postScriptHintData = {
};
position = 1580;
unicodes = (
);
width = 1357;
};
width = 1433;
}
);
unicode = 65;
},
{
glyphname = B;
lastChange = "2024-06-14 12:24:57 +0000";
layers = (
{
anchors = (
{
name = top;
pos = (663,1485);
}
);
layerId = "67845082-4271-4E32-8C80-EE8FB13E39CE";
shapes = (
{
closed = 1;
nodes = (
(664,0,ls),
(986,0,o),
(1302,58,o),
(1302,431,cs),
(1302,670,o),
(1147,754,o),
(943,789,c),
(1115,812,o),
(1244,917,o),
(1244,1116,cs),
(1244,1471,o),
(914,1485,o),
(629,1485,cs),
(172,1485,l),
(172,0,l)
);
},
{
closed = 1;
nodes = (
(491,677,l),
(641,677,ls),
(825,677,o),
(994,661,o),
(994,437,cs),
(994,229,o),
(835,216,o),
(677,216,cs),
(660,216,o),
(551,217,o),
(491,217,c)
);
},
{
closed = 1;
nodes = (
(491,1269,l),
(635,1269,ls),
(782,1269,o),
(966,1274,o),
(966,1079,cs),
(966,896,o),
(785,874,o),
(641,874,cs),
(491,874,l)
);
}
);
userData = {
anchors = (
);
com.typemytype.robofont.layerData = {
b = {
anchors = (
);
components = (
);
contours = (
);
lib = {
};
name = B;
unicodes = (
);
width = 1286;
};
};
components = (
);
contours = (
);
name = B;
org.robofab.postScriptHintData = {
};
position = 1122;
unicodes = (
);
width = 1287;
};
width = 1406;
},
{
anchors = (
{
name = top;
pos = (649,1492);
}
);
layerId = "A42FE7CC-127E-49DD-94F7-5A0AE28D570D";
shapes = (
{
closed = 1;
nodes = (
(567,0,ls),
(884,0,o),
(1199,48,o),
(1199,410,cs),
(1199,658,o),
(1076,768,o),
(850,803,c),
(1025,840,o),
(1124,922,o),
(1124,1129,cs),
(1124,1477,o),
(800,1485,o),
(522,1485,cs),
(175,1485,l),
(175,0,l)
);
},
{
closed = 1;
nodes = (
(311,750,l),
(591,750,ls),
(828,750,o),
(1076,719,o),
(1076,431,cs),
(1076,113,o),
(815,109,o),
(560,109,cs),
(311,109,l)
);
},
{
closed = 1;
nodes = (
(311,1385,l),
(442,1385,o),
(539,1385,o),
(545,1385,cs),
(755,1385,o),
(1007,1379,o),
(1007,1136,cs),
(1007,876,o),
(801,849,o),
(590,849,cs),
(311,849,l)
);
}
);
userData = {
anchors = (
);
com.typemytype.robofont.layerData = {
b = {
anchors = (
);
components = (
);
contours = (
);
lib = {
};
name = B;
unicodes = (
);
width = 1286;
};
};
components = (
);
contours = (
);
name = B;
org.robofab.postScriptHintData = {
};
position = 1122;
unicodes = (
);
width = 1287;
};
width = 1322;
},
{
anchors = (
{
name = top;
pos = (636,1498);
}
);
layerId = "D923CF66-7FA1-4921-AD26-EF4ED3F99F75";
shapes = (
{
closed = 1;
nodes = (
(539,0,ls),
(887,0,o),
(1165,52,o),
(1165,411,cs),
(1165,658,o),
(1051,766,o),
(811,798,c),
(991,834,o),
(1092,924,o),
(1092,1139,cs),
(1092,1476,o),
(780,1485,o),
(503,1485,cs),
(168,1485,l),
(168,0,l)
);
},
{
closed = 1;
nodes = (
(260,761,l),
(571,761,ls),
(820,761,o),
(1086,724,o),
(1086,423,cs),
(1086,85,o),
(801,85,o),
(526,85,cs),
(260,85,l)
);
},
{
closed = 1;
nodes = (
(260,1415,l),
(524,1415,o),
(536,1415,o),
(547,1415,cs),
(786,1415,o),
(1010,1391,o),
(1010,1152,cs),
(1010,872,o),
(799,840,o),
(572,840,cs),
(260,840,l)
);
}
);
userData = {
anchors = (
);
com.typemytype.robofont.layerData = {
b = {
anchors = (
);
components = (
);
contours = (
);
lib = {
};
name = B;
unicodes = (
);
width = 1286;
};
};
components = (
);
contours = (
);
name = B;
org.robofab.postScriptHintData = {
};
position = 1122;
unicodes = (
);
width = 1287;
};
width = 1282;
},
{
anchors = (
{
name = top;
pos = (665,1485);
}
);
layerId = "A385C2E8-1AD9-48CA-B23A-EC0EE376012C";
shapes = (
{
closed = 1;
nodes = (
(711,0,ls),
(1056,0,o),
(1349,67,o),
(1349,445,cs),
(1349,678,o),
(1177,744,o),
(979,777,c),
(1152,790,o),
(1304,916,o),
(1304,1113,cs),
(1304,1466,o),
(977,1485,o),
(689,1485,cs),
(166,1485,l),
(166,0,l)
);
},
{
closed = 1;
nodes = (
(578,635,l),
(662,635,ls),
(817,635,o),
(946,626,o),
(946,436,cs),
(946,287,o),
(839,272,o),
(732,272,cs),
(705,272,o),
(678,273,o),
(578,273,c)
);
},
{
closed = 1;
nodes = (
(578,1212,l),
(696,1212,ls),
(820,1212,o),
(940,1212,o),
(940,1053,cs),
(940,907,o),
(773,885,o),
(664,885,cs),
(578,885,l)
);
}
);
userData = {
anchors = (
);
com.typemytype.robofont.layerData = {
b = {
anchors = (
);
components = (
);
contours = (
);
lib = {
};
name = B;
unicodes = (
);
width = 1286;
};
};
components = (
);
contours = (
);
name = B;
org.robofab.postScriptHintData = {
};
position = 1122;
unicodes = (
);
width = 1287;
};
width = 1435;
},
{
anchors = (
{
name = top;
pos = (662,1485);
}
);
layerId = "8D846C25-91DF-40AD-AD53-612095F39333";
shapes = (
{
closed = 1;
nodes = (
(617,0,ls),
(915,0,o),
(1255,49,o),
(1255,416,cs),
(1255,662,o),
(1116,765,o),
(906,801,c),
(1078,834,o),
(1185,918,o),
(1185,1118,cs),
(1185,1475,o),
(851,1485,o),
(570,1485,cs),
(178,1485,l),
(178,0,l)
);
},
{
closed = 1;
nodes = (
(404,718,l),
(620,718,ls),
(832,718,o),
(1041,696,o),
(1041,438,cs),
(1041,170,o),
(831,161,o),
(621,161,cs),
(615,161,o),
(424,161,o),
(404,161,c)
);
},
{
closed = 1;
nodes = (
(404,1326,l),
(574,1326,ls),
(743,1326,o),
(991,1335,o),
(991,1106,cs),
(991,885,o),
(797,863,o),
(618,863,cs),
(404,863,l)
);
}
);
userData = {
anchors = (
);
com.typemytype.robofont.layerData = {
b = {
anchors = (
);
components = (
);
contours = (
);
lib = {
};
name = B;
unicodes = (
);
width = 1286;
};
};
components = (
);
contours = (
);
name = B;
org.robofab.postScriptHintData = {
};
position = 1122;
unicodes = (
);
width = 1287;
};
width = 1377;
},
{
anchors = (
{
name = top;
pos = (661,1485);
}
);
layerId = "F7888953-CE93-4976-8BE6-A29979B42D03";
shapes = (
{
closed = 1;
nodes = (
(594,0,ls),
(880,0,o),
(1232,44,o),
(1232,409,cs),
(1232,658,o),
(1101,770,o),
(888,807,c),
(1059,845,o),
(1155,919,o),
(1155,1119,cs),
(1155,1477,o),
(820,1485,o),
(540,1485,cs),
(181,1485,l),
(181,0,l)
);
},
{
closed = 1;
nodes = (
(361,739,l),
(610,739,ls),
(836,739,o),
(1065,714,o),
(1065,438,cs),
(1065,141,o),
(829,133,o),
(593,133,cs),
(361,133,l)
);
},
{
closed = 1;
nodes = (
(361,1354,l),
(543,1354,ls),
(724,1354,o),
(1004,1366,o),
(1004,1119,cs),
(1004,880,o),
(803,858,o),
(607,858,cs),
(361,858,l)
);
}
);
userData = {
anchors = (
);
com.typemytype.robofont.layerData = {
b = {
anchors = (
);
components = (
);
contours = (
);
lib = {
};
name = B;
unicodes = (
);
width = 1286;
};
};
components = (
);
contours = (
);
name = B;
org.robofab.postScriptHintData = {
};
position = 1122;
unicodes = (
);
width = 1287;
};
width = 1362;
},
{
anchors = (
{
name = top;
pos = (664,1485);
}
);
layerId = "DF6AE5EF-88F0-41AF-8A72-F8343FE6B5C8";
shapes = (
{
closed = 1;
nodes = (
(688,0,ls),
(1021,0,o),
(1326,62,o),
(1326,438,cs),
(1326,674,o),
(1162,749,o),
(961,783,c),
(1133,801,o),
(1274,917,o),
(1274,1115,cs),
(1274,1468,o),
(946,1485,o),
(659,1485,cs),
(169,1485,l),
(169,0,l)
);
},
{
closed = 1;
nodes = (
(535,656,l),
(652,656,ls),
(821,656,o),
(970,644,o),
(970,436,cs),
(970,258,o),
(837,244,o),
(704,244,cs),
(683,244,o),
(614,245,o),
(535,245,c)
);
},
{
closed = 1;
nodes = (
(535,1240,l),
(665,1240,ls),
(801,1240,o),
(953,1243,o),
(953,1066,cs),
(953,902,o),
(779,880,o),
(653,880,cs),
(535,880,l)
);
}
);
userData = {
anchors = (
);
com.typemytype.robofont.layerData = {
b = {
anchors = (
);
components = (
);
contours = (
);
lib = {
};
name = B;
unicodes = (
);
width = 1286;
};
};
components = (
);
contours = (
);
name = B;
org.robofab.postScriptHintData = {
};
position = 1122;
unicodes = (
);
width = 1287;
};
width = 1420;
}
);
unicode = 66;
},
{
glyphname = C;
lastChange = "2024-06-14 12:24:57 +0000";
layers = (
{
anchors = (
{
name = bot;
pos = (741,-1);
},
{
name = top;
pos = (799,1484);
}
);
layerId = "67845082-4271-4E32-8C80-EE8FB13E39CE";
shapes = (
{
closed = 1;
nodes = (
(941,-20,o),
(1083,20,o),
(1212,88,c),
(1126,293,l),
(1046,250,o),
(951,220,o),
(855,220,cs),
(584,220,o),
(432,422,o),
(432,738,cs),
(432,1062,o),
(584,1269,o),
(858,1269,cs),
(954,1269,o),
(1051,1238,o),
(1125,1198,c),
(1210,1403,l),
(1104,1461,o),
(967,1505,o),
(816,1505,cs),
(407,1505,o),
(111,1244,o),
(111,745,cs),
(111,265,o),
(377,-20,o),
(793,-20,cs)
);
}
);
userData = {
anchors = (
);
components = (
);
contours = (
);
hhints = {
};
name = C;
org.robofab.postScriptHintData = {
};
position = 120;
unicodes = (
);
vhints = {
};
width = 1270;
};
width = 1279;
},
{
anchors = (
{
name = bot;
pos = (735,-4);
},
{
name = top;
pos = (758,1488);
}
);
layerId = "A42FE7CC-127E-49DD-94F7-5A0AE28D570D";
shapes = (
{
closed = 1;
nodes = (
(911,-21,o),
(1058,37,o),
(1161,104,c),
(1114,196,l),
(1024,142,o),
(905,89,o),
(759,89,cs),
(347,89,o),
(266,422,o),
(266,729,cs),
(266,1033,o),
(355,1395,o),
(767,1395,cs),
(916,1395,o),
(1034,1334,o),
(1082,1304,c),
(1127,1396,l),
(1068,1436,o),
(936,1505,o),
(767,1505,cs),
(296,1505,o),
(129,1149,o),
(129,732,cs),
(129,341,o),
(269,-21,o),
(757,-21,cs)
);
}
);
userData = {
anchors = (
);
components = (
);
contours = (
);
hhints = {
};
name = C;
org.robofab.postScriptHintData = {
};
position = 120;
unicodes = (
);
vhints = {
};
width = 1270;
};
width = 1228;
},
{
anchors = (
{
name = bot;
pos = (693,-4);
},
{
name = top;
pos = (725,1488);
}
);
layerId = "D923CF66-7FA1-4921-AD26-EF4ED3F99F75";
shapes = (
{
closed = 1;
nodes = (
(884,-21,o),
(1045,43,o),
(1136,108,c),
(1099,169,l),
(1013,116,o),
(898,58,o),
(730,58,cs),
(280,58,o),
(215,418,o),
(215,721,cs),
(215,1014,o),
(287,1426,o),
(739,1426,cs),
(914,1426,o),
(1032,1350,o),
(1061,1329,c),
(1095,1394,l),
(1055,1425,o),
(916,1505,o),
(740,1505,cs),
(265,1505,o),
(120,1122,o),
(120,722,cs),
(120,353,o),
(234,-21,o),
(734,-21,cs)
);
}
);
userData = {
anchors = (
);
components = (
);
contours = (
);
hhints = {
};
name = C;
org.robofab.postScriptHintData = {
};
position = 120;
unicodes = (
);
vhints = {
};
width = 1270;
};
width = 1207;
},
{
anchors = (
{
name = bot;
pos = (718,1);
},
{
name = top;
pos = (805,1482);
}
);
layerId = "A385C2E8-1AD9-48CA-B23A-EC0EE376012C";
shapes = (
{
closed = 1;
nodes = (
(944,-20,o),
(1091,13,o),
(1229,80,c),
(1125,341,l),
(1054,306,o),
(977,287,o),
(900,287,cs),
(698,287,o),
(509,420,o),
(509,738,cs),
(509,1070,o),
(692,1205,o),
(900,1205,cs),
(978,1205,o),
(1062,1185,o),
(1139,1145,c),
(1244,1407,l),
(1120,1470,o),
(975,1505,o),
(830,1505,cs),
(461,1505,o),
(93,1289,o),
(93,748,cs),
(93,223,o),
(426,-20,o),
(803,-20,cs)
);
}
);
userData = {
anchors = (
);
components = (
);
contours = (
);
hhints = {
};
name = C;
org.robofab.postScriptHintData = {
};
position = 120;
unicodes = (
);
vhints = {
};
width = 1270;
};
width = 1299;
},
{
anchors = (
{
name = bot;
pos = (764,-2);
},
{
name = top;
pos = (794,1487);
}
);
layerId = "8D846C25-91DF-40AD-AD53-612095F39333";
shapes = (
{
closed = 1;
nodes = (
(938,-20,o),
(1075,27,o),
(1195,96,c),
(1127,246,l),
(1038,195,o),
(925,153,o),
(810,153,cs),
(470,153,o),
(355,425,o),
(355,737,cs),
(355,1055,o),
(477,1332,o),
(815,1332,cs),
(930,1332,o),
(1040,1291,o),
(1110,1251,c),
(1175,1400,l),
(1088,1452,o),
(960,1505,o),
(801,1505,cs),
(354,1505,o),
(128,1199,o),
(128,742,cs),
(128,308,o),
(328,-20,o),
(784,-20,cs)
);
}
);
userData = {
anchors = (
);
components = (
);
contours = (
);
hhints = {
};
name = C;
org.robofab.postScriptHintData = {
};
position = 120;
unicodes = (
);
vhints = {
};
width = 1270;
};
width = 1258;
},
{
anchors = (
{
name = bot;
pos = (776,-3);
},
{
name = top;
pos = (791,1488);
}
);
layerId = "F7888953-CE93-4976-8BE6-A29979B42D03";
shapes = (
{
closed = 1;
nodes = (
(937,-20,o),
(1071,31,o),
(1186,100,c),
(1128,222,l),
(1034,167,o),
(912,120,o),
(787,120,cs),
(413,120,o),
(317,426,o),
(317,737,cs),
(317,1051,o),
(423,1364,o),
(794,1364,cs),
(918,1364,o),
(1035,1317,o),
(1103,1278,c),
(1158,1398,l),
(1080,1447,o),
(956,1505,o),
(794,1505,cs),
(327,1505,o),
(137,1176,o),
(137,741,cs),
(137,329,o),
(304,-20,o),
(779,-20,cs)
);
}
);
userData = {
anchors = (
);
components = (
);
contours = (
);
hhints = {
};
name = C;
org.robofab.postScriptHintData = {
};
position = 120;
unicodes = (
);
vhints = {
};
width = 1270;
};
width = 1248;
},
{
anchors = (
{
name = bot;
pos = (730,0);
},
{
name = top;
pos = (802,1483);
}
);
layerId = "DF6AE5EF-88F0-41AF-8A72-F8343FE6B5C8";
shapes = (
{
closed = 1;
nodes = (
(943,-20,o),
(1087,17,o),
(1220,84,c),
(1126,317,l),
(1050,278,o),
(964,254,o),
(877,254,cs),
(641,254,o),
(471,421,o),
(471,738,cs),
(471,1066,o),
(638,1237,o),
(879,1237,cs),
(966,1237,o),
(1057,1211,o),
(1132,1172,c),
(1227,1405,l),
(1112,1465,o),
(971,1505,o),
(823,1505,cs),
(434,1505,o),
(102,1266,o),
(102,747,cs),
(102,244,o),
(402,-20,o),
(798,-20,cs)
);
}
);
userData = {
anchors = (
);
components = (
);
contours = (
);
hhints = {
};
name = C;
org.robofab.postScriptHintData = {
};
position = 120;
unicodes = (
);
vhints = {
};
width = 1270;
};
width = 1289;
}
);
unicode = 67;
},
{
glyphname = D;
lastChange = "2024-06-14 12:24:57 +0000";
layers = (
{
anchors = (
{
name = top;
pos = (746,1485);
}
);
layerId = "67845082-4271-4E32-8C80-EE8FB13E39CE";
shapes = (
{
closed = 1;
nodes = (
(491,1265,l),
(651,1265,ls),
(998,1265,o),
(1101,1074,o),
(1101,741,cs),
(1101,408,o),
(999,222,o),
(651,222,cs),
(491,222,l)
);
},
{
closed = 1;
nodes = (
(673,0,ls),
(1160,0,o),
(1422,253,o),
(1422,739,cs),
(1422,1230,o),
(1169,1485,o),
(673,1485,cs),
(172,1485,l),
(172,0,l)
);
}
);
userData = {
anchors = (
);
com.typemytype.robofont.layerData = {
b = {
anchors = (
);
components = (
);
contours = (
);
lib = {
};
name = D;
unicodes = (
);
width = 1447;
};
};
components = (
);
contours = (
);
name = D;
org.robofab.postScriptHintData = {
};
position = 1197;
unicodes = (
);
width = 1418;
};
width = 1528;
},
{
anchors = (
{
name = top;
pos = (669,1487);
}
);
layerId = "A42FE7CC-127E-49DD-94F7-5A0AE28D570D";
shapes = (
{
closed = 1;
nodes = (
(311,1380,l),
(703,1380,ls),
(1066,1380,o),
(1153,1053,o),
(1153,743,cs),
(1153,430,o),
(1073,106,o),
(703,106,cs),
(311,106,l)
);
},
{
closed = 1;
nodes = (
(693,0,ls),
(1151,0,o),
(1289,341,o),
(1289,742,cs),
(1289,1142,o),
(1150,1485,o),
(693,1485,cs),
(175,1485,l),
(175,0,l)
);
}
);
userData = {
anchors = (
);
com.typemytype.robofont.layerData = {
b = {
anchors = (
);
components = (
);
contours = (
);
lib = {
};
name = D;
unicodes = (
);
width = 1447;
};
};
components = (
);
contours = (
);
name = D;
org.robofab.postScriptHintData = {
};
position = 1197;
unicodes = (
);
width = 1418;
};
width = 1417;
},
{
anchors = (
{
name = mid;
pos = (237,803);
},
{
name = top;
pos = (646,1489);
}
);
layerId = "D923CF66-7FA1-4921-AD26-EF4ED3F99F75";
shapes = (
{
closed = 1;
nodes = (
(260,1406,l),
(721,1406,ls),
(1080,1406,o),
(1170,1059,o),
(1170,742,cs),
(1170,423,o),
(1092,79,o),
(721,79,cs),
(260,79,l)
);
},
{
closed = 1;
nodes = (
(701,0,ls),
(1152,0,o),
(1263,361,o),
(1263,742,cs),
(1263,1120,o),
(1149,1485,o),
(701,1485,cs),
(168,1485,l),
(168,0,l)
);
}
);
userData = {
anchors = (
);
com.typemytype.robofont.layerData = {
b = {
anchors = (
);
components = (
);
contours = (
);
lib = {
};
name = D;
unicodes = (
);
width = 1447;
};
};
components = (
);
contours = (
);
name = D;
org.robofab.postScriptHintData = {
};
position = 1197;
unicodes = (
);
width = 1418;
};
width = 1382;
},
{
anchors = (
{
name = top;
pos = (782,1485);
}
);
layerId = "A385C2E8-1AD9-48CA-B23A-EC0EE376012C";
shapes = (
{
closed = 1;
nodes = (
(578,1206,l),
(628,1206,ls),
(962,1206,o),
(1078,1092,o),
(1078,740,cs),
(1078,388,o),
(963,281,o),
(628,281,cs),
(578,281,l)
);
},
{
closed = 1;
nodes = (
(665,0,ls),
(1168,0,o),
(1494,207,o),
(1494,737,cs),
(1494,1275,o),
(1181,1485,o),
(665,1485,cs),
(166,1485,l),
(166,0,l)
);
}
);
userData = {
anchors = (
);
com.typemytype.robofont.layerData = {
b = {
anchors = (
);
components = (
);
contours = (
);
lib = {
};
name = D;
unicodes = (
);
width = 1447;
};
};
components = (
);
contours = (
);
name = D;
org.robofab.postScriptHintData = {
};
position = 1197;
unicodes = (
);
width = 1418;
};
width = 1580;
},
{
anchors = (
{
name = top;
pos = (709,1485);
}
);
layerId = "8D846C25-91DF-40AD-AD53-612095F39333";
shapes = (
{
closed = 1;
nodes = (
(404,1324,l),
(674,1324,ls),
(1033,1324,o),
(1124,1056,o),
(1124,742,cs),
(1124,427,o),
(1036,163,o),
(674,163,cs),
(404,163,l)
);
},
{
closed = 1;
nodes = (
(680,0,ls),
(1153,0,o),
(1350,298,o),
(1350,741,cs),
(1350,1185,o),
(1156,1485,o),
(680,1485,cs),
(178,1485,l),
(178,0,l)
);
}
);
userData = {
anchors = (
);
com.typemytype.robofont.layerData = {
b = {
anchors = (
);
components = (
);
contours = (
);
lib = {
};
name = D;
unicodes = (
);
width = 1447;
};
};
components = (
);
contours = (
);
name = D;
org.robofab.postScriptHintData = {
};
position = 1197;
unicodes = (
);
width = 1418;
};
width = 1477;
},
{
anchors = (
{
name = top;
pos = (691,1485);
}
);
layerId = "F7888953-CE93-4976-8BE6-A29979B42D03";
shapes = (
{
closed = 1;
nodes = (
(361,1354,l),
(685,1354,ls),
(1051,1354,o),
(1136,1047,o),
(1136,743,cs),
(1136,437,o),
(1054,133,o),
(685,133,cs),
(361,133,l)
);
},
{
closed = 1;
nodes = (
(684,0,ls),
(1149,0,o),
(1314,321,o),
(1314,742,cs),
(1314,1163,o),
(1150,1485,o),
(684,1485,cs),
(181,1485,l),
(181,0,l)
);
}
);
userData = {
anchors = (
);
com.typemytype.robofont.layerData = {
b = {
anchors = (
);
components = (
);
contours = (
);
lib = {
};
name = D;
unicodes = (
);
width = 1447;
};
};
components = (
);
contours = (
);
name = D;
org.robofab.postScriptHintData = {
};
position = 1197;
unicodes = (
);
width = 1418;
};
width = 1451;
},
{
anchors = (
{
name = top;
pos = (764,1485);
}
);
layerId = "DF6AE5EF-88F0-41AF-8A72-F8343FE6B5C8";
shapes = (
{
closed = 1;
nodes = (
(535,1236,l),
(639,1236,ls),
(980,1236,o),
(1090,1083,o),
(1090,741,cs),
(1090,398,o),
(981,251,o),
(639,251,cs),
(535,251,l)
);
},
{
closed = 1;
nodes = (
(669,0,ls),
(1164,0,o),
(1458,230,o),
(1458,738,cs),
(1458,1253,o),
(1175,1485,o),
(669,1485,cs),
(169,1485,l),
(169,0,l)
);
}
);
userData = {
anchors = (
);
com.typemytype.robofont.layerData = {
b = {
anchors = (
);
components = (
);
contours = (
);
lib = {
};
name = D;
unicodes = (
);
width = 1447;
};
};
components = (
);
contours = (
);
name = D;
org.robofab.postScriptHintData = {
};
position = 1197;
unicodes = (
);
width = 1418;
};
width = 1554;
}
);
unicode = 68;
},
{
glyphname = E;
lastChange = "2024-06-14 12:24:57 +0000";
layers = (
{
anchors = (
{
name = bot;
pos = (717,0);
},
{
name = top;
pos = (685,1485);
}
);
layerId = "67845082-4271-4E32-8C80-EE8FB13E39CE";
shapes = (
{
closed = 1;
nodes = (
(1122,0,l),
(1122,233,l),
(491,233,l),
(491,664,l),
(1051,664,l),
(1051,864,l),
(491,864,l),
(491,1253,l),
(1131,1253,l),
(1131,1485,l),
(172,1485,l),
(172,0,l)
);
}
);
userData = {
anchors = (
);
com.typemytype.robofont.layerData = {
b = {
anchors = (
);
components = (
);
contours = (
);
lib = {
};
name = E;
unicodes = (
);
width = 1153;
};
};
components = (
);
contours = (
);
name = E;
org.robofab.postScriptHintData = {
};
position = 141;
unicodes = (
);
width = 1089;
};
width = 1232;
},
{
anchors = (
{
name = bot;
pos = (649,0);
},
{
name = top;
pos = (654,1487);
}
);
layerId = "A42FE7CC-127E-49DD-94F7-5A0AE28D570D";
shapes = (
{
closed = 1;
nodes = (
(1042,0,l),
(1042,106,l),
(311,106,l),
(311,725,l),
(943,725,l),
(943,823,l),
(311,823,l),
(311,1380,l),
(1055,1380,l),
(1055,1485,l),
(175,1485,l),
(175,0,l)
);
}
);
userData = {
anchors = (
);
com.typemytype.robofont.layerData = {
b = {
anchors = (
);
components = (
);
contours = (
);
lib = {
};
name = E;
unicodes = (
);
width = 1153;
};
};
components = (
);
contours = (
);
name = E;
org.robofab.postScriptHintData = {
};
position = 141;
unicodes = (
);
width = 1089;
};
width = 1157;
},
{
anchors = (
{
name = bot;
pos = (596,0);
},
{
name = ogonek;
pos = (772,0);
},
{
name = top;
pos = (618,1489);
}
);
layerId = "D923CF66-7FA1-4921-AD26-EF4ED3F99F75";
shapes = (
{
closed = 1;
nodes = (
(1014,0,l),
(1014,79,l),
(260,79,l),
(260,745,l),
(909,745,l),
(909,824,l),
(260,824,l),
(260,1407,l),
(1028,1407,l),
(1028,1485,l),
(168,1485,l),
(168,0,l)
);
}
);
userData = {
anchors = (
);
com.typemytype.robofont.layerData = {
b = {
anchors = (
);
components = (
);
contours = (
);
lib = {
};
name = E;
unicodes = (
);
width = 1153;
};
};
components = (
);
contours = (
);
name = E;
org.robofab.postScriptHintData = {
};
position = 141;
unicodes = (
);
width = 1089;
};
width = 1121;
},
{
anchors = (
{
name = bot;
pos = (727,0);
},
{
name = top;
pos = (682,1485);
}
);
layerId = "A385C2E8-1AD9-48CA-B23A-EC0EE376012C";
shapes = (
{
closed = 1;
nodes = (
(1158,0,l),
(1158,300,l),
(578,300,l),
(578,638,l),
(1101,638,l),
(1101,892,l),
(578,892,l),
(578,1187,l),
(1165,1187,l),
(1165,1485,l),
(166,1485,l),
(166,0,l)
);
}
);
userData = {
anchors = (
);
com.typemytype.robofont.layerData = {
b = {
anchors = (
);
components = (
);
contours = (
);
lib = {
};
name = E;
unicodes = (
);
width = 1153;
};
};
components = (
);
contours = (
);
name = E;
org.robofab.postScriptHintData = {
};
position = 141;
unicodes = (
);
width = 1089;
};
width = 1259;
},
{
anchors = (
{
name = bot;
pos = (707,0);
},
{
name = top;
pos = (688,1485);
}
);
layerId = "8D846C25-91DF-40AD-AD53-612095F39333";
shapes = (
{
closed = 1;
nodes = (
(1087,0,l),
(1087,166,l),
(404,166,l),
(404,691,l),
(1001,691,l),
(1001,836,l),
(404,836,l),
(404,1320,l),
(1098,1320,l),
(1098,1485,l),
(178,1485,l),
(178,0,l)
);
}
);
userData = {
anchors = (
);
com.typemytype.robofont.layerData = {
b = {
anchors = (
);
components = (
);
contours = (
);
lib = {
};
name = E;
unicodes = (
);
width = 1153;
};
};
components = (
);
contours = (
);
name = E;
org.robofab.postScriptHintData = {
};
position = 141;
unicodes = (
);
width = 1089;
};
width = 1205;
},
{
anchors = (
{
name = bot;
pos = (702,0);
},
{
name = top;
pos = (690,1485);
}
);
layerId = "F7888953-CE93-4976-8BE6-A29979B42D03";
shapes = (
{
closed = 1;
nodes = (
(1069,0,l),
(1069,133,l),
(361,133,l),
(361,704,l),
(976,704,l),
(976,822,l),
(361,822,l),
(361,1353,l),
(1081,1353,l),
(1081,1485,l),
(181,1485,l),
(181,0,l)
);
}
);
userData = {
anchors = (
);
com.typemytype.robofont.layerData = {
b = {
anchors = (
);
components = (
);
contours = (
);
lib = {
};
name = E;
unicodes = (
);
width = 1153;
};
};
components = (
);
contours = (
);
name = E;
org.robofab.postScriptHintData = {
};
position = 141;
unicodes = (
);
width = 1089;
};
width = 1192;
},
{
anchors = (
{
name = bot;
pos = (722,0);
},
{
name = top;
pos = (684,1485);
}
);
layerId = "DF6AE5EF-88F0-41AF-8A72-F8343FE6B5C8";
shapes = (
{
closed = 1;
nodes = (
(1140,0,l),
(1140,267,l),
(535,267,l),
(535,651,l),
(1076,651,l),
(1076,878,l),
(535,878,l),
(535,1220,l),
(1148,1220,l),
(1148,1485,l),
(169,1485,l),
(169,0,l)
);
}
);
userData = {
anchors = (
);
com.typemytype.robofont.layerData = {
b = {
anchors = (
);
components = (
);
contours = (
);
lib = {
};
name = E;
unicodes = (
);
width = 1153;
};
};
components = (
);
contours = (
);
name = E;
org.robofab.postScriptHintData = {
};
position = 141;
unicodes = (
);
width = 1089;
};
width = 1246;
}
);
unicode = 69;
},
{
glyphname = F;
lastChange = "2024-06-14 12:24:57 +0000";
layers = (
{
anchors = (
{
name = top;
pos = (695,1485);
}
);
layerId = "67845082-4271-4E32-8C80-EE8FB13E39CE";
shapes = (
{
closed = 1;
nodes = (
(491,0,l),
(491,635,l),
(1054,635,l),
(1054,831,l),
(491,831,l),
(491,1253,l),
(1104,1253,l),
(1104,1485,l),
(172,1485,l),
(172,0,l)
);
}
);
userData = {
anchors = (
);
com.typemytype.robofont.layerData = {
b = {
anchors = (
);
components = (
);
contours = (
);
lib = {
};
name = F;
unicodes = (
);
width = 1038;
};
};
components = (
);
contours = (
);
name = F;
org.robofab.postScriptHintData = {
};
position = 141;
unicodes = (
);
width = 1039;
};
width = 1177;
},
{
anchors = (
{
name = top;
pos = (618,1487);
}
);
layerId = "A42FE7CC-127E-49DD-94F7-5A0AE28D570D";
shapes = (
{
closed = 1;
nodes = (
(312,0,l),
(312,742,l),
(954,742,l),
(954,833,l),
(312,833,l),
(312,1385,l),
(997,1385,l),
(997,1485,l),
(175,1485,l),
(175,0,l)
);
}
);
userData = {
anchors = (
);
com.typemytype.robofont.layerData = {
b = {
anchors = (
);
components = (
);
contours = (
);
lib = {
};
name = F;
unicodes = (
);
width = 1038;
};
};
components = (
);
contours = (
);
name = F;
org.robofab.postScriptHintData = {
};
position = 141;
unicodes = (
);
width = 1039;
};
width = 1092;
},
{
anchors = (
{
name = top;
pos = (580,1489);
}
);
layerId = "D923CF66-7FA1-4921-AD26-EF4ED3F99F75";
shapes = (
{
closed = 1;
nodes = (
(260,0,l),
(260,766,l),
(928,766,l),
(928,839,l),
(260,839,l),
(260,1415,l),
(957,1415,l),
(957,1485,l),
(168,1485,l),
(168,0,l)
);
}
);
userData = {
anchors = (
);
com.typemytype.robofont.layerData = {
b = {
anchors = (
);
components = (
);
contours = (
);
lib = {
};
name = F;
unicodes = (
);
width = 1038;
};
};
components = (
);
contours = (
);
name = F;
org.robofab.postScriptHintData = {
};
position = 141;
unicodes = (
);
width = 1039;
};
width = 1028;
},
{
anchors = (
{
name = top;
pos = (722,1485);
}
);
layerId = "A385C2E8-1AD9-48CA-B23A-EC0EE376012C";
shapes = (
{
closed = 1;
nodes = (
(576,0,l),
(576,580,l),
(1104,580,l),
(1104,833,l),
(576,833,l),
(576,1186,l),
(1149,1186,l),
(1149,1485,l),
(166,1485,l),
(166,0,l)
);
}
);
userData = {
anchors = (
);
com.typemytype.robofont.layerData = {
b = {
anchors = (
);
components = (
);
contours = (
);
lib = {
};
name = F;
unicodes = (
);
width = 1038;
};
};
components = (
);
contours = (
);
name = F;
org.robofab.postScriptHintData = {
};
position = 141;
unicodes = (
);
width = 1039;
};
width = 1192;
},
{
anchors = (
{
name = top;
pos = (668,1485);
}
);
layerId = "8D846C25-91DF-40AD-AD53-612095F39333";
shapes = (
{
closed = 1;
nodes = (
(406,0,l),
(406,690,l),
(1005,690,l),
(1005,828,l),
(406,828,l),
(406,1320,l),
(1059,1320,l),
(1059,1485,l),
(178,1485,l),
(178,0,l)
);
}
);
userData = {
anchors = (
);
com.typemytype.robofont.layerData = {
b = {
anchors = (
);
components = (
);
contours = (
);
lib = {
};
name = F;
unicodes = (
);
width = 1038;
};
};
components = (
);
contours = (
);
name = F;
org.robofab.postScriptHintData = {
};
position = 141;
unicodes = (
);
width = 1039;
};
width = 1162;
},
{
anchors = (
{
name = top;
pos = (655,1485);
}
);
layerId = "F7888953-CE93-4976-8BE6-A29979B42D03";
shapes = (
{
closed = 1;
nodes = (
(363,0,l),
(363,718,l),
(980,718,l),
(980,827,l),
(363,827,l),
(363,1354,l),
(1037,1354,l),
(1037,1485,l),
(181,1485,l),
(181,0,l)
);
}
);
userData = {
anchors = (
);
com.typemytype.robofont.layerData = {
b = {
anchors = (
);
components = (
);
contours = (
);
lib = {
};
name = F;
unicodes = (
);
width = 1038;
};
};
components = (
);
contours = (
);
name = F;
org.robofab.postScriptHintData = {
};
position = 141;
unicodes = (
);
width = 1039;
};
width = 1155;
},
{
anchors = (
{
name = top;
pos = (709,1485);
}
);
layerId = "DF6AE5EF-88F0-41AF-8A72-F8343FE6B5C8";
shapes = (
{
closed = 1;
nodes = (
(533,0,l),
(533,608,l),
(1079,608,l),
(1079,832,l),
(533,832,l),
(533,1220,l),
(1127,1220,l),
(1127,1485,l),
(169,1485,l),
(169,0,l)
);
}
);
userData = {
anchors = (
);
com.typemytype.robofont.layerData = {
b = {
anchors = (
);
components = (
);
contours = (
);
lib = {
};
name = F;
unicodes = (
);
width = 1038;
};
};
components = (
);
contours = (
);
name = F;
org.robofab.postScriptHintData = {
};
position = 141;
unicodes = (
);
width = 1039;
};
width = 1185;
}
);
unicode = 70;
},
{
glyphname = G;
lastChange = "2024-06-14 12:24:57 +0000";
layers = (
{
anchors = (
{
name = bot;
pos = (777,-1);
}
);
layerId = "67845082-4271-4E32-8C80-EE8FB13E39CE";
shapes = (
{
closed = 1;
nodes = (
(919,-20,o),
(1072,55,o),
(1106,166,c),
(1153,0,l),
(1337,0,l),
(1337,818,l),
(795,818,l),
(795,623,l),
(1071,623,l),
(1071,330,l),
(1028,245,o),
(912,209,o),
(803,209,cs),
(542,209,o),
(432,395,o),
(432,727,cs),
(432,1070,o),
(546,1275,o),
(829,1275,cs),
(966,1275,o),
(1087,1231,o),
(1187,1171,c),
(1276,1375,l),
(1138,1453,o),
(981,1505,o),
(813,1505,cs),
(395,1505,o),
(111,1249,o),
(111,729,cs),
(111,275,o),
(347,-20,o),
(741,-20,cs)
);
}
);
userData = {
anchors = (
);
components = (
);
contours = (
);
hhints = {
};
name = G;
org.robofab.postScriptHintData = {
};
points = (
);
position = 1303;
segmentType = line;
unicodes = (
);
vhints = {
};
width = 1411;
};
width = 1489;
},
{
anchors = (
{
name = bot;
pos = (757,-4);
}
);
layerId = "A42FE7CC-127E-49DD-94F7-5A0AE28D570D";
shapes = (
{
closed = 1;
nodes = (
(932,-21,o),
(1101,49,o),
(1156,178,c),
(1192,-2,l),
(1257,-2,l),
(1257,756,l),
(741,756,l),
(741,662,l),
(1129,662,l),
(1129,357,l),
(1129,179,o),
(961,89,o),
(753,89,cs),
(338,89,o),
(266,418,o),
(266,743,cs),
(266,1034,o),
(353,1395,o),
(759,1395,cs),
(914,1395,o),
(1061,1341,o),
(1130,1293,c),
(1178,1387,l),
(1092,1438,o),
(946,1505,o),
(761,1505,cs),
(295,1505,o),
(129,1144,o),
(129,745,cs),
(129,347,o),
(275,-21,o),
(731,-21,cs)
);
}
);
userData = {
anchors = (
);
components = (
);
contours = (
);
hhints = {
};
name = G;
org.robofab.postScriptHintData = {
};
points = (
);
position = 1303;
segmentType = line;
unicodes = (
);
vhints = {
};
width = 1411;
};
width = 1416;
},
{
anchors = (
{
name = bot;
pos = (746,-4);
}
);
layerId = "D923CF66-7FA1-4921-AD26-EF4ED3F99F75";
shapes = (
{
closed = 1;
nodes = (
(960,-21,o),
(1081,68,o),
(1143,160,c),
(1165,-4,l),
(1214,-4,l),
(1214,749,l),
(732,749,l),
(732,679,l),
(1129,679,l),
(1129,343,ls),
(1129,167,o),
(970,58,o),
(731,58,cs),
(286,58,o),
(215,414,o),
(215,749,cs),
(215,1024,o),
(299,1425,o),
(730,1425,cs),
(924,1425,o),
(1075,1352,o),
(1126,1316,c),
(1159,1382,l),
(1113,1418,o),
(945,1505,o),
(731,1505,cs),
(269,1505,o),
(120,1121,o),
(120,749,cs),
(120,330,o),
(253,-21,o),
(731,-21,cs)
);
}
);
userData = {
anchors = (
);
components = (
);
contours = (
);
hhints = {
};
name = G;
org.robofab.postScriptHintData = {
};
points = (
);
position = 1303;
segmentType = line;
unicodes = (
);
vhints = {
};
width = 1411;
};
width = 1359;
},
{
anchors = (
{
name = bot;
pos = (784,1);
}
);
layerId = "A385C2E8-1AD9-48CA-B23A-EC0EE376012C";
shapes = (
{
closed = 1;
nodes = (
(930,-20,o),
(1040,72,o),
(1064,147,c),
(1109,0,l),
(1363,0,l),
(1363,855,l),
(825,855,l),
(825,609,l),
(1032,609,l),
(1032,303,l),
(961,281,o),
(886,268,o),
(823,268,cs),
(643,268,o),
(509,377,o),
(509,721,cs),
(509,1088,o),
(640,1216,o),
(857,1216,cs),
(1008,1216,o),
(1114,1166,o),
(1223,1106,c),
(1329,1364,l),
(1183,1450,o),
(1004,1505,o),
(828,1505,cs),
(444,1505,o),
(93,1303,o),
(93,722,cs),
(93,215,o),
(381,-20,o),
(748,-20,cs)
);
}
);
userData = {
anchors = (
);
components = (
);
contours = (
);
hhints = {
};
name = G;
org.robofab.postScriptHintData = {
};
points = (
);
position = 1303;
segmentType = line;
unicodes = (
);
vhints = {
};
width = 1411;
};
width = 1501;
},
{
anchors = (
{
name = bot;
pos = (770,-2);
}
);
layerId = "8D846C25-91DF-40AD-AD53-612095F39333";
shapes = (
{
closed = 1;
nodes = (
(908,-20,o),
(1105,38,o),
(1148,185,c),
(1196,0,l),
(1312,0,l),
(1312,781,l),
(765,781,l),
(765,638,l),
(1110,638,l),
(1110,357,l),
(1095,208,o),
(939,150,o),
(784,150,cs),
(441,150,o),
(355,413,o),
(355,733,cs),
(355,1053,o),
(453,1334,o),
(802,1334,cs),
(924,1334,o),
(1060,1296,o),
(1152,1236,c),
(1223,1386,l),
(1093,1456,o),
(958,1505,o),
(798,1505,cs),
(346,1505,o),
(128,1194,o),
(128,736,cs),
(128,334,o),
(313,-20,o),
(734,-20,cs)
);
}
);
userData = {
anchors = (
);
components = (
);
contours = (
);
hhints = {
};
name = G;
org.robofab.postScriptHintData = {
};
points = (
);
position = 1303;
segmentType = line;
unicodes = (
);
vhints = {
};
width = 1411;
};
width = 1478;
},
{
anchors = (
{
name = bot;
pos = (767,-3);
}
);
layerId = "F7888953-CE93-4976-8BE6-A29979B42D03";
shapes = (
{
closed = 1;
nodes = (
(903,-20,o),
(1121,30,o),
(1169,195,c),
(1218,0,l),
(1299,0,l),
(1299,762,l),
(750,762,l),
(750,645,l),
(1129,645,l),
(1129,371,l),
(1129,190,o),
(952,120,o),
(774,120,cs),
(390,120,o),
(317,422,o),
(317,736,cs),
(317,1044,o),
(406,1364,o),
(788,1364,cs),
(903,1364,o),
(1047,1329,o),
(1134,1269,c),
(1196,1391,l),
(1071,1458,o),
(946,1505,o),
(790,1505,cs),
(321,1505,o),
(137,1167,o),
(137,740,cs),
(137,364,o),
(296,-20,o),
(731,-20,cs)
);
}
);
userData = {
anchors = (
);
components = (
);
contours = (
);
hhints = {
};
name = G;
org.robofab.postScriptHintData = {
};
points = (
);
position = 1303;
segmentType = line;
unicodes = (
);
vhints = {
};
width = 1411;
};
width = 1472;
},
{
anchors = (
{
name = bot;
pos = (781,0);
}
);
layerId = "DF6AE5EF-88F0-41AF-8A72-F8343FE6B5C8";
shapes = (
{
closed = 1;
nodes = (
(925,-20,o),
(1056,64,o),
(1085,157,c),
(1131,0,l),
(1350,0,l),
(1350,836,l),
(810,836,l),
(810,616,l),
(1051,616,l),
(1051,317,l),
(995,263,o),
(899,238,o),
(813,238,cs),
(592,238,o),
(471,386,o),
(471,724,cs),
(471,1079,o),
(593,1246,o),
(843,1246,cs),
(987,1246,o),
(1101,1198,o),
(1205,1139,c),
(1302,1369,l),
(1161,1452,o),
(992,1505,o),
(820,1505,cs),
(419,1505,o),
(102,1276,o),
(102,726,cs),
(102,245,o),
(364,-20,o),
(745,-20,cs)
);
}
);
userData = {
anchors = (
);
components = (
);
contours = (
);
hhints = {
};
name = G;
org.robofab.postScriptHintData = {
};
points = (
);
position = 1303;
segmentType = line;
unicodes = (
);
vhints = {
};
width = 1411;
};
width = 1495;
}
);
unicode = 71;
},
{
glyphname = H;
lastChange = "2024-06-14 12:24:57 +0000";
layers = (
{
anchors = (
{
name = top;
pos = (791,1485);
}
);
layerId = "67845082-4271-4E32-8C80-EE8FB13E39CE";
shapes = (
{
closed = 1;
nodes = (
(491,0,l),
(491,669,l),
(1062,669,l),
(1062,0,l),
(1381,0,l),
(1381,1485,l),
(1062,1485,l),
(1062,874,l),
(491,874,l),
(491,1485,l),
(172,1485,l),
(172,0,l)
);
}
);
userData = {
anchors = (
);
com.typemytype.robofont.layerData = {
b = {
anchors = (
);
components = (
);
contours = (
);
lib = {
};
name = H;
unicodes = (
);
width = 1497;
};
};
components = (
);
contours = (
);
hhints = {
};
name = H;
org.robofab.postScriptHintData = {
};
points = (
);
position = 1218;
segmentType = line;
unicodes = (
);
vhints = {
};
width = 1459;
x = 260;
y = 0;
};
width = 1553;
},
{
anchors = (
{
name = top;
pos = (738,1487);
}
);
layerId = "A42FE7CC-127E-49DD-94F7-5A0AE28D570D";
shapes = (
{
closed = 1;
nodes = (
(311,0,l),
(311,721,l),
(1148,721,l),
(1148,0,l),
(1283,0,l),
(1283,1485,l),
(1148,1485,l),
(1148,824,l),
(311,824,l),
(311,1485,l),
(175,1485,l),
(175,0,l)
);
}
);
userData = {
anchors = (
);
com.typemytype.robofont.layerData = {
b = {
anchors = (
);
components = (
);
contours = (
);
lib = {
};
name = H;
unicodes = (
);
width = 1497;
};
};
components = (
);
contours = (
);
hhints = {
};
name = H;
org.robofab.postScriptHintData = {
};
points = (
);
position = 1218;
segmentType = line;
unicodes = (
);
vhints = {
};
width = 1459;
x = 260;
y = 0;
};
width = 1458;
},
{
anchors = (
{
name = top;
pos = (721,1489);
}
);
layerId = "D923CF66-7FA1-4921-AD26-EF4ED3F99F75";
shapes = (
{
closed = 1;
nodes = (
(260,0,l),
(260,735,l),
(1148,735,l),
(1148,0,l),
(1240,0,l),
(1240,1485,l),
(1148,1485,l),
(1148,808,l),
(260,808,l),
(260,1485,l),
(168,1485,l),
(168,0,l)
);
}
);
userData = {
anchors = (
);
com.typemytype.robofont.layerData = {
b = {
anchors = (
);
components = (
);
contours = (
);
lib = {
};
name = H;
unicodes = (
);
width = 1497;
};
};
components = (
);
contours = (
);
hhints = {
};
name = H;
org.robofab.postScriptHintData = {
};
points = (
);
position = 1218;
segmentType = line;
unicodes = (
);
vhints = {
};
width = 1459;
x = 260;
y = 0;
};
width = 1408;
},
{
anchors = (
{
name = top;
pos = (815,1485);
}
);
layerId = "A385C2E8-1AD9-48CA-B23A-EC0EE376012C";
shapes = (
{
closed = 1;
nodes = (
(578,0,l),
(578,644,l),
(1006,644,l),
(1006,0,l),
(1418,0,l),
(1418,1485,l),
(1006,1485,l),
(1006,898,l),
(578,898,l),
(578,1485,l),
(166,1485,l),
(166,0,l)
);
}
);
userData = {
anchors = (
);
com.typemytype.robofont.layerData = {
b = {
anchors = (
);
components = (
);
contours = (
);
lib = {
};
name = H;
unicodes = (
);
width = 1497;
};
};
components = (
);
contours = (
);
hhints = {
};
name = H;
org.robofab.postScriptHintData = {
};
points = (
);
position = 1218;
segmentType = line;
unicodes = (
);
vhints = {
};
width = 1459;
x = 260;
y = 0;
};
width = 1584;
},
{
anchors = (
{
name = top;
pos = (767,1485);
}
);
layerId = "8D846C25-91DF-40AD-AD53-612095F39333";
shapes = (
{
closed = 1;
nodes = (
(404,0,l),
(404,694,l),
(1119,694,l),
(1119,0,l),
(1344,0,l),
(1344,1485,l),
(1119,1485,l),
(1119,851,l),
(404,851,l),
(404,1485,l),
(178,1485,l),
(178,0,l)
);
}
);
userData = {
anchors = (
);
com.typemytype.robofont.layerData = {
b = {
anchors = (
);
components = (
);
contours = (
);
lib = {
};
name = H;
unicodes = (
);
width = 1497;
};
};
components = (
);
contours = (
);
hhints = {
};
name = H;
org.robofab.postScriptHintData = {
};
points = (
);
position = 1218;
segmentType = line;
unicodes = (
);
vhints = {
};
width = 1459;
x = 260;
y = 0;
};
width = 1522;
},
{
anchors = (
{
name = top;
pos = (755,1485);
}
);
layerId = "F7888953-CE93-4976-8BE6-A29979B42D03";
shapes = (
{
closed = 1;
nodes = (
(361,0,l),
(361,707,l),
(1147,707,l),
(1147,0,l),
(1325,0,l),
(1325,1485,l),
(1147,1485,l),
(1147,839,l),
(361,839,l),
(361,1485,l),
(181,1485,l),
(181,0,l)
);
}
);
userData = {
anchors = (
);
com.typemytype.robofont.layerData = {
b = {
anchors = (
);
components = (
);
contours = (
);
lib = {
};
name = H;
unicodes = (
);
width = 1497;
};
};
components = (
);
contours = (
);
hhints = {
};
name = H;
org.robofab.postScriptHintData = {
};
points = (
);
position = 1218;
segmentType = line;
unicodes = (
);
vhints = {
};
width = 1459;
x = 260;
y = 0;
};
width = 1507;
},
{
anchors = (
{
name = top;
pos = (803,1485);
}
);
layerId = "DF6AE5EF-88F0-41AF-8A72-F8343FE6B5C8";
shapes = (
{
closed = 1;
nodes = (
(535,0,l),
(535,657,l),
(1034,657,l),
(1034,0,l),
(1399,0,l),
(1399,1485,l),
(1034,1485,l),
(1034,886,l),
(535,886,l),
(535,1485,l),
(169,1485,l),
(169,0,l)
);
}
);
userData = {
anchors = (
);
com.typemytype.robofont.layerData = {
b = {
anchors = (
);
components = (
);
contours = (
);
lib = {
};
name = H;
unicodes = (
);
width = 1497;
};
};
components = (
);
contours = (
);
hhints = {
};
name = H;
org.robofab.postScriptHintData = {
};
points = (
);
position = 1218;
segmentType = line;
unicodes = (
);
vhints = {
};
width = 1459;
x = 260;
y = 0;
};
width = 1569;
}
);
unicode = 72;
},
{
glyphname = I;
lastChange = "2024-06-14 12:24:57 +0000";
layers = (
{
anchors = (
{
name = top;
pos = (478,1485);
}
);
layerId = "67845082-4271-4E32-8C80-EE8FB13E39CE";
shapes = (
{
closed = 1;
nodes = (
(806,0,l),
(806,204,l),
(632,204,l),
(632,1280,l),
(806,1280,l),
(806,1485,l),
(144,1485,l),
(144,1280,l),
(317,1280,l),
(317,204,l),
(144,204,l),
(144,0,l)
);
}
);
userData = {
anchors = (
);
com.typemytype.robofont.layerData = {
b = {
anchors = (
);
components = (
);
contours = (
);
lib = {
};
name = I;
unicodes = (
);
width = 732;
};
};
components = (
);
contours = (
);
name = I;
org.robofab.postScriptHintData = {
};
position = 324;
unicodes = (
);
width = 733;
};
width = 953;
},
{
anchors = (
{
name = top;
pos = (422,1487);
}
);
layerId = "A42FE7CC-127E-49DD-94F7-5A0AE28D570D";
shapes = (
{
closed = 1;
nodes = (
(673,0,l),
(673,80,l),
(477,80,l),
(477,1403,l),
(673,1403,l),
(673,1485,l),
(148,1485,l),
(148,1403,l),
(347,1403,l),
(347,80,l),
(148,80,l),
(148,0,l)
);
}
);
userData = {
anchors = (
);
com.typemytype.robofont.layerData = {
b = {
anchors = (
);
components = (
);
contours = (
);
lib = {
};
name = I;
unicodes = (
);
width = 732;
};
};
components = (
);
contours = (
);
name = I;
org.robofab.postScriptHintData = {
};
position = 324;
unicodes = (
);
width = 733;
};
width = 825;
},
{
anchors = (
{
name = ogonek;
pos = (365,0);
},
{
name = top;
pos = (358,1489);
}
);
layerId = "D923CF66-7FA1-4921-AD26-EF4ED3F99F75";
shapes = (
{
closed = 1;
nodes = (
(598,0,l),
(598,56,l),
(400,56,l),
(400,1429,l),
(598,1429,l),
(598,1485,l),
(103,1485,l),
(103,1429,l),
(309,1429,l),
(309,56,l),
(103,56,l),
(103,0,l)
);
}
);
userData = {
anchors = (
);
com.typemytype.robofont.layerData = {
b = {
anchors = (
);
components = (
);
contours = (
);
lib = {
};
name = I;
unicodes = (
);
width = 732;
};
};
components = (
);
contours = (
);
name = I;
org.robofab.postScriptHintData = {
};
position = 324;
unicodes = (
);
width = 733;
};
width = 701;
},
{
anchors = (
{
name = top;
pos = (474,1485);
}
);
layerId = "A385C2E8-1AD9-48CA-B23A-EC0EE376012C";
shapes = (
{
closed = 1;
nodes = (
(845,0,l),
(845,272,l),
(684,272,l),
(684,1215,l),
(845,1215,l),
(845,1485,l),
(112,1485,l),
(112,1215,l),
(272,1215,l),
(272,272,l),
(112,272,l),
(112,0,l)
);
}
);
userData = {
anchors = (
);
com.typemytype.robofont.layerData = {
b = {
anchors = (
);
components = (
);
contours = (
);
lib = {
};
name = I;
unicodes = (
);
width = 732;
};
};
components = (
);
contours = (
);
name = I;
org.robofab.postScriptHintData = {
};
position = 324;
unicodes = (
);
width = 733;
};
width = 956;
},
{
anchors = (
{
name = top;
pos = (483,1485);
}
);
layerId = "8D846C25-91DF-40AD-AD53-612095F39333";
shapes = (
{
closed = 1;
nodes = (
(767,0,l),
(767,137,l),
(580,137,l),
(580,1345,l),
(767,1345,l),
(767,1485,l),
(177,1485,l),
(177,1345,l),
(362,1345,l),
(362,137,l),
(177,137,l),
(177,0,l)
);
}
);
userData = {
anchors = (
);
com.typemytype.robofont.layerData = {
b = {
anchors = (
);
components = (
);
contours = (
);
lib = {
};
name = I;
unicodes = (
);
width = 732;
};
};
components = (
);
contours = (
);
name = I;
org.robofab.postScriptHintData = {
};
position = 324;
unicodes = (
);
width = 733;
};
width = 950;
},
{
anchors = (
{
name = top;
pos = (485,1485);
}
);
layerId = "F7888953-CE93-4976-8BE6-A29979B42D03";
shapes = (
{
closed = 1;
nodes = (
(748,0,l),
(748,103,l),
(554,103,l),
(554,1377,l),
(748,1377,l),
(748,1485,l),
(193,1485,l),
(193,1377,l),
(385,1377,l),
(385,103,l),
(193,103,l),
(193,0,l)
);
}
);
userData = {
anchors = (
);
com.typemytype.robofont.layerData = {
b = {
anchors = (
);
components = (
);
contours = (
);
lib = {
};
name = I;
unicodes = (
);
width = 732;
};
};
components = (
);
contours = (
);
name = I;
org.robofab.postScriptHintData = {
};
position = 324;
unicodes = (
);
width = 733;
};
width = 948;
},
{
anchors = (
{
name = top;
pos = (476,1485);
}
);
layerId = "DF6AE5EF-88F0-41AF-8A72-F8343FE6B5C8";
shapes = (
{
closed = 1;
nodes = (
(826,0,l),
(826,238,l),
(658,238,l),
(658,1247,l),
(826,1247,l),
(826,1485,l),
(128,1485,l),
(128,1247,l),
(295,1247,l),
(295,238,l),
(128,238,l),
(128,0,l)
);
}
);
userData = {
anchors = (
);
com.typemytype.robofont.layerData = {
b = {
anchors = (
);
components = (
);
contours = (
);
lib = {
};
name = I;
unicodes = (
);
width = 732;
};
};
components = (
);
contours = (
);
name = I;
org.robofab.postScriptHintData = {
};
position = 324;
unicodes = (
);
width = 733;
};
width = 954;
}
);
unicode = 73;
},
{
glyphname = J;
lastChange = "2024-06-14 12:24:57 +0000";
layers = (
{
anchors = (
{
name = top;
pos = (495,1485);
}
);
layerId = "67845082-4271-4E32-8C80-EE8FB13E39CE";
shapes = (
{
closed = 1;
nodes = (
(485,-243,o),
(648,-71,o),
(648,323,cs),
(648,1485,l),
(328,1485,l),
(328,325,ls),
(328,70,o),
(267,-7,o),
(30,-43,c),
(87,-264,l)
);
}
);
userData = {
anchors = (
);
com.typemytype.robofont.layerData = {
b = {
anchors = (
);
components = (
);
contours = (
);
lib = {
};
name = J;
unicodes = (
);
width = 633;
};
};
components = (
);
contours = (
);
hhints = {
};
name = J;
org.robofab.postScriptHintData = {
};
position = 396;
unicodes = (
);
vhints = {
};
width = 634;
};
width = 830;
},
{
anchors = (
{
name = top;
pos = (439,1485);
}
);
layerId = "A42FE7CC-127E-49DD-94F7-5A0AE28D570D";
shapes = (
{
closed = 1;
nodes = (
(464,-144,o),
(509,17,o),
(509,325,cs),
(508,1485,l),
(372,1485,l),
(372,324,ls),
(372,56,o),
(364,-31,o),
(73,-71,c),
(87,-181,l)
);
}
);
userData = {
anchors = (
);
com.typemytype.robofont.layerData = {
b = {
anchors = (
);
components = (
);
contours = (
);
lib = {
};
name = J;
unicodes = (
);
width = 633;
};
};
components = (
);
contours = (
);
hhints = {
};
name = J;
org.robofab.postScriptHintData = {
};
position = 396;
unicodes = (
);
vhints = {
};
width = 634;
};
width = 694;
},
{
anchors = (
{
name = top;
pos = (417,1485);
}
);
layerId = "D923CF66-7FA1-4921-AD26-EF4ED3F99F75";
shapes = (
{
closed = 1;
nodes = (
(421,-213,o),
(463,-88,o),
(463,204,cs),
(461,1485,l),
(369,1485,l),
(369,206,ls),
(369,-69,o),
(358,-138,o),
(67,-175,c),
(84,-250,l)
);
}
);
userData = {
anchors = (
);
com.typemytype.robofont.layerData = {
b = {
anchors = (
);
components = (
);
contours = (
);
lib = {
};
name = J;
unicodes = (
);
width = 633;
};
};
components = (
);
contours = (
);
hhints = {
};
name = J;
org.robofab.postScriptHintData = {
};
position = 396;
unicodes = (
);
vhints = {
};
width = 634;
};
width = 627;
},
{
anchors = (
{
name = top;
pos = (517,1485);
}
);
layerId = "A385C2E8-1AD9-48CA-B23A-EC0EE376012C";
shapes = (
{
closed = 1;
nodes = (
(470,-355,o),
(710,-200,o),
(710,241,cs),
(710,1485,l),
(296,1485,l),
(296,247,ls),
(296,-4,o),
(199,-62,o),
(-2,-94,c),
(85,-366,l)
);
}
);
userData = {
anchors = (
);
com.typemytype.robofont.layerData = {
b = {
anchors = (
);
components = (
);
contours = (
);
lib = {
};
name = J;
unicodes = (
);
width = 633;
};
};
components = (
);
contours = (
);
hhints = {
};
name = J;
org.robofab.postScriptHintData = {
};
position = 396;
unicodes = (
);
vhints = {
};
width = 634;
};
width = 876;
},
{
anchors = (
{
name = top;
pos = (472,1485);
}
);
layerId = "8D846C25-91DF-40AD-AD53-612095F39333";
shapes = (
{
closed = 1;
nodes = (
(500,-130,o),
(585,58,o),
(585,404,cs),
(585,1485,l),
(359,1485,l),
(359,402,ls),
(359,144,o),
(335,48,o),
(63,8,c),
(89,-163,l)
);
}
);
userData = {
anchors = (
);
com.typemytype.robofont.layerData = {
b = {
anchors = (
);
components = (
);
contours = (
);
lib = {
};
name = J;
unicodes = (
);
width = 633;
};
};
components = (
);
contours = (
);
hhints = {
};
name = J;
org.robofab.postScriptHintData = {
};
position = 396;
unicodes = (
);
vhints = {
};
width = 634;
};
width = 784;
},
{
anchors = (
{
name = top;
pos = (461,1485);
}
);
layerId = "F7888953-CE93-4976-8BE6-A29979B42D03";
shapes = (
{
closed = 1;
nodes = (
(507,-74,o),
(554,122,o),
(554,445,cs),
(554,1485,l),
(375,1485,l),
(375,441,ls),
(375,181,o),
(369,76,o),
(79,33,c),
(90,-112,l)
);
}
);
userData = {
anchors = (
);
com.typemytype.robofont.layerData = {
b = {
anchors = (
);
components = (
);
contours = (
);
lib = {
};
name = J;
unicodes = (
);
width = 633;
};
};
components = (
);
contours = (
);
hhints = {
};
name = J;
org.robofab.postScriptHintData = {
};
position = 396;
unicodes = (
);
vhints = {
};
width = 634;
};
width = 761;
},
{
anchors = (
{
name = top;
pos = (506,1485);
}
);
layerId = "DF6AE5EF-88F0-41AF-8A72-F8343FE6B5C8";
shapes = (
{
closed = 1;
nodes = (
(477,-299,o),
(679,-136,o),
(679,282,cs),
(679,1485,l),
(312,1485,l),
(312,286,ls),
(312,33,o),
(233,-34,o),
(14,-69,c),
(86,-315,l)
);
}
);
userData = {
anchors = (
);
com.typemytype.robofont.layerData = {
b = {
anchors = (
);
components = (
);
contours = (
);
lib = {
};
name = J;
unicodes = (
);
width = 633;
};
};
components = (
);
contours = (
);
hhints = {
};
name = J;
org.robofab.postScriptHintData = {
};
position = 396;
unicodes = (
);
vhints = {
};
width = 634;
};
width = 853;
}
);
unicode = 74;
},
{
glyphname = K;
lastChange = "2024-06-14 12:24:57 +0000";
layers = (
{
anchors = (
{
name = bot;
pos = (732,0);
},
{
name = top;
pos = (727,1485);
}
);
layerId = "67845082-4271-4E32-8C80-EE8FB13E39CE";
shapes = (
{
closed = 1;
nodes = (
(491,0,l),
(491,664,l),
(517,664,l),
(1019,0,l),
(1398,0,l),
(819,749,l),
(1363,1485,l),
(1010,1485,l),
(517,833,l),
(491,833,l),
(491,1485,l),
(172,1485,l),
(172,0,l)
);
}
);
userData = {
anchors = (
);
com.typemytype.robofont.layerData = {
b = {
anchors = (
);
components = (
);
contours = (
);
lib = {
};
name = K;
unicodes = (
);
width = 1197;
};
};
components = (
);
contours = (
);
name = K;
org.robofab.postScriptHintData = {
};
position = 141;
unicodes = (
);
width = 1198;
};
width = 1391;
},
{
anchors = (
{
name = bot;
pos = (635,0);
},
{
name = top;
pos = (629,1487);
}
);
layerId = "A42FE7CC-127E-49DD-94F7-5A0AE28D570D";
shapes = (
{
closed = 1;
nodes = (
(311,0,l),
(311,715,l),
(358,715,l),
(1042,0,l),
(1207,0,l),
(478,765,l),
(1158,1485,l),
(1007,1485,l),
(351,806,l),
(311,806,l),
(311,1485,l),
(175,1485,l),
(175,0,l)
);
}
);
userData = {
anchors = (
);
com.typemytype.robofont.layerData = {
b = {
anchors = (
);
components = (
);
contours = (
);
lib = {
};
name = K;
unicodes = (
);
width = 1197;
};
};
components = (
);
contours = (
);
name = K;
org.robofab.postScriptHintData = {
};
position = 141;
unicodes = (
);
width = 1198;
};
width = 1235;
},
{
anchors = (
{
name = bot;
pos = (605,0);
},
{
name = top;
pos = (581,1489);
}
);
layerId = "D923CF66-7FA1-4921-AD26-EF4ED3F99F75";
shapes = (
{
closed = 1;
nodes = (
(260,0,l),
(260,725,l),
(315,725,l),
(1042,0,l),
(1155,0,l),
(398,763,l),
(1103,1485,l),
(997,1485,l),
(310,789,l),
(260,789,l),
(260,1485,l),
(168,1485,l),
(168,0,l)
);
}
);
userData = {
anchors = (
);
com.typemytype.robofont.layerData = {
b = {
anchors = (
);
components = (
);
contours = (
);
lib = {
};
name = K;
unicodes = (
);
width = 1197;
};
};
components = (
);
contours = (
);
name = K;
org.robofab.postScriptHintData = {
};
position = 141;
unicodes = (
);
width = 1198;
};
width = 1188;
},
{
anchors = (
{
name = bot;
pos = (776,0);
},
{
name = top;
pos = (760,1485);
}
);
layerId = "A385C2E8-1AD9-48CA-B23A-EC0EE376012C";
shapes = (
{
closed = 1;
nodes = (
(578,0,l),
(578,638,l),
(595,638,l),
(1004,0,l),
(1491,0,l),
(993,737,l),
(1463,1485,l),
(1006,1485,l),
(601,841,l),
(578,841,l),
(578,1485,l),
(166,1485,l),
(166,0,l)
);
}
);
userData = {
anchors = (
);
com.typemytype.robofont.layerData = {
b = {
anchors = (
);
components = (
);
contours = (
);
lib = {
};
name = K;
unicodes = (
);
width = 1197;
};
};
components = (
);
contours = (
);
name = K;
org.robofab.postScriptHintData = {
};
position = 141;
unicodes = (
);
width = 1198;
};
width = 1463;
},
{
anchors = (
{
name = bot;
pos = (687,0);
},
{
name = top;
pos = (694,1485);
}
);
layerId = "8D846C25-91DF-40AD-AD53-612095F39333";
shapes = (
{
closed = 1;
nodes = (
(404,0,l),
(404,691,l),
(440,691,l),
(1034,0,l),
(1305,0,l),
(644,760,l),
(1262,1485,l),
(1015,1485,l),
(434,826,l),
(404,826,l),
(404,1485,l),
(178,1485,l),
(178,0,l)
);
}
);
userData = {
anchors = (
);
com.typemytype.robofont.layerData = {
b = {
anchors = (
);
components = (
);
contours = (
);
lib = {
};
name = K;
unicodes = (
);
width = 1197;
};
};
components = (
);
contours = (
);
name = K;
org.robofab.postScriptHintData = {
};
position = 141;
unicodes = (
);
width = 1198;
};
width = 1318;
},
{
anchors = (
{
name = bot;
pos = (665,0);
},
{
name = top;
pos = (677,1485);
}
);
layerId = "F7888953-CE93-4976-8BE6-A29979B42D03";
shapes = (
{
closed = 1;
nodes = (
(361,0,l),
(361,704,l),
(401,704,l),
(1042,0,l),
(1258,0,l),
(557,766,l),
(1212,1485,l),
(1017,1485,l),
(392,822,l),
(361,822,l),
(361,1485,l),
(181,1485,l),
(181,0,l)
);
}
);
userData = {
anchors = (
);
com.typemytype.robofont.layerData = {
b = {
anchors = (
);
components = (
);
contours = (
);
lib = {
};
name = K;
unicodes = (
);
width = 1197;
};
};
components = (
);
contours = (
);
name = K;
org.robofab.postScriptHintData = {
};
position = 141;
unicodes = (
);
width = 1198;
};
width = 1282;
},
{
anchors = (
{
name = bot;
pos = (754,0);
},
{
name = top;
pos = (743,1485);
}
);
layerId = "DF6AE5EF-88F0-41AF-8A72-F8343FE6B5C8";
shapes = (
{
closed = 1;
nodes = (
(535,0,l),
(535,651,l),
(556,651,l),
(1012,0,l),
(1444,0,l),
(906,743,l),
(1413,1485,l),
(1008,1485,l),
(559,837,l),
(535,837,l),
(535,1485,l),
(169,1485,l),
(169,0,l)
);
}
);
userData = {
anchors = (
);
com.typemytype.robofont.layerData = {
b = {
anchors = (
);
components = (
);
contours = (
);
lib = {
};
name = K;
unicodes = (
);
width = 1197;
};
};
components = (
);
contours = (
);
name = K;
org.robofab.postScriptHintData = {
};
position = 141;
unicodes = (
);
width = 1198;
};
width = 1427;
}
);
unicode = 75;
},
{
glyphname = L;
lastChange = "2024-06-14 12:24:57 +0000";
layers = (
{
anchors = (
{
name = bot;
pos = (647,0);
},
{
name = caron.alt;
pos = (480,1098);
},
{
name = top;
pos = (365,1485);
}
);
layerId = "67845082-4271-4E32-8C80-EE8FB13E39CE";
shapes = (
{
closed = 1;
nodes = (
(1098,0,l),
(1098,232,l),
(491,232,l),
(491,1485,l),
(172,1485,l),
(172,0,l)
);
}
);
userData = {
anchors = (
);
com.typemytype.robofont.layerData = {
b = {
anchors = (
);
components = (
);
contours = (
);
lib = {
};
name = L;
unicodes = (
);
width = 1115;
};
};
components = (
);
contours = (
);
name = L;
org.robofab.postScriptHintData = {
};
position = 141;
unicodes = (
);
width = 1116;
};
width = 1118;
},
{
anchors = (
{
name = bot;
pos = (628,0);
},
{
name = caron.alt;
pos = (369,1097);
},
{
name = top;
pos = (260,1485);
}
);
layerId = "A42FE7CC-127E-49DD-94F7-5A0AE28D570D";
shapes = (
{
closed = 1;
nodes = (
(1043,0,l),
(1043,102,l),
(311,102,l),
(311,1485,l),
(175,1485,l),
(175,0,l)
);
}
);
userData = {
anchors = (
);
com.typemytype.robofont.layerData = {
b = {
anchors = (
);
components = (
);
contours = (
);
lib = {
};
name = L;
unicodes = (
);
width = 1115;
};
};
components = (
);
contours = (
);
name = L;
org.robofab.postScriptHintData = {
};
position = 141;
unicodes = (
);
width = 1116;
};
width = 1082;
},
{
anchors = (
{
name = bot;
pos = (605,0);
},
{
name = caron.alt;
pos = (373,1096);
},
{
name = mid;
pos = (216,813);
},
{
name = top;
pos = (222,1485);
}
);
layerId = "D923CF66-7FA1-4921-AD26-EF4ED3F99F75";
shapes = (
{
closed = 1;
nodes = (
(1022,0,l),
(1022,71,l),
(260,71,l),
(260,1485,l),
(168,1485,l),
(168,0,l)
);
}
);
userData = {
anchors = (
);
com.typemytype.robofont.layerData = {
b = {
anchors = (
);
components = (
);
contours = (
);
lib = {
};
name = L;
unicodes = (
);
width = 1115;
};
};
components = (
);
contours = (
);
name = L;
org.robofab.postScriptHintData = {
};
position = 141;
unicodes = (
);
width = 1116;
};
width = 1078;
},
{
anchors = (
{
name = bot;
pos = (644,0);
},
{
name = caron.alt;
pos = (558,1098);
},
{
name = top;
pos = (410,1485);
}
);
layerId = "A385C2E8-1AD9-48CA-B23A-EC0EE376012C";
shapes = (
{
closed = 1;
nodes = (
(1121,0,l),
(1121,299,l),
(577,299,l),
(577,1485,l),
(166,1485,l),
(166,0,l)
);
}
);
userData = {
anchors = (
);
com.typemytype.robofont.layerData = {
b = {
anchors = (
);
components = (
);
contours = (
);
lib = {
};
name = L;
unicodes = (
);
width = 1115;
};
};
components = (
);
contours = (
);
name = L;
org.robofab.postScriptHintData = {
};
position = 141;
unicodes = (
);
width = 1116;
};
width = 1140;
},
{
anchors = (
{
name = bot;
pos = (650,0);
},
{
name = caron.alt;
pos = (403,1098);
},
{
name = top;
pos = (320,1485);
}
);
layerId = "8D846C25-91DF-40AD-AD53-612095F39333";
shapes = (
{
closed = 1;
nodes = (
(1075,0,l),
(1075,165,l),
(404,165,l),
(404,1485,l),
(178,1485,l),
(178,0,l)
);
}
);
userData = {
anchors = (
);
com.typemytype.robofont.layerData = {
b = {
anchors = (
);
components = (
);
contours = (
);
lib = {
};
name = L;
unicodes = (
);
width = 1115;
};
};
components = (
);
contours = (
);
name = L;
org.robofab.postScriptHintData = {
};
position = 141;
unicodes = (
);
width = 1116;
};
width = 1097;
},
{
anchors = (
{
name = bot;
pos = (651,0);
},
{
name = caron.alt;
pos = (364,1098);
},
{
name = top;
pos = (298,1485);
}
);
layerId = "F7888953-CE93-4976-8BE6-A29979B42D03";
shapes = (
{
closed = 1;
nodes = (
(1064,0,l),
(1064,132,l),
(361,132,l),
(361,1485,l),
(181,1485,l),
(181,0,l)
);
}
);
userData = {
anchors = (
);
com.typemytype.robofont.layerData = {
b = {
anchors = (
);
components = (
);
contours = (
);
lib = {
};
name = L;
unicodes = (
);
width = 1115;
};
};
components = (
);
contours = (
);
name = L;
org.robofab.postScriptHintData = {
};
position = 141;
unicodes = (
);
width = 1116;
};
width = 1086;
},
{
anchors = (
{
name = bot;
pos = (645,0);
},
{
name = caron.alt;
pos = (519,1098);
},
{
name = top;
pos = (388,1485);
}
);
layerId = "DF6AE5EF-88F0-41AF-8A72-F8343FE6B5C8";
shapes = (
{
closed = 1;
nodes = (
(1110,0,l),
(1110,266,l),
(534,266,l),
(534,1485,l),
(169,1485,l),
(169,0,l)
);
}
);
userData = {
anchors = (
);
com.typemytype.robofont.layerData = {
b = {
anchors = (
);
components = (
);
contours = (
);
lib = {
};
name = L;
unicodes = (
);
width = 1115;
};
};
components = (
);
contours = (
);
name = L;
org.robofab.postScriptHintData = {
};
position = 141;
unicodes = (
);
width = 1116;
};
width = 1129;
}
);
unicode = 76;
},
{
glyphname = M;
lastChange = "2024-06-14 12:24:57 +0000";
layers = (
{
anchors = (
{
name = top;
pos = (954,1485);
}
);
layerId = "67845082-4271-4E32-8C80-EE8FB13E39CE";
shapes = (
{
closed = 1;
nodes = (
(439,0,l),
(439,1052,l),
(810,42,l),
(1090,42,l),
(1458,1052,l),
(1458,0,l),
(1725,0,l),
(1725,1485,l),
(1354,1485,l),
(943,398,l),
(541,1485,l),
(172,1485,l),
(172,0,l)
);
}
);
userData = {
anchors = (
);
com.typemytype.robofont.layerData = {
b = {
anchors = (
);
components = (
);
contours = (
);
lib = {
};
name = M;
unicodes = (
);
width = 1775;
};
};
components = (
);
contours = (
);
name = M;
org.robofab.postScriptHintData = {
};
points = (
);
position = 1497;
segmentType = line;
unicodes = (
);
width = 1739;
x = 263;
y = 0;
};
width = 1896;
},
{
anchors = (
{
name = top;
pos = (860,1487);
}
);
layerId = "A42FE7CC-127E-49DD-94F7-5A0AE28D570D";
shapes = (
{
closed = 1;
nodes = (
(301,0,l),
(301,1313,l),
(821,123,l),
(912,123,l),
(1429,1316,l),
(1429,0,l),
(1554,0,l),
(1554,1485,l),
(1378,1485,l),
(868,290,l),
(350,1485,l),
(175,1485,l),
(175,0,l)
);
}
);
userData = {
anchors = (
);
com.typemytype.robofont.layerData = {
b = {
anchors = (
);
components = (
);
contours = (
);
lib = {
};
name = M;
unicodes = (
);
width = 1775;
};
};
components = (
);
contours = (
);
name = M;
org.robofab.postScriptHintData = {
};
points = (
);
position = 1497;
segmentType = line;
unicodes = (
);
width = 1739;
x = 263;
y = 0;
};
width = 1729;
},
{
anchors = (
{
name = top;
pos = (814,1489);
}
);
layerId = "D923CF66-7FA1-4921-AD26-EF4ED3F99F75";
shapes = (
{
closed = 1;
nodes = (
(260,0,l),
(260,1362,l),
(804,139,l),
(870,139,l),
(1399,1367,l),
(1399,0,l),
(1490,0,l),
(1490,1485,l),
(1360,1485,l),
(835,271,l),
(295,1485,l),
(168,1485,l),
(168,0,l)
);
}
);
userData = {
anchors = (
);
com.typemytype.robofont.layerData = {
b = {
anchors = (
);
components = (
);
contours = (
);
lib = {
};
name = M;
unicodes = (
);
width = 1775;
};
};
components = (
);
contours = (
);
name = M;
org.robofab.postScriptHintData = {
};
points = (
);
position = 1497;
segmentType = line;
unicodes = (
);
width = 1739;
x = 263;
y = 0;
};
width = 1658;
},
{
anchors = (
{
name = top;
pos = (987,1485);
}
);
layerId = "A385C2E8-1AD9-48CA-B23A-EC0EE376012C";
shapes = (
{
closed = 1;
nodes = (
(504,0,l),
(504,910,l),
(791,0,l),
(1181,0,l),
(1458,910,l),
(1458,0,l),
(1796,0,l),
(1796,1485,l),
(1327,1485,l),
(972,458,l),
(633,1485,l),
(166,1485,l),
(166,0,l)
);
}
);
userData = {
anchors = (
);
com.typemytype.robofont.layerData = {
b = {
anchors = (
);
components = (
);
contours = (
);
lib = {
};
name = M;
unicodes = (
);
width = 1775;
};
};
components = (
);
contours = (
);
name = M;
org.robofab.postScriptHintData = {
};
points = (
);
position = 1497;
segmentType = line;
unicodes = (
);
width = 1739;
x = 263;
y = 0;
};
width = 1961;
},
{
anchors = (
{
name = top;
pos = (921,1485);
}
);
layerId = "8D846C25-91DF-40AD-AD53-612095F39333";
shapes = (
{
closed = 1;
nodes = (
(374,0,l),
(374,1193,l),
(829,85,l),
(999,85,l),
(1458,1193,l),
(1458,0,l),
(1654,0,l),
(1654,1485,l),
(1381,1485,l),
(914,338,l),
(450,1485,l),
(178,1485,l),
(178,0,l)
);
}
);
userData = {
anchors = (
);
com.typemytype.robofont.layerData = {
b = {
anchors = (
);
components = (
);
contours = (
);
lib = {
};
name = M;
unicodes = (
);
width = 1775;
};
};
components = (
);
contours = (
);
name = M;
org.robofab.postScriptHintData = {
};
points = (
);
position = 1497;
segmentType = line;
unicodes = (
);
width = 1739;
x = 263;
y = 0;
};
width = 1831;
},
{
anchors = (
{
name = top;
pos = (905,1485);
}
);
layerId = "F7888953-CE93-4976-8BE6-A29979B42D03";
shapes = (
{
closed = 1;
nodes = (
(342,0,l),
(342,1264,l),
(838,106,l),
(954,106,l),
(1458,1264,l),
(1458,0,l),
(1618,0,l),
(1618,1485,l),
(1395,1485,l),
(900,308,l),
(404,1485,l),
(181,1485,l),
(181,0,l)
);
}
);
userData = {
anchors = (
);
com.typemytype.robofont.layerData = {
b = {
anchors = (
);
components = (
);
contours = (
);
lib = {
};
name = M;
unicodes = (
);
width = 1775;
};
};
components = (
);
contours = (
);
name = M;
org.robofab.postScriptHintData = {
};
points = (
);
position = 1497;
segmentType = line;
unicodes = (
);
width = 1739;
x = 263;
y = 0;
};
width = 1799;
},
{
anchors = (
{
name = top;
pos = (971,1485);
}
);
layerId = "DF6AE5EF-88F0-41AF-8A72-F8343FE6B5C8";
shapes = (
{
closed = 1;
nodes = (
(472,0,l),
(472,981,l),
(800,21,l),
(1136,21,l),
(1458,981,l),
(1458,0,l),
(1760,0,l),
(1760,1485,l),
(1341,1485,l),
(958,428,l),
(587,1485,l),
(169,1485,l),
(169,0,l)
);
}
);
userData = {
anchors = (
);
com.typemytype.robofont.layerData = {
b = {
anchors = (
);
components = (
);
contours = (
);
lib = {
};
name = M;
unicodes = (
);
width = 1775;
};
};
components = (
);
contours = (
);
name = M;
org.robofab.postScriptHintData = {
};
points = (
);
position = 1497;
segmentType = line;
unicodes = (
);
width = 1739;
x = 263;
y = 0;
};
width = 1929;
}
);
unicode = 77;
},
{
glyphname = N;
lastChange = "2024-06-14 12:24:57 +0000";
layers = (
{
anchors = (
{
name = bot;
pos = (832,0);
},
{
name = top;
pos = (816,1485);
}
);
layerId = "67845082-4271-4E32-8C80-EE8FB13E39CE";
shapes = (
{
closed = 1;
nodes = (
(456,0,l),
(456,1066,l),
(1076,0,l),
(1415,0,l),
(1415,1485,l),
(1132,1485,l),
(1132,434,l),
(521,1485,l),
(172,1485,l),
(172,0,l)
);
}
);
userData = {
anchors = (
);
components = (
);
contours = (
);
name = N;
org.robofab.postScriptHintData = {
};
position = 1263;
unicodes = (
);
width = 1492;
};
width = 1587;
},
{
anchors = (
{
name = bot;
pos = (779,0);
},
{
name = top;
pos = (787,1487);
}
);
layerId = "A42FE7CC-127E-49DD-94F7-5A0AE28D570D";
shapes = (
{
closed = 1;
nodes = (
(297,0,l),
(297,1365,l),
(1141,0,l),
(1330,0,l),
(1330,1485,l),
(1207,1485,l),
(1207,119,l),
(360,1485,l),
(175,1485,l),
(175,0,l)
);
}
);
userData = {
anchors = (
);
components = (
);
contours = (
);
name = N;
org.robofab.postScriptHintData = {
};
position = 1263;
unicodes = (
);
width = 1492;
};
width = 1504;
},
{
anchors = (
{
name = bot;
pos = (783,0);
},
{
name = top;
pos = (786,1489);
}
);
layerId = "D923CF66-7FA1-4921-AD26-EF4ED3F99F75";
shapes = (
{
closed = 1;
nodes = (
(254,0,l),
(254,1405,l),
(1165,0,l),
(1301,0,l),
(1301,1485,l),
(1215,1485,l),
(1215,77,l),
(297,1485,l),
(168,1485,l),
(168,0,l)
);
}
);
userData = {
anchors = (
);
components = (
);
contours = (
);
name = N;
org.robofab.postScriptHintData = {
};
position = 1263;
unicodes = (
);
width = 1492;
};
width = 1468;
},
{
anchors = (
{
name = bot;
pos = (870,0);
},
{
name = top;
pos = (835,1485);
}
);
layerId = "A385C2E8-1AD9-48CA-B23A-EC0EE376012C";
shapes = (
{
closed = 1;
nodes = (
(534,0,l),
(534,894,l),
(1050,0,l),
(1453,0,l),
(1453,1485,l),
(1088,1485,l),
(1088,616,l),
(587,1485,l),
(166,1485,l),
(166,0,l)
);
}
);
userData = {
anchors = (
);
components = (
);
contours = (
);
name = N;
org.robofab.postScriptHintData = {
};
position = 1263;
unicodes = (
);
width = 1492;
};
width = 1619;
},
{
anchors = (
{
name = bot;
pos = (793,0);
},
{
name = top;
pos = (797,1485);
}
);
layerId = "8D846C25-91DF-40AD-AD53-612095F39333";
shapes = (
{
closed = 1;
nodes = (
(379,0,l),
(379,1238,l),
(1103,0,l),
(1377,0,l),
(1377,1485,l),
(1177,1485,l),
(1177,252,l),
(456,1485,l),
(178,1485,l),
(178,0,l)
);
}
);
userData = {
anchors = (
);
components = (
);
contours = (
);
name = N;
org.robofab.postScriptHintData = {
};
position = 1263;
unicodes = (
);
width = 1492;
};
width = 1555;
},
{
anchors = (
{
name = bot;
pos = (774,0);
},
{
name = top;
pos = (787,1485);
}
);
layerId = "F7888953-CE93-4976-8BE6-A29979B42D03";
shapes = (
{
closed = 1;
nodes = (
(340,0,l),
(340,1324,l),
(1116,0,l),
(1358,0,l),
(1358,1485,l),
(1199,1485,l),
(1199,161,l),
(423,1485,l),
(181,1485,l),
(181,0,l)
);
}
);
userData = {
anchors = (
);
components = (
);
contours = (
);
name = N;
org.robofab.postScriptHintData = {
};
position = 1263;
unicodes = (
);
width = 1492;
};
width = 1539;
},
{
anchors = (
{
name = bot;
pos = (851,0);
},
{
name = top;
pos = (825,1485);
}
);
layerId = "DF6AE5EF-88F0-41AF-8A72-F8343FE6B5C8";
shapes = (
{
closed = 1;
nodes = (
(495,0,l),
(495,980,l),
(1063,0,l),
(1434,0,l),
(1434,1485,l),
(1110,1485,l),
(1110,525,l),
(554,1485,l),
(169,1485,l),
(169,0,l)
);
}
);
userData = {
anchors = (
);
components = (
);
contours = (
);
name = N;
org.robofab.postScriptHintData = {
};
position = 1263;
unicodes = (
);
width = 1492;
};
width = 1603;
}
);
unicode = 78;
},
{
glyphname = O;
lastChange = "2024-06-14 12:24:57 +0000";
layers = (
{
anchors = (
{
name = top;
pos = (784,1484);
}
);
layerId = "67845082-4271-4E32-8C80-EE8FB13E39CE";
shapes = (
{
closed = 1;
nodes = (
(501,206,o),
(432,453,o),
(432,743,cs),
(432,1033,o),
(501,1275,o),
(774,1275,cs),
(1047,1275,o),
(1117,1034,o),
(1117,743,cs),
(1117,458,o),
(1050,206,o),
(774,206,cs)
);
},
{
closed = 1;
nodes = (
(1234,-20,o),
(1438,277,o),
(1438,743,cs),
(1438,1217,o),
(1226,1505,o),
(774,1505,cs),
(325,1505,o),
(111,1217,o),
(111,743,cs),
(111,277,o),
(315,-20,o),
(774,-20,cs)
);
}
);
userData = {
anchors = (
);
components = (
);
contours = (
);
hhints = {
};
name = O;
org.robofab.postScriptHintData = {
};
position = 1269;
unicodes = (
);
vhints = {
};
width = 1488;
};
width = 1548;
},
{
anchors = (
{
name = top;
pos = (728,1478);
}
);
layerId = "A42FE7CC-127E-49DD-94F7-5A0AE28D570D";
shapes = (
{
closed = 1;
nodes = (
(346,89,o),
(266,433,o),
(266,741,cs),
(266,1048,o),
(346,1385,o),
(727,1385,cs),
(1108,1385,o),
(1188,1049,o),
(1188,741,cs),
(1188,433,o),
(1106,89,o),
(727,89,cs)
);
},
{
closed = 1;
nodes = (
(1178,-21,o),
(1326,349,o),
(1326,741,cs),
(1326,1138,o),
(1180,1495,o),
(727,1495,cs),
(278,1495,o),
(129,1128,o),
(129,741,cs),
(129,349,o),
(276,-21,o),
(727,-21,cs)
);
}
);
userData = {
anchors = (
);
components = (
);
contours = (
);
hhints = {
};
name = O;
org.robofab.postScriptHintData = {
};
position = 1269;
unicodes = (
);
vhints = {
};
width = 1488;
};
width = 1454;
},
{
anchors = (
{
name = ogonek;
pos = (785,-4);
},
{
name = top;
pos = (704,1468);
}
);
layerId = "D923CF66-7FA1-4921-AD26-EF4ED3F99F75";
shapes = (
{
closed = 1;
nodes = (
(302,58,o),
(215,430,o),
(215,743,cs),
(215,1058,o),
(302,1406,o),
(702,1406,cs),
(1101,1406,o),
(1188,1058,o),
(1188,743,cs),
(1188,430,o),
(1101,58,o),
(702,58,cs)
);
},
{
closed = 1;
nodes = (
(1153,-21,o),
(1284,373,o),
(1284,743,cs),
(1284,1115,o),
(1153,1485,o),
(702,1485,cs),
(250,1485,o),
(120,1115,o),
(120,743,cs),
(120,373,o),
(250,-21,o),
(702,-21,cs)
);
}
);
userData = {
anchors = (
);
components = (
);
contours = (
);
hhints = {
};
name = O;
org.robofab.postScriptHintData = {
};
position = 1269;
unicodes = (
);
vhints = {
};
width = 1488;
};
width = 1403;
},
{
anchors = (
{
name = top;
pos = (805,1482);
}
);
layerId = "A385C2E8-1AD9-48CA-B23A-EC0EE376012C";
shapes = (
{
closed = 1;
nodes = (
(575,263,o),
(508,464,o),
(508,747,cs),
(508,1030,o),
(575,1216,o),
(790,1216,cs),
(1003,1216,o),
(1070,1031,o),
(1070,747,cs),
(1070,473,o),
(1009,263,o),
(790,263,cs)
);
},
{
closed = 1;
nodes = (
(1255,-20,o),
(1486,246,o),
(1486,747,cs),
(1486,1255,o),
(1239,1505,o),
(790,1505,cs),
(338,1505,o),
(93,1268,o),
(93,747,cs),
(93,246,o),
(323,-20,o),
(790,-20,cs)
);
}
);
userData = {
anchors = (
);
components = (
);
contours = (
);
hhints = {
};
name = O;
org.robofab.postScriptHintData = {
};
position = 1269;
unicodes = (
);
vhints = {
};
width = 1488;
};
width = 1578;
},
{
anchors = (
{
name = top;
pos = (763,1487);
}
);
layerId = "8D846C25-91DF-40AD-AD53-612095F39333";
shapes = (
{
closed = 1;
nodes = (
(426,149,o),
(355,442,o),
(355,740,cs),
(355,1036,o),
(426,1334,o),
(759,1334,cs),
(1092,1334,o),
(1164,1037,o),
(1164,740,cs),
(1164,443,o),
(1091,149,o),
(759,149,cs)
);
},
{
closed = 1;
nodes = (
(1213,-20,o),
(1391,308,o),
(1391,740,cs),
(1391,1180,o),
(1213,1505,o),
(759,1505,cs),
(312,1505,o),
(128,1166,o),
(128,740,cs),
(128,308,o),
(306,-20,o),
(759,-20,cs)
);
}
);
userData = {
anchors = (
);
components = (
);
contours = (
);
hhints = {
};
name = O;
org.robofab.postScriptHintData = {
};
position = 1269;
unicodes = (
);
vhints = {
};
width = 1488;
};
width = 1519;
},
{
anchors = (
{
name = top;
pos = (752,1488);
}
);
layerId = "F7888953-CE93-4976-8BE6-A29979B42D03";
shapes = (
{
closed = 1;
nodes = (
(389,120,o),
(317,436,o),
(317,738,cs),
(317,1037,o),
(389,1364,o),
(751,1364,cs),
(1114,1364,o),
(1187,1039,o),
(1187,738,cs),
(1187,436,o),
(1111,120,o),
(751,120,cs)
);
},
{
closed = 1;
nodes = (
(1202,-20,o),
(1367,324,o),
(1367,738,cs),
(1367,1161,o),
(1206,1505,o),
(751,1505,cs),
(305,1505,o),
(137,1141,o),
(137,738,cs),
(137,324,o),
(302,-20,o),
(751,-20,cs)
);
}
);
userData = {
anchors = (
);
components = (
);
contours = (
);
hhints = {
};
name = O;
org.robofab.postScriptHintData = {
};
position = 1269;
unicodes = (
);
vhints = {
};
width = 1488;
};
width = 1504;
},
{
anchors = (
{
name = top;
pos = (794,1483);
}
);
layerId = "DF6AE5EF-88F0-41AF-8A72-F8343FE6B5C8";
shapes = (
{
closed = 1;
nodes = (
(538,234,o),
(470,458,o),
(470,745,cs),
(470,1031,o),
(538,1246,o),
(782,1246,cs),
(1025,1246,o),
(1093,1033,o),
(1093,745,cs),
(1093,466,o),
(1029,234,o),
(782,234,cs)
);
},
{
closed = 1;
nodes = (
(1244,-20,o),
(1462,262,o),
(1462,745,cs),
(1462,1236,o),
(1232,1505,o),
(782,1505,cs),
(331,1505,o),
(102,1243,o),
(102,745,cs),
(102,262,o),
(319,-20,o),
(782,-20,cs)
);
}
);
userData = {
anchors = (
);
components = (
);
contours = (
);
hhints = {
};
name = O;
org.robofab.postScriptHintData = {
};
position = 1269;
unicodes = (
);
vhints = {
};
width = 1488;
};
width = 1563;
}
);
unicode = 79;
},
{
glyphname = P;
lastChange = "2024-06-14 12:24:57 +0000";
layers = (
{
anchors = (
{
name = top;
pos = (628,1485);
}
);
layerId = "67845082-4271-4E32-8C80-EE8FB13E39CE";
shapes = (
{
closed = 1;
nodes = (
(491,0,l),
(491,604,l),
(535,604,ls),
(1007,604,o),
(1301,676,o),
(1301,1084,cs),
(1301,1417,o),
(1066,1485,o),
(610,1485,cs),
(172,1485,l),
(172,0,l)
);
},
{
closed = 1;
nodes = (
(491,1287,l),
(605,1287,ls),
(860,1287,o),
(984,1260,o),
(984,1054,cs),
(984,848,o),
(814,815,o),
(579,815,cs),
(491,815,l)
);
}
);
userData = {
anchors = (
);
com.typemytype.robofont.layerData = {
b = {
anchors = (
);
components = (
);
contours = (
);
lib = {
};
name = P;
unicodes = (
);
width = 1290;
};
};
components = (
);
contours = (
);
name = R;
org.robofab.postScriptHintData = {
};
position = 1135;
unicodes = (
);
width = 1304;
};
width = 1359;
},
{
anchors = (
{
name = top;
pos = (650,1487);
}
);
layerId = "A42FE7CC-127E-49DD-94F7-5A0AE28D570D";
shapes = (
{
closed = 1;
nodes = (
(311,0,l),
(311,660,l),
(530,660,ls),
(841,659,o),
(1188,687,o),
(1188,1079,cs),
(1188,1455,o),
(880,1485,o),
(606,1485,cs),
(175,1485,l),
(175,0,l)
);
},
{
closed = 1;
nodes = (
(311,1380,l),
(613,1380,ls),
(870,1380,o),
(1056,1356,o),
(1056,1069,cs),
(1056,788,o),
(823,767,o),
(585,767,cs),
(311,767,l)
);
}
);
userData = {
anchors = (
);
com.typemytype.robofont.layerData = {
b = {
anchors = (
);
components = (
);
contours = (
);
lib = {
};
name = P;
unicodes = (
);
width = 1290;
};
};
components = (
);
contours = (
);
name = R;
org.robofab.postScriptHintData = {
};
position = 1135;
unicodes = (
);
width = 1304;
};
width = 1248;
},
{
anchors = (
{
name = top;
pos = (627,1489);
}
);
layerId = "D923CF66-7FA1-4921-AD26-EF4ED3F99F75";
shapes = (
{
closed = 1;
nodes = (
(260,0,l),
(260,713,l),
(641,713,ls),
(929,713,o),
(1164,771,o),
(1164,1112,cs),
(1164,1465,o),
(872,1485,o),
(653,1485,cs),
(168,1485,l),
(168,0,l)
);
},
{
closed = 1;
nodes = (
(260,1406,l),
(654,1406,ls),
(889,1406,o),
(1068,1372,o),
(1068,1113,cs),
(1068,827,o),
(905,793,o),
(641,793,cs),
(260,793,l)
);
}
);
userData = {
anchors = (
);
com.typemytype.robofont.layerData = {
b = {
anchors = (
);
components = (
);
contours = (
);
lib = {
};
name = P;
unicodes = (
);
width = 1290;
};
};
components = (
);
contours = (
);
name = R;
org.robofab.postScriptHintData = {
};
position = 1135;
unicodes = (
);
width = 1304;
};
width = 1223;
},
{
anchors = (
{
name = top;
pos = (599,1485);
}
);
layerId = "A385C2E8-1AD9-48CA-B23A-EC0EE376012C";
shapes = (
{
closed = 1;
nodes = (
(578,0,l),
(578,603,l),
(613,603,ls),
(1177,603,o),
(1360,725,o),
(1360,1110,cs),
(1360,1398,o),
(1185,1485,o),
(644,1485,cs),
(166,1485,l),
(166,0,l)
);
},
{
closed = 1;
nodes = (
(578,1243,l),
(627,1243,ls),
(867,1243,o),
(944,1207,o),
(944,1074,cs),
(944,915,o),
(863,864,o),
(613,864,cs),
(578,864,l)
);
}
);
userData = {
anchors = (
);
com.typemytype.robofont.layerData = {
b = {
anchors = (
);
components = (
);
contours = (
);
lib = {
};
name = P;
unicodes = (
);
width = 1290;
};
};
components = (
);
contours = (
);
name = R;
org.robofab.postScriptHintData = {
};
position = 1135;
unicodes = (
);
width = 1304;
};
width = 1416;
},
{
anchors = (
{
name = top;
pos = (657,1485);
}
);
layerId = "8D846C25-91DF-40AD-AD53-612095F39333";
shapes = (
{
closed = 1;
nodes = (
(404,0,l),
(404,605,l),
(457,605,ls),
(837,605,o),
(1242,627,o),
(1242,1058,cs),
(1242,1436,o),
(947,1485,o),
(576,1485,cs),
(178,1485,l),
(178,0,l)
);
},
{
closed = 1;
nodes = (
(404,1332,l),
(582,1332,ls),
(853,1332,o),
(1023,1313,o),
(1023,1034,cs),
(1023,781,o),
(765,766,o),
(546,766,cs),
(404,766,l)
);
}
);
userData = {
anchors = (
);
com.typemytype.robofont.layerData = {
b = {
anchors = (
);
components = (
);
contours = (
);
lib = {
};
name = P;
unicodes = (
);
width = 1290;
};
};
components = (
);
contours = (
);
name = R;
org.robofab.postScriptHintData = {
};
position = 1135;
unicodes = (
);
width = 1304;
};
width = 1302;
},
{
anchors = (
{
name = top;
pos = (672,1485);
}
);
layerId = "F7888953-CE93-4976-8BE6-A29979B42D03";
shapes = (
{
closed = 1;
nodes = (
(361,0,l),
(361,606,l),
(418,606,ls),
(752,605,o),
(1212,603,o),
(1212,1045,cs),
(1212,1445,o),
(887,1485,o),
(559,1485,cs),
(181,1485,l),
(181,0,l)
);
},
{
closed = 1;
nodes = (
(361,1354,l),
(571,1354,ls),
(850,1354,o),
(1043,1340,o),
(1043,1024,cs),
(1043,748,o),
(740,741,o),
(529,741,cs),
(361,741,l)
);
}
);
userData = {
anchors = (
);
com.typemytype.robofont.layerData = {
b = {
anchors = (
);
components = (
);
contours = (
);
lib = {
};
name = P;
unicodes = (
);
width = 1290;
};
};
components = (
);
contours = (
);
name = R;
org.robofab.postScriptHintData = {
};
position = 1135;
unicodes = (
);
width = 1304;
};
width = 1273;
},
{
anchors = (
{
name = top;
pos = (614,1485);
}
);
layerId = "DF6AE5EF-88F0-41AF-8A72-F8343FE6B5C8";
shapes = (
{
closed = 1;
nodes = (
(535,0,l),
(535,604,l),
(574,604,ls),
(1092,603,o),
(1330,701,o),
(1330,1097,cs),
(1330,1407,o),
(1125,1485,o),
(627,1485,cs),
(169,1485,l),
(169,0,l)
);
},
{
closed = 1;
nodes = (
(535,1265,l),
(616,1265,ls),
(864,1265,o),
(964,1234,o),
(964,1064,cs),
(964,882,o),
(838,839,o),
(596,839,cs),
(535,839,l)
);
}
);
userData = {
anchors = (
);
com.typemytype.robofont.layerData = {
b = {
anchors = (
);
components = (
);
contours = (
);
lib = {
};
name = P;
unicodes = (
);
width = 1290;
};
};
components = (
);
contours = (
);
name = R;
org.robofab.postScriptHintData = {
};
position = 1135;
unicodes = (
);
width = 1304;
};
width = 1387;
}
);
unicode = 80;
},
{
glyphname = Q;
lastChange = "2024-06-14 12:24:57 +0000";
layers = (
{
layerId = "67845082-4271-4E32-8C80-EE8FB13E39CE";
shapes = (
{
closed = 1;
nodes = (
(1196,-281,l),
(980,7,l),
(1298,82,o),
(1438,360,o),
(1438,745,cs),
(1438,1218,o),
(1226,1505,o),
(774,1505,cs),
(325,1505,o),
(111,1217,o),
(111,745,cs),
(111,303,o),
(296,9,o),
(714,-15,c),
(1031,-420,l)
);
},
{
closed = 1;
nodes = (
(501,209,o),
(432,454,o),
(432,745,cs),
(432,1036,o),
(501,1275,o),
(774,1275,cs),
(1047,1275,o),
(1117,1038,o),
(1117,745,cs),
(1117,459,o),
(1050,209,o),
(774,209,cs)
);
}
);
userData = {
anchors = (
);
components = (
);
contours = (
);
name = Q;
org.robofab.postScriptHintData = {
};
position = 1285;
unicodes = (
);
width = 1508;
};
width = 1548;
},
{
layerId = "A42FE7CC-127E-49DD-94F7-5A0AE28D570D";
shapes = (
{
closed = 1;
nodes = (
(1104,-340,l),
(844,-8,l),
(1204,52,o),
(1326,381,o),
(1326,736,cs),
(1326,1134,o),
(1180,1495,o),
(727,1495,cs),
(278,1495,o),
(129,1124,o),
(129,736,cs),
(129,349,o),
(272,-9,o),
(712,-17,c),
(1021,-399,l)
);
},
{
closed = 1;
nodes = (
(346,93,o),
(266,429,o),
(266,736,cs),
(266,1043,o),
(346,1385,o),
(727,1385,cs),
(1108,1385,o),
(1188,1044,o),
(1188,736,cs),
(1188,429,o),
(1106,93,o),
(727,93,cs)
);
}
);
userData = {
anchors = (
);
components = (
);
contours = (
);
name = Q;
org.robofab.postScriptHintData = {
};
position = 1285;
unicodes = (
);
width = 1508;
};
width = 1454;
},
{
anchors = (
{
name = ogonek;
pos = (785,0);
},
{
name = top;
pos = (704,1468);
}
);
layerId = "D923CF66-7FA1-4921-AD26-EF4ED3F99F75";
shapes = (
{
closed = 1;
nodes = (
(1087,-348,l),
(808,-8,l),
(1174,51,o),
(1284,395,o),
(1284,734,cs),
(1284,1106,o),
(1153,1485,o),
(702,1485,cs),
(250,1485,o),
(120,1106,o),
(120,734,cs),
(120,364,o),
(250,-17,o),
(702,-17,c),
(1029,-398,l)
);
},
{
closed = 1;
nodes = (
(302,62,o),
(215,421,o),
(215,734,cs),
(215,1049,o),
(302,1406,o),
(702,1406,cs),
(1101,1406,o),
(1188,1049,o),
(1188,734,cs),
(1188,421,o),
(1101,62,o),
(702,62,cs)
);
}
);
userData = {
anchors = (
);
components = (
);
contours = (
);
name = Q;
org.robofab.postScriptHintData = {
};
position = 1285;
unicodes = (
);
width = 1508;
};
width = 1403;
},
{
layerId = "A385C2E8-1AD9-48CA-B23A-EC0EE376012C";
shapes = (
{
closed = 1;
nodes = (
(1247,-247,l),
(1046,16,l),
(1340,102,o),
(1486,355,o),
(1486,749,cs),
(1486,1256,o),
(1239,1505,o),
(790,1505,cs),
(338,1505,o),
(93,1268,o),
(93,749,cs),
(93,283,o),
(297,16,o),
(709,-14,c),
(1043,-433,l)
);
},
{
closed = 1;
nodes = (
(575,266,o),
(508,466,o),
(508,749,cs),
(508,1035,o),
(575,1216,o),
(790,1216,cs),
(1003,1216,o),
(1070,1037,o),
(1070,749,cs),
(1070,475,o),
(1009,266,o),
(790,266,cs)
);
}
);
userData = {
anchors = (
);
components = (
);
contours = (
);
name = Q;
org.robofab.postScriptHintData = {
};
position = 1285;
unicodes = (
);
width = 1508;
};
width = 1578;
},
{
layerId = "8D846C25-91DF-40AD-AD53-612095F39333";
shapes = (
{
closed = 1;
nodes = (
(1145,-315,l),
(913,-2,l),
(1255,62,o),
(1391,365,o),
(1391,740,cs),
(1391,1180,o),
(1213,1505,o),
(759,1505,cs),
(312,1505,o),
(128,1166,o),
(128,740,cs),
(128,324,o),
(295,2,o),
(719,-16,c),
(1019,-407,l)
);
},
{
closed = 1;
nodes = (
(426,152,o),
(355,442,o),
(355,740,cs),
(355,1037,o),
(426,1334,o),
(759,1334,cs),
(1092,1334,o),
(1164,1039,o),
(1164,740,cs),
(1164,444,o),
(1091,152,o),
(759,152,cs)
);
}
);
userData = {
anchors = (
);
components = (
);
contours = (
);
name = Q;
org.robofab.postScriptHintData = {
};
position = 1285;
unicodes = (
);
width = 1508;
};
width = 1519;
},
{
layerId = "F7888953-CE93-4976-8BE6-A29979B42D03";
shapes = (
{
closed = 1;
nodes = (
(1120,-332,l),
(880,-7,l),
(1234,52,o),
(1367,367,o),
(1367,738,cs),
(1367,1161,o),
(1206,1505,o),
(751,1505,cs),
(305,1505,o),
(137,1141,o),
(137,738,cs),
(137,334,o),
(294,-1,o),
(721,-16,c),
(1013,-400,l)
);
},
{
closed = 1;
nodes = (
(389,123,o),
(317,436,o),
(317,738,cs),
(317,1037,o),
(389,1364,o),
(751,1364,cs),
(1114,1364,o),
(1187,1039,o),
(1187,738,cs),
(1187,436,o),
(1111,123,o),
(751,123,cs)
);
}
);
userData = {
anchors = (
);
components = (
);
contours = (
);
name = Q;
org.robofab.postScriptHintData = {
};
position = 1285;
unicodes = (
);
width = 1508;
};
width = 1504;
},
{
layerId = "DF6AE5EF-88F0-41AF-8A72-F8343FE6B5C8";
shapes = (
{
closed = 1;
nodes = (
(1222,-264,l),
(1013,11,l),
(1319,92,o),
(1462,357,o),
(1462,747,cs),
(1462,1237,o),
(1232,1505,o),
(782,1505,cs),
(331,1505,o),
(102,1243,o),
(102,747,cs),
(102,293,o),
(296,13,o),
(711,-14,c),
(1037,-426,l)
);
},
{
closed = 1;
nodes = (
(538,237,o),
(470,460,o),
(470,747,cs),
(470,1035,o),
(538,1246,o),
(782,1246,cs),
(1025,1246,o),
(1093,1037,o),
(1093,747,cs),
(1093,467,o),
(1029,237,o),
(782,237,cs)
);
}
);
userData = {
anchors = (
);
components = (
);
contours = (
);
name = Q;
org.robofab.postScriptHintData = {
};
position = 1285;
unicodes = (
);
width = 1508;
};
width = 1563;
}
);
unicode = 81;
},
